<mxfile host="65bd71144e">
    <diagram id="bdlDXJFQDYp65SRI2i7g" name="architecture-1">
        <mxGraphModel dx="808" dy="371" grid="1" gridSize="10" guides="1" tooltips="1" connect="1" arrows="1" fold="1" page="1" pageScale="1" pageWidth="827" pageHeight="1169" math="1" shadow="0">
            <root>
                <mxCell id="0"/>
                <mxCell id="1" parent="0"/>
                <mxCell id="BvlqB2sUUSFM44WfJwpp-8" value="" style="rounded=0;opacity=50;fillColor=#f9f7ed;strokeColor=#36393d;labelBackgroundColor=none;align=right;labelPosition=left;verticalLabelPosition=top;verticalAlign=bottom;whiteSpace=wrap;html=1;" parent="1" vertex="1">
                    <mxGeometry x="41.05" y="375" width="1030" height="480" as="geometry"/>
                </mxCell>
                <mxCell id="BvlqB2sUUSFM44WfJwpp-1" value="C" style="rounded=0;whiteSpace=wrap;html=1;fillColor=#dae8fc;strokeColor=#6c8ebf;opacity=50;align=center;labelPosition=center;verticalLabelPosition=top;verticalAlign=bottom;" parent="1" vertex="1">
                    <mxGeometry x="86.05" y="515" width="190" height="330" as="geometry"/>
                </mxCell>
                <mxCell id="BvlqB2sUUSFM44WfJwpp-5" value="P" style="rounded=0;whiteSpace=wrap;html=1;fillColor=#fff2cc;strokeColor=#d6b656;opacity=50;labelPosition=center;verticalLabelPosition=top;align=center;verticalAlign=bottom;" parent="1" vertex="1">
                    <mxGeometry x="276.05" y="515" width="190" height="330" as="geometry"/>
                </mxCell>
                <mxCell id="BvlqB2sUUSFM44WfJwpp-6" value="C" style="rounded=0;whiteSpace=wrap;html=1;fillColor=#dae8fc;strokeColor=#6c8ebf;opacity=50;labelPosition=center;verticalLabelPosition=top;align=center;verticalAlign=bottom;" parent="1" vertex="1">
                    <mxGeometry x="466.05" y="515" width="190" height="330" as="geometry"/>
                </mxCell>
                <mxCell id="BvlqB2sUUSFM44WfJwpp-7" value="P" style="rounded=0;whiteSpace=wrap;html=1;fillColor=#fff2cc;strokeColor=#d6b656;opacity=50;labelPosition=center;verticalLabelPosition=top;align=center;verticalAlign=bottom;" parent="1" vertex="1">
                    <mxGeometry x="656.05" y="515" width="190" height="330" as="geometry"/>
                </mxCell>
                <mxCell id="BvlqB2sUUSFM44WfJwpp-9" value="Environment" style="text;html=1;strokeColor=none;fillColor=none;align=center;verticalAlign=middle;whiteSpace=wrap;rounded=0;labelBackgroundColor=none;opacity=50;" parent="1" vertex="1">
                    <mxGeometry x="51.05" y="375" width="60" height="30" as="geometry"/>
                </mxCell>
                <mxCell id="BvlqB2sUUSFM44WfJwpp-16" value="" style="rounded=0;whiteSpace=wrap;html=1;labelBackgroundColor=none;" parent="1" vertex="1">
                    <mxGeometry x="481.05" y="605" width="120" height="210" as="geometry"/>
                </mxCell>
                <mxCell id="BvlqB2sUUSFM44WfJwpp-17" value="" style="rounded=0;whiteSpace=wrap;html=1;labelBackgroundColor=none;" parent="1" vertex="1">
                    <mxGeometry x="671.05" y="605" width="120" height="210" as="geometry"/>
                </mxCell>
                <mxCell id="BvlqB2sUUSFM44WfJwpp-13" value="" style="rounded=0;whiteSpace=wrap;html=1;labelBackgroundColor=none;" parent="1" vertex="1">
                    <mxGeometry x="101.05" y="605" width="120" height="210" as="geometry"/>
                </mxCell>
                <mxCell id="BvlqB2sUUSFM44WfJwpp-15" value="" style="rounded=0;whiteSpace=wrap;html=1;labelBackgroundColor=none;" parent="1" vertex="1">
                    <mxGeometry x="294.55" y="605" width="120" height="210" as="geometry"/>
                </mxCell>
                <mxCell id="BvlqB2sUUSFM44WfJwpp-19" value="&lt;font style=&quot;font-size: 8px;&quot;&gt;$$actor-critc^{active}$$&lt;/font&gt;" style="text;html=1;strokeColor=none;fillColor=none;align=center;verticalAlign=middle;whiteSpace=wrap;rounded=0;labelBackgroundColor=none;" parent="1" vertex="1">
                    <mxGeometry x="310" y="600" width="60" height="30" as="geometry"/>
                </mxCell>
                <mxCell id="BvlqB2sUUSFM44WfJwpp-85" style="edgeStyle=orthogonalEdgeStyle;curved=1;rounded=0;orthogonalLoop=1;jettySize=auto;html=1;entryX=0.5;entryY=0;entryDx=0;entryDy=0;fontSize=11;fontColor=#000000;startArrow=classic;startFill=1;endArrow=classic;endFill=1;elbow=vertical;" parent="1" source="BvlqB2sUUSFM44WfJwpp-25" target="BvlqB2sUUSFM44WfJwpp-17" edge="1">
                    <mxGeometry relative="1" as="geometry"/>
                </mxCell>
                <mxCell id="BvlqB2sUUSFM44WfJwpp-104" value="&lt;span style=&quot;font-size: 1px;&quot;&gt;$$r_{t}^{e}, s_{t}$$&lt;/span&gt;" style="edgeLabel;html=1;align=center;verticalAlign=middle;resizable=0;points=[];fontSize=13;fontColor=#000000;" parent="BvlqB2sUUSFM44WfJwpp-85" connectable="0" vertex="1">
                    <mxGeometry x="0.0656" y="-1" relative="1" as="geometry">
                        <mxPoint as="offset"/>
                    </mxGeometry>
                </mxCell>
                <mxCell id="BvlqB2sUUSFM44WfJwpp-25" value="&lt;span style=&quot;font-size: 10px;&quot;&gt;$$task_{k+1}$$&lt;/span&gt;" style="rounded=0;whiteSpace=wrap;html=1;labelBackgroundColor=none;" parent="1" vertex="1">
                    <mxGeometry x="781.05" y="525" width="60" height="30" as="geometry"/>
                </mxCell>
                <mxCell id="BvlqB2sUUSFM44WfJwpp-30" value="" style="edgeStyle=orthogonalEdgeStyle;rounded=0;orthogonalLoop=1;jettySize=auto;html=1;" parent="1" source="BvlqB2sUUSFM44WfJwpp-26" target="BvlqB2sUUSFM44WfJwpp-29" edge="1">
                    <mxGeometry relative="1" as="geometry"/>
                </mxCell>
                <mxCell id="BvlqB2sUUSFM44WfJwpp-70" style="edgeStyle=orthogonalEdgeStyle;curved=1;rounded=0;orthogonalLoop=1;jettySize=auto;html=1;entryX=0;entryY=0.5;entryDx=0;entryDy=0;fontSize=20;endArrow=classic;endFill=1;elbow=vertical;" parent="1" source="BvlqB2sUUSFM44WfJwpp-26" target="BvlqB2sUUSFM44WfJwpp-40" edge="1">
                    <mxGeometry relative="1" as="geometry"/>
                </mxCell>
                <mxCell id="BvlqB2sUUSFM44WfJwpp-26" value="$$h'^0$$" style="rounded=1;whiteSpace=wrap;html=1;labelBackgroundColor=none;fillColor=#dae8fc;strokeColor=#6c8ebf;" parent="1" vertex="1">
                    <mxGeometry x="128.55" y="770" width="65" height="35" as="geometry"/>
                </mxCell>
                <mxCell id="BvlqB2sUUSFM44WfJwpp-36" style="edgeStyle=orthogonalEdgeStyle;rounded=0;orthogonalLoop=1;jettySize=auto;html=1;" parent="1" source="BvlqB2sUUSFM44WfJwpp-29" target="BvlqB2sUUSFM44WfJwpp-35" edge="1">
                    <mxGeometry relative="1" as="geometry"/>
                </mxCell>
                <mxCell id="BvlqB2sUUSFM44WfJwpp-69" style="edgeStyle=orthogonalEdgeStyle;curved=1;rounded=0;orthogonalLoop=1;jettySize=auto;html=1;entryX=0;entryY=0.5;entryDx=0;entryDy=0;fontSize=20;endArrow=classic;endFill=1;elbow=vertical;" parent="1" source="BvlqB2sUUSFM44WfJwpp-29" target="BvlqB2sUUSFM44WfJwpp-41" edge="1">
                    <mxGeometry relative="1" as="geometry"/>
                </mxCell>
                <mxCell id="BvlqB2sUUSFM44WfJwpp-29" value="$$h'^1$$" style="rounded=1;whiteSpace=wrap;html=1;labelBackgroundColor=none;fillColor=#dae8fc;strokeColor=#6c8ebf;" parent="1" vertex="1">
                    <mxGeometry x="128.55" y="705" width="65" height="35" as="geometry"/>
                </mxCell>
                <mxCell id="BvlqB2sUUSFM44WfJwpp-35" value="&lt;span style=&quot;font-family: SFMono-Regular, Menlo, Monaco, Consolas, &amp;quot;Liberation Mono&amp;quot;, &amp;quot;Courier New&amp;quot;, monospace; font-size: 13.125px; text-align: left; background-color: rgb(255, 255, 255);&quot;&gt;$$\pi_{k}^{kb}$$&lt;/span&gt;" style="rounded=1;whiteSpace=wrap;html=1;labelBackgroundColor=none;fillColor=#dae8fc;strokeColor=#6c8ebf;" parent="1" vertex="1">
                    <mxGeometry x="128.55" y="645" width="65" height="35" as="geometry"/>
                </mxCell>
                <mxCell id="BvlqB2sUUSFM44WfJwpp-37" value="" style="edgeStyle=orthogonalEdgeStyle;rounded=0;orthogonalLoop=1;jettySize=auto;html=1;" parent="1" source="BvlqB2sUUSFM44WfJwpp-38" target="BvlqB2sUUSFM44WfJwpp-40" edge="1">
                    <mxGeometry relative="1" as="geometry"/>
                </mxCell>
                <mxCell id="BvlqB2sUUSFM44WfJwpp-72" style="edgeStyle=orthogonalEdgeStyle;curved=1;rounded=0;orthogonalLoop=1;jettySize=auto;html=1;entryX=0;entryY=0.5;entryDx=0;entryDy=0;fontSize=20;endArrow=classic;endFill=1;elbow=vertical;" parent="1" source="BvlqB2sUUSFM44WfJwpp-38" target="BvlqB2sUUSFM44WfJwpp-45" edge="1">
                    <mxGeometry relative="1" as="geometry"/>
                </mxCell>
                <mxCell id="BvlqB2sUUSFM44WfJwpp-38" value="$$h^0$$" style="rounded=1;whiteSpace=wrap;html=1;labelBackgroundColor=none;fillColor=#dae8fc;strokeColor=#6c8ebf;" parent="1" vertex="1">
                    <mxGeometry x="322.05" y="770" width="65" height="35" as="geometry"/>
                </mxCell>
                <mxCell id="BvlqB2sUUSFM44WfJwpp-39" style="edgeStyle=orthogonalEdgeStyle;rounded=0;orthogonalLoop=1;jettySize=auto;html=1;" parent="1" source="BvlqB2sUUSFM44WfJwpp-40" target="BvlqB2sUUSFM44WfJwpp-41" edge="1">
                    <mxGeometry relative="1" as="geometry"/>
                </mxCell>
                <mxCell id="BvlqB2sUUSFM44WfJwpp-71" style="edgeStyle=orthogonalEdgeStyle;curved=1;rounded=0;orthogonalLoop=1;jettySize=auto;html=1;entryX=0;entryY=0.5;entryDx=0;entryDy=0;fontSize=20;endArrow=classic;endFill=1;elbow=vertical;" parent="1" source="BvlqB2sUUSFM44WfJwpp-40" target="BvlqB2sUUSFM44WfJwpp-46" edge="1">
                    <mxGeometry relative="1" as="geometry"/>
                </mxCell>
                <mxCell id="BvlqB2sUUSFM44WfJwpp-40" value="$$h^1$$" style="rounded=1;whiteSpace=wrap;html=1;labelBackgroundColor=none;fillColor=#dae8fc;strokeColor=#6c8ebf;" parent="1" vertex="1">
                    <mxGeometry x="322.05" y="705" width="65" height="35" as="geometry"/>
                </mxCell>
                <mxCell id="BvlqB2sUUSFM44WfJwpp-77" style="edgeStyle=orthogonalEdgeStyle;curved=1;rounded=0;orthogonalLoop=1;jettySize=auto;html=1;entryX=0.5;entryY=0;entryDx=0;entryDy=0;fontSize=20;fontColor=#000000;endArrow=classic;endFill=1;elbow=vertical;dashed=1;" parent="1" source="BvlqB2sUUSFM44WfJwpp-41" target="BvlqB2sUUSFM44WfJwpp-46" edge="1">
                    <mxGeometry relative="1" as="geometry">
                        <Array as="points">
                            <mxPoint x="448.05" y="662"/>
                            <mxPoint x="448.05" y="635"/>
                            <mxPoint x="541.05" y="635"/>
                        </Array>
                    </mxGeometry>
                </mxCell>
                <mxCell id="BvlqB2sUUSFM44WfJwpp-81" value="&lt;font style=&quot;font-size: 11px;&quot;&gt;KL&lt;/font&gt;" style="edgeLabel;html=1;align=center;verticalAlign=middle;resizable=0;points=[];fontSize=20;fontColor=#000000;" parent="BvlqB2sUUSFM44WfJwpp-77" connectable="0" vertex="1">
                    <mxGeometry x="-0.2366" y="1" relative="1" as="geometry">
                        <mxPoint as="offset"/>
                    </mxGeometry>
                </mxCell>
                <mxCell id="BvlqB2sUUSFM44WfJwpp-41" value="&lt;div style=&quot;text-align: left;&quot;&gt;&lt;span style=&quot;background-color: rgb(255, 255, 255); font-family: SFMono-Regular, Menlo, Monaco, Consolas, &amp;quot;Liberation Mono&amp;quot;, &amp;quot;Courier New&amp;quot;, monospace; font-size: 13.125px;&quot;&gt;$$\pi_{k}$$&lt;/span&gt;&lt;/div&gt;" style="rounded=1;whiteSpace=wrap;html=1;labelBackgroundColor=none;fillColor=#dae8fc;strokeColor=#6c8ebf;" parent="1" vertex="1">
                    <mxGeometry x="322.55" y="645" width="65" height="35" as="geometry"/>
                </mxCell>
                <mxCell id="BvlqB2sUUSFM44WfJwpp-42" value="" style="edgeStyle=orthogonalEdgeStyle;rounded=0;orthogonalLoop=1;jettySize=auto;html=1;" parent="1" source="BvlqB2sUUSFM44WfJwpp-43" target="BvlqB2sUUSFM44WfJwpp-45" edge="1">
                    <mxGeometry relative="1" as="geometry"/>
                </mxCell>
                <mxCell id="BvlqB2sUUSFM44WfJwpp-74" style="edgeStyle=orthogonalEdgeStyle;curved=1;rounded=0;orthogonalLoop=1;jettySize=auto;html=1;entryX=0;entryY=0.5;entryDx=0;entryDy=0;fontSize=20;endArrow=classic;endFill=1;elbow=vertical;" parent="1" source="BvlqB2sUUSFM44WfJwpp-43" target="BvlqB2sUUSFM44WfJwpp-50" edge="1">
                    <mxGeometry relative="1" as="geometry"/>
                </mxCell>
                <mxCell id="BvlqB2sUUSFM44WfJwpp-43" value="$$h'^0$$" style="rounded=1;whiteSpace=wrap;html=1;labelBackgroundColor=none;fillColor=#dae8fc;strokeColor=#6c8ebf;" parent="1" vertex="1">
                    <mxGeometry x="508.55" y="770" width="65" height="35" as="geometry"/>
                </mxCell>
                <mxCell id="BvlqB2sUUSFM44WfJwpp-44" style="edgeStyle=orthogonalEdgeStyle;rounded=0;orthogonalLoop=1;jettySize=auto;html=1;" parent="1" source="BvlqB2sUUSFM44WfJwpp-45" target="BvlqB2sUUSFM44WfJwpp-46" edge="1">
                    <mxGeometry relative="1" as="geometry"/>
                </mxCell>
                <mxCell id="BvlqB2sUUSFM44WfJwpp-73" style="edgeStyle=orthogonalEdgeStyle;curved=1;rounded=0;orthogonalLoop=1;jettySize=auto;html=1;entryX=0;entryY=0.5;entryDx=0;entryDy=0;fontSize=20;endArrow=classic;endFill=1;elbow=vertical;" parent="1" source="BvlqB2sUUSFM44WfJwpp-45" target="BvlqB2sUUSFM44WfJwpp-51" edge="1">
                    <mxGeometry relative="1" as="geometry"/>
                </mxCell>
                <mxCell id="BvlqB2sUUSFM44WfJwpp-45" value="$$h'^1$$" style="rounded=1;whiteSpace=wrap;html=1;labelBackgroundColor=none;fillColor=#dae8fc;strokeColor=#6c8ebf;" parent="1" vertex="1">
                    <mxGeometry x="508.55" y="710" width="65" height="35" as="geometry"/>
                </mxCell>
                <mxCell id="BvlqB2sUUSFM44WfJwpp-46" value="&lt;span style=&quot;font-family: SFMono-Regular, Menlo, Monaco, Consolas, &amp;quot;Liberation Mono&amp;quot;, &amp;quot;Courier New&amp;quot;, monospace; font-size: 13.125px; text-align: left; background-color: rgb(255, 255, 255);&quot;&gt;$$\pi_{k+1}^{kb}$$&lt;/span&gt;" style="rounded=1;whiteSpace=wrap;html=1;labelBackgroundColor=none;fillColor=#dae8fc;strokeColor=#6c8ebf;" parent="1" vertex="1">
                    <mxGeometry x="509.55" y="645" width="65" height="35" as="geometry"/>
                </mxCell>
                <mxCell id="BvlqB2sUUSFM44WfJwpp-47" value="" style="edgeStyle=orthogonalEdgeStyle;rounded=0;orthogonalLoop=1;jettySize=auto;html=1;" parent="1" source="BvlqB2sUUSFM44WfJwpp-48" target="BvlqB2sUUSFM44WfJwpp-50" edge="1">
                    <mxGeometry relative="1" as="geometry"/>
                </mxCell>
                <mxCell id="BvlqB2sUUSFM44WfJwpp-48" value="$$h^0$$" style="rounded=1;whiteSpace=wrap;html=1;labelBackgroundColor=none;fillColor=#dae8fc;strokeColor=#6c8ebf;" parent="1" vertex="1">
                    <mxGeometry x="698.55" y="770" width="65" height="35" as="geometry"/>
                </mxCell>
                <mxCell id="BvlqB2sUUSFM44WfJwpp-49" style="edgeStyle=orthogonalEdgeStyle;rounded=0;orthogonalLoop=1;jettySize=auto;html=1;" parent="1" source="BvlqB2sUUSFM44WfJwpp-50" target="BvlqB2sUUSFM44WfJwpp-51" edge="1">
                    <mxGeometry relative="1" as="geometry"/>
                </mxCell>
                <mxCell id="BvlqB2sUUSFM44WfJwpp-50" value="$$h^1$$" style="rounded=1;whiteSpace=wrap;html=1;labelBackgroundColor=none;fillColor=#dae8fc;strokeColor=#6c8ebf;" parent="1" vertex="1">
                    <mxGeometry x="698.55" y="705" width="65" height="35" as="geometry"/>
                </mxCell>
                <mxCell id="BvlqB2sUUSFM44WfJwpp-51" value="&lt;span style=&quot;font-family: SFMono-Regular, Menlo, Monaco, Consolas, &amp;quot;Liberation Mono&amp;quot;, &amp;quot;Courier New&amp;quot;, monospace; font-size: 13.125px; text-align: left; background-color: rgb(255, 255, 255);&quot;&gt;$$\pi_{k+1}$$&lt;/span&gt;" style="rounded=1;whiteSpace=wrap;html=1;labelBackgroundColor=none;fillColor=#dae8fc;strokeColor=#6c8ebf;" parent="1" vertex="1">
                    <mxGeometry x="698.55" y="645" width="65" height="35" as="geometry"/>
                </mxCell>
                <mxCell id="BvlqB2sUUSFM44WfJwpp-52" value="" style="endArrow=classic;html=1;rounded=0;entryX=0.5;entryY=0;entryDx=0;entryDy=0;dashed=1;edgeStyle=orthogonalEdgeStyle;elbow=vertical;curved=1;fillColor=#dae8fc;strokeColor=#6c8ebf;" parent="1" target="BvlqB2sUUSFM44WfJwpp-13" edge="1">
                    <mxGeometry width="50" height="50" relative="1" as="geometry">
                        <mxPoint x="41.05" y="565" as="sourcePoint"/>
                        <mxPoint x="461.05" y="635" as="targetPoint"/>
                        <Array as="points">
                            <mxPoint x="41.05" y="485"/>
                            <mxPoint x="161.05" y="485"/>
                        </Array>
                    </mxGeometry>
                </mxCell>
                <mxCell id="BvlqB2sUUSFM44WfJwpp-53" value="EWC" style="edgeLabel;html=1;align=center;verticalAlign=middle;resizable=0;points=[];" parent="BvlqB2sUUSFM44WfJwpp-52" connectable="0" vertex="1">
                    <mxGeometry x="-0.0937" y="-4" relative="1" as="geometry">
                        <mxPoint as="offset"/>
                    </mxGeometry>
                </mxCell>
                <mxCell id="BvlqB2sUUSFM44WfJwpp-54" value="" style="endArrow=classic;html=1;rounded=0;entryX=0.5;entryY=0;entryDx=0;entryDy=0;dashed=1;edgeStyle=orthogonalEdgeStyle;elbow=vertical;curved=1;exitX=0.5;exitY=0;exitDx=0;exitDy=0;fillColor=#dae8fc;strokeColor=#6c8ebf;" parent="1" source="BvlqB2sUUSFM44WfJwpp-13" edge="1">
                    <mxGeometry width="50" height="50" relative="1" as="geometry">
                        <mxPoint x="421.05" y="565" as="sourcePoint"/>
                        <mxPoint x="541.05" y="605" as="targetPoint"/>
                        <Array as="points">
                            <mxPoint x="161.05" y="475"/>
                            <mxPoint x="541.05" y="475"/>
                        </Array>
                    </mxGeometry>
                </mxCell>
                <mxCell id="BvlqB2sUUSFM44WfJwpp-55" value="EWC" style="edgeLabel;html=1;align=center;verticalAlign=middle;resizable=0;points=[];" parent="BvlqB2sUUSFM44WfJwpp-54" connectable="0" vertex="1">
                    <mxGeometry x="-0.0937" y="-4" relative="1" as="geometry">
                        <mxPoint as="offset"/>
                    </mxGeometry>
                </mxCell>
                <mxCell id="BvlqB2sUUSFM44WfJwpp-58" value="C" style="rounded=0;whiteSpace=wrap;html=1;fillColor=#dae8fc;strokeColor=#6c8ebf;opacity=50;labelPosition=center;verticalLabelPosition=top;align=center;verticalAlign=bottom;" parent="1" vertex="1">
                    <mxGeometry x="846.05" y="515" width="190" height="330" as="geometry"/>
                </mxCell>
                <mxCell id="BvlqB2sUUSFM44WfJwpp-59" value="" style="rounded=0;whiteSpace=wrap;html=1;labelBackgroundColor=none;" parent="1" vertex="1">
                    <mxGeometry x="861.05" y="605" width="120" height="210" as="geometry"/>
                </mxCell>
                <mxCell id="BvlqB2sUUSFM44WfJwpp-61" value="" style="edgeStyle=orthogonalEdgeStyle;rounded=0;orthogonalLoop=1;jettySize=auto;html=1;" parent="1" source="BvlqB2sUUSFM44WfJwpp-62" target="BvlqB2sUUSFM44WfJwpp-64" edge="1">
                    <mxGeometry relative="1" as="geometry"/>
                </mxCell>
                <mxCell id="BvlqB2sUUSFM44WfJwpp-62" value="$$h^0$$" style="rounded=1;whiteSpace=wrap;html=1;labelBackgroundColor=none;fillColor=#dae8fc;strokeColor=#6c8ebf;" parent="1" vertex="1">
                    <mxGeometry x="891.05" y="770" width="65" height="35" as="geometry"/>
                </mxCell>
                <mxCell id="BvlqB2sUUSFM44WfJwpp-63" style="edgeStyle=orthogonalEdgeStyle;rounded=0;orthogonalLoop=1;jettySize=auto;html=1;" parent="1" source="BvlqB2sUUSFM44WfJwpp-64" target="BvlqB2sUUSFM44WfJwpp-65" edge="1">
                    <mxGeometry relative="1" as="geometry"/>
                </mxCell>
                <mxCell id="BvlqB2sUUSFM44WfJwpp-64" value="$$h^1$$" style="rounded=1;whiteSpace=wrap;html=1;labelBackgroundColor=none;fillColor=#dae8fc;strokeColor=#6c8ebf;" parent="1" vertex="1">
                    <mxGeometry x="891.05" y="710" width="65" height="35" as="geometry"/>
                </mxCell>
                <mxCell id="BvlqB2sUUSFM44WfJwpp-65" value="&lt;span style=&quot;font-family: SFMono-Regular, Menlo, Monaco, Consolas, &amp;quot;Liberation Mono&amp;quot;, &amp;quot;Courier New&amp;quot;, monospace; font-size: 13.125px; text-align: left; background-color: rgb(255, 255, 255);&quot;&gt;$$\pi_{k+2}^{kb}$$&lt;/span&gt;" style="rounded=1;whiteSpace=wrap;html=1;labelBackgroundColor=none;fillColor=#dae8fc;strokeColor=#6c8ebf;" parent="1" vertex="1">
                    <mxGeometry x="891.05" y="645" width="65" height="35" as="geometry"/>
                </mxCell>
                <mxCell id="BvlqB2sUUSFM44WfJwpp-56" value="" style="endArrow=classic;html=1;rounded=0;dashed=1;edgeStyle=orthogonalEdgeStyle;elbow=vertical;curved=1;entryX=0.5;entryY=0;entryDx=0;entryDy=0;fillColor=#dae8fc;strokeColor=#6c8ebf;" parent="1" target="BvlqB2sUUSFM44WfJwpp-59" edge="1">
                    <mxGeometry width="50" height="50" relative="1" as="geometry">
                        <mxPoint x="541.05" y="605" as="sourcePoint"/>
                        <mxPoint x="891.05" y="595" as="targetPoint"/>
                        <Array as="points">
                            <mxPoint x="541.05" y="475"/>
                            <mxPoint x="921.05" y="475"/>
                        </Array>
                    </mxGeometry>
                </mxCell>
                <mxCell id="BvlqB2sUUSFM44WfJwpp-57" value="EWC" style="edgeLabel;html=1;align=center;verticalAlign=middle;resizable=0;points=[];" parent="BvlqB2sUUSFM44WfJwpp-56" connectable="0" vertex="1">
                    <mxGeometry x="-0.0937" y="-4" relative="1" as="geometry">
                        <mxPoint as="offset"/>
                    </mxGeometry>
                </mxCell>
                <mxCell id="BvlqB2sUUSFM44WfJwpp-66" value="" style="endArrow=none;html=1;rounded=0;dashed=1;edgeStyle=orthogonalEdgeStyle;elbow=vertical;curved=1;endFill=0;entryX=1;entryY=0.469;entryDx=0;entryDy=0;entryPerimeter=0;fillColor=#dae8fc;strokeColor=#6c8ebf;" parent="1" target="BvlqB2sUUSFM44WfJwpp-8" edge="1">
                    <mxGeometry width="50" height="50" relative="1" as="geometry">
                        <mxPoint x="921.05" y="605" as="sourcePoint"/>
                        <mxPoint x="1151.05" y="605" as="targetPoint"/>
                        <Array as="points">
                            <mxPoint x="921.05" y="495"/>
                            <mxPoint x="1071.05" y="495"/>
                        </Array>
                    </mxGeometry>
                </mxCell>
                <mxCell id="BvlqB2sUUSFM44WfJwpp-67" value="EWC" style="edgeLabel;html=1;align=center;verticalAlign=middle;resizable=0;points=[];" parent="BvlqB2sUUSFM44WfJwpp-66" connectable="0" vertex="1">
                    <mxGeometry x="-0.0937" y="-4" relative="1" as="geometry">
                        <mxPoint as="offset"/>
                    </mxGeometry>
                </mxCell>
                <mxCell id="BvlqB2sUUSFM44WfJwpp-75" style="edgeStyle=orthogonalEdgeStyle;curved=1;rounded=0;orthogonalLoop=1;jettySize=auto;html=1;entryX=0;entryY=0.5;entryDx=0;entryDy=0;fontSize=20;endArrow=classic;endFill=1;elbow=vertical;" parent="1" source="BvlqB2sUUSFM44WfJwpp-50" target="BvlqB2sUUSFM44WfJwpp-65" edge="1">
                    <mxGeometry relative="1" as="geometry"/>
                </mxCell>
                <mxCell id="BvlqB2sUUSFM44WfJwpp-76" style="edgeStyle=orthogonalEdgeStyle;curved=1;rounded=0;orthogonalLoop=1;jettySize=auto;html=1;entryX=0;entryY=0.5;entryDx=0;entryDy=0;fontSize=20;endArrow=classic;endFill=1;elbow=vertical;" parent="1" source="BvlqB2sUUSFM44WfJwpp-48" target="BvlqB2sUUSFM44WfJwpp-64" edge="1">
                    <mxGeometry relative="1" as="geometry"/>
                </mxCell>
                <mxCell id="BvlqB2sUUSFM44WfJwpp-79" style="edgeStyle=orthogonalEdgeStyle;curved=1;rounded=0;orthogonalLoop=1;jettySize=auto;html=1;entryX=0.5;entryY=0;entryDx=0;entryDy=0;dashed=1;fontSize=20;fontColor=#000000;endArrow=classic;endFill=1;elbow=vertical;" parent="1" source="BvlqB2sUUSFM44WfJwpp-51" target="BvlqB2sUUSFM44WfJwpp-65" edge="1">
                    <mxGeometry relative="1" as="geometry">
                        <Array as="points">
                            <mxPoint x="827.05" y="662"/>
                            <mxPoint x="827.05" y="635"/>
                            <mxPoint x="924.05" y="635"/>
                        </Array>
                    </mxGeometry>
                </mxCell>
                <mxCell id="BvlqB2sUUSFM44WfJwpp-82" value="KL" style="edgeLabel;html=1;align=center;verticalAlign=middle;resizable=0;points=[];fontSize=11;fontColor=#000000;" parent="BvlqB2sUUSFM44WfJwpp-79" connectable="0" vertex="1">
                    <mxGeometry x="-0.2717" y="5" relative="1" as="geometry">
                        <mxPoint as="offset"/>
                    </mxGeometry>
                </mxCell>
                <mxCell id="BvlqB2sUUSFM44WfJwpp-80" style="edgeStyle=orthogonalEdgeStyle;curved=1;rounded=0;orthogonalLoop=1;jettySize=auto;html=1;entryX=0.5;entryY=0;entryDx=0;entryDy=0;fontSize=20;fontColor=#000000;endArrow=classic;endFill=1;elbow=vertical;dashed=1;" parent="1" target="BvlqB2sUUSFM44WfJwpp-35" edge="1">
                    <mxGeometry relative="1" as="geometry">
                        <mxPoint x="39.999999999999986" y="662.4261904761904" as="sourcePoint"/>
                        <mxPoint x="193.5" y="644.95" as="targetPoint"/>
                        <Array as="points">
                            <mxPoint x="100.05" y="662"/>
                            <mxPoint x="100.05" y="635"/>
                            <mxPoint x="161.05" y="635"/>
                        </Array>
                    </mxGeometry>
                </mxCell>
                <mxCell id="BvlqB2sUUSFM44WfJwpp-83" value="KL" style="edgeLabel;html=1;align=center;verticalAlign=middle;resizable=0;points=[];fontSize=11;fontColor=#000000;" parent="BvlqB2sUUSFM44WfJwpp-80" connectable="0" vertex="1">
                    <mxGeometry x="-0.613" y="1" relative="1" as="geometry">
                        <mxPoint as="offset"/>
                    </mxGeometry>
                </mxCell>
                <mxCell id="BvlqB2sUUSFM44WfJwpp-86" value="&lt;font style=&quot;font-size: 8px;&quot;&gt;$$actor-critc^{active}$$&lt;/font&gt;" style="text;html=1;strokeColor=none;fillColor=none;align=center;verticalAlign=middle;whiteSpace=wrap;rounded=0;labelBackgroundColor=none;" parent="1" vertex="1">
                    <mxGeometry x="690" y="600" width="60" height="30" as="geometry"/>
                </mxCell>
                <mxCell id="BvlqB2sUUSFM44WfJwpp-87" value="&lt;font style=&quot;font-size: 8px;&quot;&gt;$$actor-critc^{kb}$$&lt;/font&gt;" style="text;html=1;strokeColor=none;fillColor=none;align=center;verticalAlign=middle;whiteSpace=wrap;rounded=0;labelBackgroundColor=none;" parent="1" vertex="1">
                    <mxGeometry x="111.05" y="600" width="60" height="30" as="geometry"/>
                </mxCell>
                <mxCell id="BvlqB2sUUSFM44WfJwpp-88" value="&lt;font style=&quot;font-size: 8px;&quot;&gt;$$actor-critc^{kb}$$&lt;/font&gt;" style="text;html=1;strokeColor=none;fillColor=none;align=center;verticalAlign=middle;whiteSpace=wrap;rounded=0;labelBackgroundColor=none;" parent="1" vertex="1">
                    <mxGeometry x="491.05" y="600" width="60" height="30" as="geometry"/>
                </mxCell>
                <mxCell id="BvlqB2sUUSFM44WfJwpp-89" value="&lt;font style=&quot;font-size: 8px;&quot;&gt;$$actor-critc^{kb}$$&lt;/font&gt;" style="text;html=1;strokeColor=none;fillColor=none;align=center;verticalAlign=middle;whiteSpace=wrap;rounded=0;labelBackgroundColor=none;" parent="1" vertex="1">
                    <mxGeometry x="871.05" y="600" width="60" height="30" as="geometry"/>
                </mxCell>
                <mxCell id="BvlqB2sUUSFM44WfJwpp-91" style="edgeStyle=orthogonalEdgeStyle;curved=1;rounded=0;orthogonalLoop=1;jettySize=auto;html=1;entryX=0.075;entryY=0.001;entryDx=0;entryDy=0;fontSize=8;fontColor=#000000;startArrow=classic;startFill=1;endArrow=classic;endFill=1;elbow=vertical;entryPerimeter=0;" parent="1" source="BvlqB2sUUSFM44WfJwpp-90" target="BvlqB2sUUSFM44WfJwpp-15" edge="1">
                    <mxGeometry relative="1" as="geometry"/>
                </mxCell>
                <mxCell id="BvlqB2sUUSFM44WfJwpp-93" value="$$r^{i}_{t}, s_t$$" style="edgeLabel;html=1;align=center;verticalAlign=middle;resizable=0;points=[];fontSize=1;fontColor=#000000;" parent="BvlqB2sUUSFM44WfJwpp-91" connectable="0" vertex="1">
                    <mxGeometry x="-0.1471" y="-1" relative="1" as="geometry">
                        <mxPoint as="offset"/>
                    </mxGeometry>
                </mxCell>
                <mxCell id="BvlqB2sUUSFM44WfJwpp-108" style="rounded=0;orthogonalLoop=1;jettySize=auto;html=1;exitX=0;exitY=0;exitDx=0;exitDy=0;fontSize=13;fontColor=#000000;startArrow=none;startFill=0;endArrow=none;endFill=0;elbow=vertical;dashed=1;entryX=0;entryY=1;entryDx=0;entryDy=0;" parent="1" source="BvlqB2sUUSFM44WfJwpp-90" target="BvlqB2sUUSFM44WfJwpp-106" edge="1">
                    <mxGeometry relative="1" as="geometry">
                        <mxPoint x="240" y="315" as="targetPoint"/>
                    </mxGeometry>
                </mxCell>
                <mxCell id="BvlqB2sUUSFM44WfJwpp-90" value="&lt;font style=&quot;font-size: 8px;&quot;&gt;$$ICM_{task^{agnostic}_{k}}$$&lt;/font&gt;" style="rounded=0;whiteSpace=wrap;html=1;labelBackgroundColor=none;strokeWidth=1;" parent="1" vertex="1">
                    <mxGeometry x="281.05" y="525" width="80" height="30" as="geometry"/>
                </mxCell>
                <mxCell id="BvlqB2sUUSFM44WfJwpp-95" value="&lt;h1 style=&quot;font-size: 12px;&quot;&gt;&lt;span style=&quot;background-color: initial;&quot;&gt;&lt;font style=&quot;font-size: 12px;&quot;&gt;Remark for ICM module&lt;/font&gt;&lt;/span&gt;&lt;/h1&gt;&lt;h1 style=&quot;font-size: 12px;&quot;&gt;&lt;span style=&quot;font-weight: 400;&quot;&gt;&lt;font style=&quot;font-size: 12px;&quot;&gt;The ICM module is defined as: $$ICM = \{p(s_{t}, a_{t}|\theta_{active}): p \in H, H \setminus \{Inverse Model\}\}$$&lt;/font&gt;&lt;/span&gt;&lt;/h1&gt;" style="text;html=1;strokeColor=none;fillColor=none;spacing=5;spacingTop=-20;whiteSpace=wrap;overflow=hidden;rounded=0;labelBackgroundColor=none;strokeWidth=1;fontSize=8;fontColor=#000000;" parent="1" vertex="1">
                    <mxGeometry x="40" y="90" width="350" height="70" as="geometry"/>
                </mxCell>
                <mxCell id="BvlqB2sUUSFM44WfJwpp-101" value="" style="edgeStyle=orthogonalEdgeStyle;curved=1;rounded=0;orthogonalLoop=1;jettySize=auto;html=1;fontSize=12;fontColor=#000000;startArrow=none;startFill=0;endArrow=classic;endFill=1;elbow=vertical;" parent="1" source="BvlqB2sUUSFM44WfJwpp-96" target="BvlqB2sUUSFM44WfJwpp-100" edge="1">
                    <mxGeometry relative="1" as="geometry"/>
                </mxCell>
                <mxCell id="BvlqB2sUUSFM44WfJwpp-96" value="&lt;h1 style=&quot;font-size: 12px;&quot;&gt;&lt;span style=&quot;background-color: initial;&quot;&gt;&lt;font style=&quot;font-size: 12px;&quot;&gt;Remark for training&amp;nbsp;&lt;/font&gt;&lt;/span&gt;(just a outline!);&amp;nbsp;&lt;/h1&gt;&lt;h1 style=&quot;font-size: 12px;&quot;&gt;just one use case of training (we could also only train the warm up and immediately switch to compress phase....)&lt;/h1&gt;&lt;h1 style=&quot;font-size: 12px;&quot;&gt;&lt;font style=&quot;font-size: 12px;&quot;&gt;&lt;span style=&quot;font-weight: 400;&quot;&gt;1. Train first in the task agnostic phase to maximize the sum over all intrinsic rewards r&lt;sub&gt;t&lt;/sub&gt;&lt;sup&gt;i&lt;/sup&gt;. Maximize return via policy gradient learning. This phase is also called &lt;/span&gt;warm up&lt;span style=&quot;font-weight: 400;&quot;&gt; phase.&lt;/span&gt;&lt;/font&gt;&lt;/h1&gt;&lt;div&gt;&lt;font style=&quot;font-size: 12px;&quot;&gt;&lt;span style=&quot;font-weight: 400;&quot;&gt;2. After training the paramters via the intrinsic rewards, train in task &lt;/span&gt;&lt;b&gt;dependent/progress phase (task&lt;sub&gt;t&lt;/sub&gt;)&lt;/b&gt;. Here maximize the rewards from the environment r&lt;/font&gt;&lt;font style=&quot;font-size: 10px;&quot;&gt;&lt;sub&gt;t&lt;/sub&gt;&lt;sup&gt;e&lt;/sup&gt;&lt;/font&gt;&lt;font style=&quot;&quot;&gt;&lt;span style=&quot;font-size: 12px;&quot;&gt;&amp;nbsp;via policy gradients.&lt;/span&gt;&lt;/font&gt;&lt;/div&gt;&lt;div&gt;&lt;font style=&quot;font-size: 12px;&quot;&gt;&lt;br&gt;&lt;/font&gt;&lt;/div&gt;&lt;div&gt;&lt;font style=&quot;font-size: 12px;&quot;&gt;3. After trained in progress phase, destille knowledge via a transfer set, while consolidating knowledge (params) from previous tasks.&lt;/font&gt;&lt;/div&gt;" style="text;html=1;strokeColor=none;fillColor=none;spacing=5;spacingTop=-20;whiteSpace=wrap;overflow=hidden;rounded=0;labelBackgroundColor=none;strokeWidth=1;fontSize=8;fontColor=#000000;" parent="1" vertex="1">
                    <mxGeometry x="414" y="50" width="350" height="230" as="geometry"/>
                </mxCell>
                <mxCell id="BvlqB2sUUSFM44WfJwpp-100" value="&lt;p style=&quot;line-height: 20%;&quot;&gt;&lt;/p&gt;&lt;h1 style=&quot;line-height: 90%; font-size: 13px;&quot;&gt;&lt;span style=&quot;background-color: initial;&quot;&gt;&lt;font style=&quot;font-size: 13px;&quot;&gt;Assumptions&lt;/font&gt;&lt;/span&gt;&lt;/h1&gt;&lt;h1 style=&quot;line-height: 90%; font-size: 13px;&quot;&gt;&lt;font style=&quot;font-weight: normal; font-size: 13px;&quot;&gt;The agent does not recognize whether it is in the warm-up phase or in the progress phase. It sees these phases as the same because it receives the rewards from both phases, regardless of how different the context phases of the given rewards are.&lt;/font&gt;&lt;/h1&gt;&lt;h1 style=&quot;line-height: 90%; font-size: 13px;&quot;&gt;&lt;ul style=&quot;line-height: 90%;&quot;&gt;&lt;li style=&quot;&quot;&gt;&lt;font style=&quot;font-size: 13px;&quot;&gt;&lt;span style=&quot;background-color: initial; font-weight: normal;&quot;&gt;Does the agent converge faster (fewer episodes) to a optimal policy? -&amp;gt; maybe more steps;&amp;nbsp;&lt;/span&gt;&lt;/font&gt;&lt;/li&gt;&lt;li style=&quot;&quot;&gt;&lt;font style=&quot;font-size: 13px;&quot;&gt;&lt;span style=&quot;background-color: initial; font-weight: normal;&quot;&gt;Pretraining for fewer supervised training from the env -&amp;gt; basic beahvior policy&lt;/span&gt;&lt;/font&gt;&lt;/li&gt;&lt;li style=&quot;&quot;&gt;&lt;font style=&quot;font-weight: normal; font-size: 13px;&quot;&gt;Therefore is the warm up phase reinforcing the learning in the progress phase? Hence generalizability in the kb network?&lt;/font&gt;&lt;/li&gt;&lt;li style=&quot;&quot;&gt;&lt;font style=&quot;font-weight: normal; font-size: 13px;&quot;&gt;Is the &quot;model based&quot; approach in the warm up phase helping to mitigate the sample trajectory for faster learning?&lt;/font&gt;&lt;/li&gt;&lt;li style=&quot;&quot;&gt;&lt;font style=&quot;font-weight: normal; font-size: 13px;&quot;&gt;Is the warm up and progress phase commutative?&lt;/font&gt;&lt;/li&gt;&lt;li style=&quot;&quot;&gt;&lt;font style=&quot;font-weight: normal; font-size: 13px;&quot;&gt;Does it make a difference, when the agent is only trained in the warm-up phase, i.e. excluding the task dependent phase, this means no rewards from the env?&lt;/font&gt;&lt;/li&gt;&lt;/ul&gt;&lt;/h1&gt;&lt;p&gt;&lt;/p&gt;" style="text;html=1;strokeColor=none;fillColor=none;spacing=5;spacingTop=-20;whiteSpace=wrap;overflow=hidden;rounded=0;labelBackgroundColor=none;strokeWidth=1;fontSize=12;fontColor=#000000;" parent="1" vertex="1">
                    <mxGeometry x="827" y="50" width="350" height="290" as="geometry"/>
                </mxCell>
                <mxCell id="BvlqB2sUUSFM44WfJwpp-106" value="" style="rounded=0;whiteSpace=wrap;html=1;labelBackgroundColor=none;strokeWidth=1;" parent="1" vertex="1">
                    <mxGeometry x="245" y="290" width="168.95" height="130" as="geometry"/>
                </mxCell>
                <mxCell id="BvlqB2sUUSFM44WfJwpp-109" style="rounded=0;orthogonalLoop=1;jettySize=auto;html=1;exitX=1;exitY=0;exitDx=0;exitDy=0;fontSize=13;fontColor=#000000;startArrow=none;startFill=0;endArrow=none;endFill=0;elbow=vertical;dashed=1;entryX=1;entryY=1;entryDx=0;entryDy=0;" parent="1" source="BvlqB2sUUSFM44WfJwpp-90" target="BvlqB2sUUSFM44WfJwpp-106" edge="1">
                    <mxGeometry relative="1" as="geometry">
                        <mxPoint x="255" y="400" as="targetPoint"/>
                        <mxPoint x="291.04999999999995" y="535" as="sourcePoint"/>
                    </mxGeometry>
                </mxCell>
                <mxCell id="BvlqB2sUUSFM44WfJwpp-110" value="fw-model" style="rounded=1;whiteSpace=wrap;html=1;labelBackgroundColor=none;strokeWidth=1;fontSize=13;fontColor=#000000;" parent="1" vertex="1">
                    <mxGeometry x="265.99" y="310" width="70.53" height="60" as="geometry"/>
                </mxCell>
                <mxCell id="BvlqB2sUUSFM44WfJwpp-111" value="" style="endArrow=classic;html=1;rounded=0;fontSize=13;fontColor=#000000;elbow=vertical;entryX=0.25;entryY=1;entryDx=0;entryDy=0;exitX=0.239;exitY=0.073;exitDx=0;exitDy=0;exitPerimeter=0;" parent="1" source="BvlqB2sUUSFM44WfJwpp-8" target="BvlqB2sUUSFM44WfJwpp-110" edge="1">
                    <mxGeometry width="50" height="50" relative="1" as="geometry">
                        <mxPoint x="297" y="410" as="sourcePoint"/>
                        <mxPoint x="293" y="360" as="targetPoint"/>
                    </mxGeometry>
                </mxCell>
                <mxCell id="BvlqB2sUUSFM44WfJwpp-112" value="$$a_t$$" style="edgeLabel;html=1;align=center;verticalAlign=middle;resizable=0;points=[];fontSize=5;fontColor=#000000;" parent="BvlqB2sUUSFM44WfJwpp-111" connectable="0" vertex="1">
                    <mxGeometry x="-0.0498" y="1" relative="1" as="geometry">
                        <mxPoint as="offset"/>
                    </mxGeometry>
                </mxCell>
                <mxCell id="BvlqB2sUUSFM44WfJwpp-113" value="" style="endArrow=classic;html=1;rounded=0;fontSize=13;fontColor=#000000;elbow=vertical;entryX=0.685;entryY=0.974;entryDx=0;entryDy=0;entryPerimeter=0;exitX=0.271;exitY=0.073;exitDx=0;exitDy=0;exitPerimeter=0;" parent="1" source="BvlqB2sUUSFM44WfJwpp-8" target="BvlqB2sUUSFM44WfJwpp-110" edge="1">
                    <mxGeometry width="50" height="50" relative="1" as="geometry">
                        <mxPoint x="350" y="410" as="sourcePoint"/>
                        <mxPoint x="350.54999999999995" y="355" as="targetPoint"/>
                    </mxGeometry>
                </mxCell>
                <mxCell id="BvlqB2sUUSFM44WfJwpp-114" value="$$s_t$$" style="edgeLabel;html=1;align=center;verticalAlign=middle;resizable=0;points=[];fontSize=6;fontColor=#000000;" parent="BvlqB2sUUSFM44WfJwpp-113" connectable="0" vertex="1">
                    <mxGeometry x="-0.0498" y="1" relative="1" as="geometry">
                        <mxPoint as="offset"/>
                    </mxGeometry>
                </mxCell>
                <mxCell id="BvlqB2sUUSFM44WfJwpp-121" style="edgeStyle=none;rounded=0;orthogonalLoop=1;jettySize=auto;html=1;fontSize=12;fontColor=#000000;startArrow=none;startFill=0;endArrow=classic;endFill=1;elbow=vertical;" parent="1" source="BvlqB2sUUSFM44WfJwpp-115" edge="1">
                    <mxGeometry relative="1" as="geometry">
                        <mxPoint x="430" y="303" as="targetPoint"/>
                        <Array as="points"/>
                    </mxGeometry>
                </mxCell>
                <mxCell id="BvlqB2sUUSFM44WfJwpp-122" value="$$r^{i}_{t}$$" style="edgeLabel;html=1;align=center;verticalAlign=middle;resizable=0;points=[];fontSize=12;fontColor=#000000;" parent="BvlqB2sUUSFM44WfJwpp-121" connectable="0" vertex="1">
                    <mxGeometry x="-0.2251" y="1" relative="1" as="geometry">
                        <mxPoint as="offset"/>
                    </mxGeometry>
                </mxCell>
                <mxCell id="BvlqB2sUUSFM44WfJwpp-115" value="-" style="ellipse;whiteSpace=wrap;html=1;aspect=fixed;labelBackgroundColor=none;strokeWidth=1;fontSize=6;fontColor=#000000;" parent="1" vertex="1">
                    <mxGeometry x="370" y="295.53" width="14.47" height="14.47" as="geometry"/>
                </mxCell>
                <mxCell id="BvlqB2sUUSFM44WfJwpp-116" value="" style="endArrow=classic;html=1;rounded=0;fontSize=13;fontColor=#000000;elbow=vertical;entryX=0;entryY=1;entryDx=0;entryDy=0;exitX=0.5;exitY=0;exitDx=0;exitDy=0;" parent="1" source="BvlqB2sUUSFM44WfJwpp-110" target="BvlqB2sUUSFM44WfJwpp-115" edge="1">
                    <mxGeometry width="50" height="50" relative="1" as="geometry">
                        <mxPoint x="310" y="324.47" as="sourcePoint"/>
                        <mxPoint x="312.47" y="284.47" as="targetPoint"/>
                    </mxGeometry>
                </mxCell>
                <mxCell id="BvlqB2sUUSFM44WfJwpp-117" value="&lt;div style=&quot;text-align: left;&quot;&gt;$$s_{t+1}^{\wedge}$$&lt;/div&gt;" style="edgeLabel;html=1;align=center;verticalAlign=middle;resizable=0;points=[];fontSize=1;fontColor=#000000;" parent="BvlqB2sUUSFM44WfJwpp-116" connectable="0" vertex="1">
                    <mxGeometry x="-0.0498" y="1" relative="1" as="geometry">
                        <mxPoint as="offset"/>
                    </mxGeometry>
                </mxCell>
                <mxCell id="BvlqB2sUUSFM44WfJwpp-119" value="" style="endArrow=classic;html=1;rounded=0;fontSize=13;fontColor=#000000;elbow=vertical;entryX=0.5;entryY=1;entryDx=0;entryDy=0;" parent="1" target="BvlqB2sUUSFM44WfJwpp-115" edge="1">
                    <mxGeometry width="50" height="50" relative="1" as="geometry">
                        <mxPoint x="377" y="410" as="sourcePoint"/>
                        <mxPoint x="384.47305" y="319.20000000000005" as="targetPoint"/>
                    </mxGeometry>
                </mxCell>
                <mxCell id="BvlqB2sUUSFM44WfJwpp-120" value="$$s_{t+1}$$" style="edgeLabel;html=1;align=center;verticalAlign=middle;resizable=0;points=[];fontSize=6;fontColor=#000000;" parent="BvlqB2sUUSFM44WfJwpp-119" connectable="0" vertex="1">
                    <mxGeometry x="-0.0498" y="1" relative="1" as="geometry">
                        <mxPoint as="offset"/>
                    </mxGeometry>
                </mxCell>
                <mxCell id="BvlqB2sUUSFM44WfJwpp-125" value="&lt;h1&gt;Loss in P&lt;/h1&gt;&lt;p&gt;$$\underset{\Theta_{active}, \Theta_{F}}{min}[(-\lambda (T(x) \cdot E_{\pi(s_t| \Theta_{active})}[\sum_t r_t]) + (1-T(x)) \cdot L_F]$$ $$T(x) = 0 \space if \space x = task_{agnostic} \space else \space 1, x \in \{agnostic, blank\}$$&lt;/p&gt;" style="text;html=1;strokeColor=none;fillColor=none;spacing=5;spacingTop=-20;whiteSpace=wrap;overflow=hidden;rounded=0;labelBackgroundColor=none;strokeWidth=1;fontSize=12;fontColor=#000000;" parent="1" vertex="1">
                    <mxGeometry x="40" y="880" width="390" height="160" as="geometry"/>
                </mxCell>
                <mxCell id="BvlqB2sUUSFM44WfJwpp-126" value="&lt;h1&gt;Loss in C&lt;/h1&gt;&lt;p&gt;See Eq. 2 in P&amp;amp;C Paper. Still the same.&lt;/p&gt;" style="text;html=1;strokeColor=none;fillColor=none;spacing=5;spacingTop=-20;whiteSpace=wrap;overflow=hidden;rounded=0;labelBackgroundColor=none;strokeWidth=1;fontSize=12;fontColor=#000000;" parent="1" vertex="1">
                    <mxGeometry x="450" y="890" width="263.95" height="120" as="geometry"/>
                </mxCell>
                <mxCell id="BvlqB2sUUSFM44WfJwpp-128" value="" style="endArrow=classic;html=1;rounded=0;fontSize=12;fontColor=#000000;curved=1;elbow=vertical;exitX=1;exitY=0.25;exitDx=0;exitDy=0;entryX=0.25;entryY=0;entryDx=0;entryDy=0;dashed=1;fillColor=#e3c800;strokeColor=#4D9900;" parent="1" source="BvlqB2sUUSFM44WfJwpp-90" target="BvlqB2sUUSFM44WfJwpp-38" edge="1">
                    <mxGeometry width="50" height="50" relative="1" as="geometry">
                        <mxPoint x="740" y="540" as="sourcePoint"/>
                        <mxPoint x="710" y="570" as="targetPoint"/>
                        <Array as="points">
                            <mxPoint x="420" y="610"/>
                        </Array>
                    </mxGeometry>
                </mxCell>
                <mxCell id="BvlqB2sUUSFM44WfJwpp-129" value="" style="endArrow=classic;html=1;rounded=0;fontSize=12;fontColor=#000000;elbow=vertical;dashed=1;fillColor=#e3c800;strokeColor=#4D9900;" parent="1" edge="1">
                    <mxGeometry width="50" height="50" relative="1" as="geometry">
                        <mxPoint x="678.65" y="400" as="sourcePoint"/>
                        <mxPoint x="791.05" y="400" as="targetPoint"/>
                    </mxGeometry>
                </mxCell>
                <mxCell id="BvlqB2sUUSFM44WfJwpp-130" value="Backprop." style="edgeLabel;html=1;align=center;verticalAlign=middle;resizable=0;points=[];fontSize=12;fontColor=#000000;" parent="BvlqB2sUUSFM44WfJwpp-129" connectable="0" vertex="1">
                    <mxGeometry x="0.2523" y="2" relative="1" as="geometry">
                        <mxPoint x="-18" y="-8" as="offset"/>
                    </mxGeometry>
                </mxCell>
                <mxCell id="BvlqB2sUUSFM44WfJwpp-131" value="" style="endArrow=classic;html=1;rounded=0;fontSize=12;fontColor=#000000;curved=1;elbow=vertical;exitX=1;exitY=0.5;exitDx=0;exitDy=0;dashed=1;fillColor=#e3c800;strokeColor=#4D9900;edgeStyle=orthogonalEdgeStyle;" parent="1" source="BvlqB2sUUSFM44WfJwpp-25" edge="1">
                    <mxGeometry width="50" height="50" relative="1" as="geometry">
                        <mxPoint x="750" y="550" as="sourcePoint"/>
                        <mxPoint x="750" y="771" as="targetPoint"/>
                        <Array as="points">
                            <mxPoint x="790" y="540"/>
                            <mxPoint x="790" y="630"/>
                            <mxPoint x="750" y="630"/>
                            <mxPoint x="750" y="771"/>
                        </Array>
                    </mxGeometry>
                </mxCell>
                <mxCell id="BvlqB2sUUSFM44WfJwpp-133" value="&lt;h1&gt;&lt;span style=&quot;background-color: initial;&quot;&gt;Networks&lt;/span&gt;&lt;/h1&gt;&lt;h1 style=&quot;line-height: 60%;&quot;&gt;&lt;span style=&quot;font-size: 12px; font-weight: 400;&quot;&gt;Both networks, i.e. the active and kb have the A2C architecture. A3C don't seem to perform better than A2C.&lt;/span&gt;&lt;/h1&gt;" style="text;html=1;strokeColor=none;fillColor=none;spacing=5;spacingTop=-20;whiteSpace=wrap;overflow=hidden;rounded=0;labelBackgroundColor=none;strokeWidth=1;fontSize=12;fontColor=#000000;" parent="1" vertex="1">
                    <mxGeometry x="1090" y="375" width="190" height="175" as="geometry"/>
                </mxCell>
                <mxCell id="BvlqB2sUUSFM44WfJwpp-134" value="&lt;h1 style=&quot;line-height: 40%;&quot;&gt;&lt;span style=&quot;background-color: initial;&quot;&gt;&lt;font style=&quot;font-size: 18px;&quot;&gt;Env&lt;/font&gt;&lt;/span&gt;&lt;/h1&gt;&lt;h1 style=&quot;line-height: 40%;&quot;&gt;&lt;span style=&quot;font-weight: 400;&quot;&gt;&lt;font style=&quot;font-size: 12px;&quot;&gt;The agent is in the same env but with different tasks. We want a env where the task vary but the action space is still the same, as we discussed.&lt;/font&gt;&lt;/span&gt;&lt;/h1&gt;" style="text;html=1;strokeColor=none;fillColor=none;spacing=5;spacingTop=-20;whiteSpace=wrap;overflow=hidden;rounded=0;labelBackgroundColor=none;strokeWidth=1;fontSize=12;fontColor=#000000;" parent="1" vertex="1">
                    <mxGeometry x="881.05" y="375" width="190" height="120" as="geometry"/>
                </mxCell>
                <mxCell id="HDxYis1D0d0WcH6F2ckb-1" value="-&amp;gt; p and c in deterministic sequetial;&lt;br&gt;-&amp;gt; how to identify a task" style="text;html=1;strokeColor=none;fillColor=none;align=center;verticalAlign=middle;whiteSpace=wrap;rounded=0;" parent="1" vertex="1">
                    <mxGeometry x="1150" y="750" width="170" height="90" as="geometry"/>
                </mxCell>
                <mxCell id="HDxYis1D0d0WcH6F2ckb-2" value="-&amp;gt; vizdoom same action in differene env dist.&amp;nbsp;" style="text;html=1;strokeColor=none;fillColor=none;align=center;verticalAlign=middle;whiteSpace=wrap;rounded=0;" parent="1" vertex="1">
                    <mxGeometry x="1120" y="855" width="170" height="90" as="geometry"/>
                </mxCell>
                <mxCell id="gZfv-GnPvZriBF9S_skx-1" value="" style="rounded=0;opacity=50;fillColor=#f9f7ed;strokeColor=#36393d;labelBackgroundColor=none;align=right;labelPosition=left;verticalLabelPosition=top;verticalAlign=bottom;whiteSpace=wrap;html=1;" parent="1" vertex="1">
                    <mxGeometry x="170" y="1215" width="901.05" height="480" as="geometry"/>
                </mxCell>
                <mxCell id="gZfv-GnPvZriBF9S_skx-3" value="&lt;font color=&quot;#33001a&quot;&gt;Agnostic-Phase&lt;/font&gt;" style="rounded=0;whiteSpace=wrap;html=1;fillColor=#60a917;strokeColor=#2D7600;opacity=50;labelPosition=center;verticalLabelPosition=top;align=center;verticalAlign=bottom;fontColor=#ffffff;" parent="1" vertex="1">
                    <mxGeometry x="276.05" y="1355" width="190" height="330" as="geometry"/>
                </mxCell>
                <mxCell id="gZfv-GnPvZriBF9S_skx-4" value="C" style="rounded=0;whiteSpace=wrap;html=1;fillColor=#dae8fc;strokeColor=#6c8ebf;opacity=50;labelPosition=center;verticalLabelPosition=top;align=center;verticalAlign=bottom;" parent="1" vertex="1">
                    <mxGeometry x="466.05" y="1355" width="190" height="330" as="geometry"/>
                </mxCell>
                <mxCell id="gZfv-GnPvZriBF9S_skx-5" value="P" style="rounded=0;whiteSpace=wrap;html=1;fillColor=#fff2cc;strokeColor=#d6b656;opacity=50;labelPosition=center;verticalLabelPosition=top;align=center;verticalAlign=bottom;" parent="1" vertex="1">
                    <mxGeometry x="656.05" y="1355" width="190" height="330" as="geometry"/>
                </mxCell>
                <mxCell id="gZfv-GnPvZriBF9S_skx-6" value="Domain (i.e. Atari, mujuco)" style="text;html=1;strokeColor=none;fillColor=none;align=center;verticalAlign=middle;whiteSpace=wrap;rounded=0;labelBackgroundColor=none;opacity=50;" parent="1" vertex="1">
                    <mxGeometry x="180" y="1230" width="60" height="30" as="geometry"/>
                </mxCell>
                <mxCell id="gZfv-GnPvZriBF9S_skx-7" value="" style="rounded=0;whiteSpace=wrap;html=1;labelBackgroundColor=none;" parent="1" vertex="1">
                    <mxGeometry x="481.05" y="1445" width="120" height="210" as="geometry"/>
                </mxCell>
                <mxCell id="gZfv-GnPvZriBF9S_skx-8" value="" style="rounded=0;whiteSpace=wrap;html=1;labelBackgroundColor=none;" parent="1" vertex="1">
                    <mxGeometry x="671.05" y="1445" width="120" height="210" as="geometry"/>
                </mxCell>
                <mxCell id="gZfv-GnPvZriBF9S_skx-10" value="" style="rounded=0;whiteSpace=wrap;html=1;labelBackgroundColor=none;" parent="1" vertex="1">
                    <mxGeometry x="294.55" y="1445" width="120" height="210" as="geometry"/>
                </mxCell>
                <mxCell id="gZfv-GnPvZriBF9S_skx-11" value="&lt;font style=&quot;font-size: 8px;&quot;&gt;$$actor-critc^{active}$$&lt;/font&gt;" style="text;html=1;strokeColor=none;fillColor=none;align=center;verticalAlign=middle;whiteSpace=wrap;rounded=0;labelBackgroundColor=none;" parent="1" vertex="1">
                    <mxGeometry x="310" y="1440" width="60" height="30" as="geometry"/>
                </mxCell>
                <mxCell id="gZfv-GnPvZriBF9S_skx-12" style="edgeStyle=orthogonalEdgeStyle;curved=1;rounded=0;orthogonalLoop=1;jettySize=auto;html=1;entryX=0.5;entryY=0;entryDx=0;entryDy=0;fontSize=11;fontColor=#000000;startArrow=classic;startFill=1;endArrow=classic;endFill=1;elbow=vertical;" parent="1" source="gZfv-GnPvZriBF9S_skx-14" target="gZfv-GnPvZriBF9S_skx-8" edge="1">
                    <mxGeometry relative="1" as="geometry"/>
                </mxCell>
                <mxCell id="gZfv-GnPvZriBF9S_skx-13" value="&lt;span style=&quot;font-size: 1px;&quot;&gt;$$r_{t}^{e}, s_{t}$$&lt;/span&gt;" style="edgeLabel;html=1;align=center;verticalAlign=middle;resizable=0;points=[];fontSize=13;fontColor=#000000;" parent="gZfv-GnPvZriBF9S_skx-12" connectable="0" vertex="1">
                    <mxGeometry x="0.0656" y="-1" relative="1" as="geometry">
                        <mxPoint as="offset"/>
                    </mxGeometry>
                </mxCell>
                <mxCell id="gZfv-GnPvZriBF9S_skx-14" value="&lt;span style=&quot;font-size: 10px;&quot;&gt;$$task_{k+1}$$&lt;/span&gt;" style="rounded=0;whiteSpace=wrap;html=1;labelBackgroundColor=none;" parent="1" vertex="1">
                    <mxGeometry x="781.05" y="1365" width="60" height="30" as="geometry"/>
                </mxCell>
                <mxCell id="gZfv-GnPvZriBF9S_skx-22" value="" style="edgeStyle=orthogonalEdgeStyle;rounded=0;orthogonalLoop=1;jettySize=auto;html=1;" parent="1" source="gZfv-GnPvZriBF9S_skx-24" target="gZfv-GnPvZriBF9S_skx-27" edge="1">
                    <mxGeometry relative="1" as="geometry"/>
                </mxCell>
                <mxCell id="gZfv-GnPvZriBF9S_skx-23" style="edgeStyle=orthogonalEdgeStyle;curved=1;rounded=0;orthogonalLoop=1;jettySize=auto;html=1;entryX=0;entryY=0.5;entryDx=0;entryDy=0;fontSize=20;endArrow=classic;endFill=1;elbow=vertical;" parent="1" source="gZfv-GnPvZriBF9S_skx-24" target="gZfv-GnPvZriBF9S_skx-36" edge="1">
                    <mxGeometry relative="1" as="geometry"/>
                </mxCell>
                <mxCell id="gZfv-GnPvZriBF9S_skx-24" value="$$h^0$$" style="rounded=1;whiteSpace=wrap;html=1;labelBackgroundColor=none;fillColor=#dae8fc;strokeColor=#6c8ebf;" parent="1" vertex="1">
                    <mxGeometry x="322.05" y="1610" width="65" height="35" as="geometry"/>
                </mxCell>
                <mxCell id="gZfv-GnPvZriBF9S_skx-25" style="edgeStyle=orthogonalEdgeStyle;rounded=0;orthogonalLoop=1;jettySize=auto;html=1;" parent="1" source="gZfv-GnPvZriBF9S_skx-27" target="gZfv-GnPvZriBF9S_skx-30" edge="1">
                    <mxGeometry relative="1" as="geometry"/>
                </mxCell>
                <mxCell id="gZfv-GnPvZriBF9S_skx-26" style="edgeStyle=orthogonalEdgeStyle;curved=1;rounded=0;orthogonalLoop=1;jettySize=auto;html=1;entryX=0;entryY=0.5;entryDx=0;entryDy=0;fontSize=20;endArrow=classic;endFill=1;elbow=vertical;" parent="1" source="gZfv-GnPvZriBF9S_skx-27" target="gZfv-GnPvZriBF9S_skx-37" edge="1">
                    <mxGeometry relative="1" as="geometry"/>
                </mxCell>
                <mxCell id="gZfv-GnPvZriBF9S_skx-27" value="$$h^1$$" style="rounded=1;whiteSpace=wrap;html=1;labelBackgroundColor=none;fillColor=#dae8fc;strokeColor=#6c8ebf;" parent="1" vertex="1">
                    <mxGeometry x="322.05" y="1545" width="65" height="35" as="geometry"/>
                </mxCell>
                <mxCell id="gZfv-GnPvZriBF9S_skx-28" style="edgeStyle=orthogonalEdgeStyle;curved=1;rounded=0;orthogonalLoop=1;jettySize=auto;html=1;entryX=0.5;entryY=0;entryDx=0;entryDy=0;fontSize=20;fontColor=#000000;endArrow=classic;endFill=1;elbow=vertical;dashed=1;" parent="1" source="gZfv-GnPvZriBF9S_skx-30" target="gZfv-GnPvZriBF9S_skx-37" edge="1">
                    <mxGeometry relative="1" as="geometry">
                        <Array as="points">
                            <mxPoint x="448.05" y="1502"/>
                            <mxPoint x="448.05" y="1475"/>
                            <mxPoint x="541.05" y="1475"/>
                        </Array>
                    </mxGeometry>
                </mxCell>
                <mxCell id="gZfv-GnPvZriBF9S_skx-29" value="&lt;font style=&quot;font-size: 11px;&quot;&gt;KL&lt;/font&gt;" style="edgeLabel;html=1;align=center;verticalAlign=middle;resizable=0;points=[];fontSize=20;fontColor=#000000;" parent="gZfv-GnPvZriBF9S_skx-28" connectable="0" vertex="1">
                    <mxGeometry x="-0.2366" y="1" relative="1" as="geometry">
                        <mxPoint as="offset"/>
                    </mxGeometry>
                </mxCell>
                <mxCell id="gZfv-GnPvZriBF9S_skx-30" value="&lt;div style=&quot;text-align: left;&quot;&gt;&lt;span style=&quot;background-color: rgb(255, 255, 255); font-family: SFMono-Regular, Menlo, Monaco, Consolas, &amp;quot;Liberation Mono&amp;quot;, &amp;quot;Courier New&amp;quot;, monospace; font-size: 13.125px;&quot;&gt;$$\pi_{k}$$&lt;/span&gt;&lt;/div&gt;" style="rounded=1;whiteSpace=wrap;html=1;labelBackgroundColor=none;fillColor=#dae8fc;strokeColor=#6c8ebf;" parent="1" vertex="1">
                    <mxGeometry x="322.55" y="1485" width="65" height="35" as="geometry"/>
                </mxCell>
                <mxCell id="gZfv-GnPvZriBF9S_skx-31" value="" style="edgeStyle=orthogonalEdgeStyle;rounded=0;orthogonalLoop=1;jettySize=auto;html=1;" parent="1" source="gZfv-GnPvZriBF9S_skx-33" target="gZfv-GnPvZriBF9S_skx-36" edge="1">
                    <mxGeometry relative="1" as="geometry"/>
                </mxCell>
                <mxCell id="gZfv-GnPvZriBF9S_skx-32" style="edgeStyle=orthogonalEdgeStyle;curved=1;rounded=0;orthogonalLoop=1;jettySize=auto;html=1;entryX=0;entryY=0.5;entryDx=0;entryDy=0;fontSize=20;endArrow=classic;endFill=1;elbow=vertical;" parent="1" source="gZfv-GnPvZriBF9S_skx-33" target="gZfv-GnPvZriBF9S_skx-41" edge="1">
                    <mxGeometry relative="1" as="geometry"/>
                </mxCell>
                <mxCell id="gZfv-GnPvZriBF9S_skx-33" value="$$h'^0$$" style="rounded=1;whiteSpace=wrap;html=1;labelBackgroundColor=none;fillColor=#dae8fc;strokeColor=#6c8ebf;" parent="1" vertex="1">
                    <mxGeometry x="508.5499999999999" y="1610" width="65" height="35" as="geometry"/>
                </mxCell>
                <mxCell id="gZfv-GnPvZriBF9S_skx-34" style="edgeStyle=orthogonalEdgeStyle;rounded=0;orthogonalLoop=1;jettySize=auto;html=1;" parent="1" source="gZfv-GnPvZriBF9S_skx-36" target="gZfv-GnPvZriBF9S_skx-37" edge="1">
                    <mxGeometry relative="1" as="geometry"/>
                </mxCell>
                <mxCell id="gZfv-GnPvZriBF9S_skx-35" style="edgeStyle=orthogonalEdgeStyle;curved=1;rounded=0;orthogonalLoop=1;jettySize=auto;html=1;entryX=0;entryY=0.5;entryDx=0;entryDy=0;fontSize=20;endArrow=classic;endFill=1;elbow=vertical;" parent="1" source="gZfv-GnPvZriBF9S_skx-36" target="gZfv-GnPvZriBF9S_skx-42" edge="1">
                    <mxGeometry relative="1" as="geometry"/>
                </mxCell>
                <mxCell id="gZfv-GnPvZriBF9S_skx-36" value="$$h'^1$$" style="rounded=1;whiteSpace=wrap;html=1;labelBackgroundColor=none;fillColor=#dae8fc;strokeColor=#6c8ebf;" parent="1" vertex="1">
                    <mxGeometry x="508.5499999999999" y="1550" width="65" height="35" as="geometry"/>
                </mxCell>
                <mxCell id="gZfv-GnPvZriBF9S_skx-37" value="&lt;span style=&quot;font-family: SFMono-Regular, Menlo, Monaco, Consolas, &amp;quot;Liberation Mono&amp;quot;, &amp;quot;Courier New&amp;quot;, monospace; font-size: 13.125px; text-align: left; background-color: rgb(255, 255, 255);&quot;&gt;$$\pi_{k+1}^{kb}$$&lt;/span&gt;" style="rounded=1;whiteSpace=wrap;html=1;labelBackgroundColor=none;fillColor=#dae8fc;strokeColor=#6c8ebf;" parent="1" vertex="1">
                    <mxGeometry x="509.5499999999999" y="1485" width="65" height="35" as="geometry"/>
                </mxCell>
                <mxCell id="gZfv-GnPvZriBF9S_skx-38" value="" style="edgeStyle=orthogonalEdgeStyle;rounded=0;orthogonalLoop=1;jettySize=auto;html=1;" parent="1" source="gZfv-GnPvZriBF9S_skx-39" target="gZfv-GnPvZriBF9S_skx-41" edge="1">
                    <mxGeometry relative="1" as="geometry"/>
                </mxCell>
                <mxCell id="gZfv-GnPvZriBF9S_skx-39" value="$$h^0$$" style="rounded=1;whiteSpace=wrap;html=1;labelBackgroundColor=none;fillColor=#dae8fc;strokeColor=#6c8ebf;" parent="1" vertex="1">
                    <mxGeometry x="698.55" y="1610" width="65" height="35" as="geometry"/>
                </mxCell>
                <mxCell id="gZfv-GnPvZriBF9S_skx-40" style="edgeStyle=orthogonalEdgeStyle;rounded=0;orthogonalLoop=1;jettySize=auto;html=1;" parent="1" source="gZfv-GnPvZriBF9S_skx-41" target="gZfv-GnPvZriBF9S_skx-42" edge="1">
                    <mxGeometry relative="1" as="geometry"/>
                </mxCell>
                <mxCell id="gZfv-GnPvZriBF9S_skx-41" value="$$h^1$$" style="rounded=1;whiteSpace=wrap;html=1;labelBackgroundColor=none;fillColor=#dae8fc;strokeColor=#6c8ebf;" parent="1" vertex="1">
                    <mxGeometry x="698.55" y="1545" width="65" height="35" as="geometry"/>
                </mxCell>
                <mxCell id="gZfv-GnPvZriBF9S_skx-42" value="&lt;span style=&quot;font-family: SFMono-Regular, Menlo, Monaco, Consolas, &amp;quot;Liberation Mono&amp;quot;, &amp;quot;Courier New&amp;quot;, monospace; font-size: 13.125px; text-align: left; background-color: rgb(255, 255, 255);&quot;&gt;$$\pi_{k+1}$$&lt;/span&gt;" style="rounded=1;whiteSpace=wrap;html=1;labelBackgroundColor=none;fillColor=#dae8fc;strokeColor=#6c8ebf;" parent="1" vertex="1">
                    <mxGeometry x="698.55" y="1485" width="65" height="35" as="geometry"/>
                </mxCell>
                <mxCell id="gZfv-GnPvZriBF9S_skx-47" value="C" style="rounded=0;whiteSpace=wrap;html=1;fillColor=#dae8fc;strokeColor=#6c8ebf;opacity=50;labelPosition=center;verticalLabelPosition=top;align=center;verticalAlign=bottom;" parent="1" vertex="1">
                    <mxGeometry x="846.05" y="1355" width="190" height="330" as="geometry"/>
                </mxCell>
                <mxCell id="gZfv-GnPvZriBF9S_skx-48" value="" style="rounded=0;whiteSpace=wrap;html=1;labelBackgroundColor=none;" parent="1" vertex="1">
                    <mxGeometry x="861.05" y="1445" width="120" height="210" as="geometry"/>
                </mxCell>
                <mxCell id="gZfv-GnPvZriBF9S_skx-49" value="" style="edgeStyle=orthogonalEdgeStyle;rounded=0;orthogonalLoop=1;jettySize=auto;html=1;" parent="1" source="gZfv-GnPvZriBF9S_skx-50" target="gZfv-GnPvZriBF9S_skx-52" edge="1">
                    <mxGeometry relative="1" as="geometry"/>
                </mxCell>
                <mxCell id="gZfv-GnPvZriBF9S_skx-50" value="$$h^0$$" style="rounded=1;whiteSpace=wrap;html=1;labelBackgroundColor=none;fillColor=#dae8fc;strokeColor=#6c8ebf;" parent="1" vertex="1">
                    <mxGeometry x="891.05" y="1610" width="65" height="35" as="geometry"/>
                </mxCell>
                <mxCell id="gZfv-GnPvZriBF9S_skx-51" style="edgeStyle=orthogonalEdgeStyle;rounded=0;orthogonalLoop=1;jettySize=auto;html=1;" parent="1" source="gZfv-GnPvZriBF9S_skx-52" target="gZfv-GnPvZriBF9S_skx-53" edge="1">
                    <mxGeometry relative="1" as="geometry"/>
                </mxCell>
                <mxCell id="gZfv-GnPvZriBF9S_skx-52" value="$$h^1$$" style="rounded=1;whiteSpace=wrap;html=1;labelBackgroundColor=none;fillColor=#dae8fc;strokeColor=#6c8ebf;" parent="1" vertex="1">
                    <mxGeometry x="891.05" y="1550" width="65" height="35" as="geometry"/>
                </mxCell>
                <mxCell id="gZfv-GnPvZriBF9S_skx-53" value="&lt;span style=&quot;font-family: SFMono-Regular, Menlo, Monaco, Consolas, &amp;quot;Liberation Mono&amp;quot;, &amp;quot;Courier New&amp;quot;, monospace; font-size: 13.125px; text-align: left; background-color: rgb(255, 255, 255);&quot;&gt;$$\pi_{k+2}^{kb}$$&lt;/span&gt;" style="rounded=1;whiteSpace=wrap;html=1;labelBackgroundColor=none;fillColor=#dae8fc;strokeColor=#6c8ebf;" parent="1" vertex="1">
                    <mxGeometry x="891.05" y="1485" width="65" height="35" as="geometry"/>
                </mxCell>
                <mxCell id="gZfv-GnPvZriBF9S_skx-54" value="" style="endArrow=classic;html=1;rounded=0;dashed=1;edgeStyle=orthogonalEdgeStyle;elbow=vertical;curved=1;entryX=0.5;entryY=0;entryDx=0;entryDy=0;fillColor=#dae8fc;strokeColor=#6c8ebf;" parent="1" target="gZfv-GnPvZriBF9S_skx-48" edge="1">
                    <mxGeometry width="50" height="50" relative="1" as="geometry">
                        <mxPoint x="541.05" y="1445" as="sourcePoint"/>
                        <mxPoint x="891.05" y="1435" as="targetPoint"/>
                        <Array as="points">
                            <mxPoint x="541.05" y="1315"/>
                            <mxPoint x="921.05" y="1315"/>
                        </Array>
                    </mxGeometry>
                </mxCell>
                <mxCell id="gZfv-GnPvZriBF9S_skx-55" value="EWC" style="edgeLabel;html=1;align=center;verticalAlign=middle;resizable=0;points=[];" parent="gZfv-GnPvZriBF9S_skx-54" connectable="0" vertex="1">
                    <mxGeometry x="-0.0937" y="-4" relative="1" as="geometry">
                        <mxPoint as="offset"/>
                    </mxGeometry>
                </mxCell>
                <mxCell id="gZfv-GnPvZriBF9S_skx-56" value="" style="endArrow=none;html=1;rounded=0;dashed=1;edgeStyle=orthogonalEdgeStyle;elbow=vertical;curved=1;endFill=0;entryX=1;entryY=0.469;entryDx=0;entryDy=0;entryPerimeter=0;fillColor=#dae8fc;strokeColor=#6c8ebf;" parent="1" target="gZfv-GnPvZriBF9S_skx-1" edge="1">
                    <mxGeometry width="50" height="50" relative="1" as="geometry">
                        <mxPoint x="921.05" y="1445" as="sourcePoint"/>
                        <mxPoint x="1151.05" y="1445" as="targetPoint"/>
                        <Array as="points">
                            <mxPoint x="921.05" y="1335"/>
                            <mxPoint x="1071.05" y="1335"/>
                        </Array>
                    </mxGeometry>
                </mxCell>
                <mxCell id="gZfv-GnPvZriBF9S_skx-57" value="EWC" style="edgeLabel;html=1;align=center;verticalAlign=middle;resizable=0;points=[];" parent="gZfv-GnPvZriBF9S_skx-56" connectable="0" vertex="1">
                    <mxGeometry x="-0.0937" y="-4" relative="1" as="geometry">
                        <mxPoint as="offset"/>
                    </mxGeometry>
                </mxCell>
                <mxCell id="gZfv-GnPvZriBF9S_skx-58" style="edgeStyle=orthogonalEdgeStyle;curved=1;rounded=0;orthogonalLoop=1;jettySize=auto;html=1;entryX=0;entryY=0.5;entryDx=0;entryDy=0;fontSize=20;endArrow=classic;endFill=1;elbow=vertical;" parent="1" source="gZfv-GnPvZriBF9S_skx-41" target="gZfv-GnPvZriBF9S_skx-53" edge="1">
                    <mxGeometry relative="1" as="geometry"/>
                </mxCell>
                <mxCell id="gZfv-GnPvZriBF9S_skx-59" style="edgeStyle=orthogonalEdgeStyle;curved=1;rounded=0;orthogonalLoop=1;jettySize=auto;html=1;entryX=0;entryY=0.5;entryDx=0;entryDy=0;fontSize=20;endArrow=classic;endFill=1;elbow=vertical;" parent="1" source="gZfv-GnPvZriBF9S_skx-39" target="gZfv-GnPvZriBF9S_skx-52" edge="1">
                    <mxGeometry relative="1" as="geometry"/>
                </mxCell>
                <mxCell id="gZfv-GnPvZriBF9S_skx-60" style="edgeStyle=orthogonalEdgeStyle;curved=1;rounded=0;orthogonalLoop=1;jettySize=auto;html=1;entryX=0.5;entryY=0;entryDx=0;entryDy=0;dashed=1;fontSize=20;fontColor=#000000;endArrow=classic;endFill=1;elbow=vertical;" parent="1" source="gZfv-GnPvZriBF9S_skx-42" target="gZfv-GnPvZriBF9S_skx-53" edge="1">
                    <mxGeometry relative="1" as="geometry">
                        <Array as="points">
                            <mxPoint x="827.05" y="1502"/>
                            <mxPoint x="827.05" y="1475"/>
                            <mxPoint x="924.05" y="1475"/>
                        </Array>
                    </mxGeometry>
                </mxCell>
                <mxCell id="gZfv-GnPvZriBF9S_skx-61" value="KL" style="edgeLabel;html=1;align=center;verticalAlign=middle;resizable=0;points=[];fontSize=11;fontColor=#000000;" parent="gZfv-GnPvZriBF9S_skx-60" connectable="0" vertex="1">
                    <mxGeometry x="-0.2717" y="5" relative="1" as="geometry">
                        <mxPoint as="offset"/>
                    </mxGeometry>
                </mxCell>
                <mxCell id="gZfv-GnPvZriBF9S_skx-64" value="&lt;font style=&quot;font-size: 8px;&quot;&gt;$$actor-critc^{active}$$&lt;/font&gt;" style="text;html=1;strokeColor=none;fillColor=none;align=center;verticalAlign=middle;whiteSpace=wrap;rounded=0;labelBackgroundColor=none;" parent="1" vertex="1">
                    <mxGeometry x="690" y="1440" width="60" height="30" as="geometry"/>
                </mxCell>
                <mxCell id="gZfv-GnPvZriBF9S_skx-66" value="&lt;font style=&quot;font-size: 8px;&quot;&gt;$$actor-critc^{kb}$$&lt;/font&gt;" style="text;html=1;strokeColor=none;fillColor=none;align=center;verticalAlign=middle;whiteSpace=wrap;rounded=0;labelBackgroundColor=none;" parent="1" vertex="1">
                    <mxGeometry x="491.05" y="1440" width="60" height="30" as="geometry"/>
                </mxCell>
                <mxCell id="gZfv-GnPvZriBF9S_skx-67" value="&lt;font style=&quot;font-size: 8px;&quot;&gt;$$actor-critc^{kb}$$&lt;/font&gt;" style="text;html=1;strokeColor=none;fillColor=none;align=center;verticalAlign=middle;whiteSpace=wrap;rounded=0;labelBackgroundColor=none;" parent="1" vertex="1">
                    <mxGeometry x="871.05" y="1440" width="60" height="30" as="geometry"/>
                </mxCell>
                <mxCell id="gZfv-GnPvZriBF9S_skx-68" style="edgeStyle=orthogonalEdgeStyle;curved=1;rounded=0;orthogonalLoop=1;jettySize=auto;html=1;entryX=0.075;entryY=0.001;entryDx=0;entryDy=0;fontSize=8;fontColor=#000000;startArrow=classic;startFill=1;endArrow=classic;endFill=1;elbow=vertical;entryPerimeter=0;" parent="1" source="gZfv-GnPvZriBF9S_skx-71" target="gZfv-GnPvZriBF9S_skx-10" edge="1">
                    <mxGeometry relative="1" as="geometry"/>
                </mxCell>
                <mxCell id="gZfv-GnPvZriBF9S_skx-69" value="$$r^{i}_{t}, s_t$$" style="edgeLabel;html=1;align=center;verticalAlign=middle;resizable=0;points=[];fontSize=1;fontColor=#000000;" parent="gZfv-GnPvZriBF9S_skx-68" connectable="0" vertex="1">
                    <mxGeometry x="-0.1471" y="-1" relative="1" as="geometry">
                        <mxPoint as="offset"/>
                    </mxGeometry>
                </mxCell>
                <mxCell id="gZfv-GnPvZriBF9S_skx-70" style="rounded=0;orthogonalLoop=1;jettySize=auto;html=1;exitX=0;exitY=0;exitDx=0;exitDy=0;fontSize=13;fontColor=#000000;startArrow=none;startFill=0;endArrow=none;endFill=0;elbow=vertical;dashed=1;entryX=0;entryY=1;entryDx=0;entryDy=0;" parent="1" source="gZfv-GnPvZriBF9S_skx-71" target="gZfv-GnPvZriBF9S_skx-72" edge="1">
                    <mxGeometry relative="1" as="geometry">
                        <mxPoint x="240" y="1155" as="targetPoint"/>
                    </mxGeometry>
                </mxCell>
                <mxCell id="gZfv-GnPvZriBF9S_skx-71" value="&lt;font style=&quot;font-size: 8px;&quot;&gt;$$ICM_{task^{agnostic}_{k}}$$&lt;/font&gt;" style="rounded=0;whiteSpace=wrap;html=1;labelBackgroundColor=none;strokeWidth=1;" parent="1" vertex="1">
                    <mxGeometry x="281.05" y="1365" width="80" height="30" as="geometry"/>
                </mxCell>
                <mxCell id="gZfv-GnPvZriBF9S_skx-72" value="" style="rounded=0;whiteSpace=wrap;html=1;labelBackgroundColor=none;strokeWidth=1;" parent="1" vertex="1">
                    <mxGeometry x="265.99" y="1130" width="168.95" height="130" as="geometry"/>
                </mxCell>
                <mxCell id="gZfv-GnPvZriBF9S_skx-73" style="rounded=0;orthogonalLoop=1;jettySize=auto;html=1;exitX=1;exitY=0;exitDx=0;exitDy=0;fontSize=13;fontColor=#000000;startArrow=none;startFill=0;endArrow=none;endFill=0;elbow=vertical;dashed=1;entryX=1;entryY=1;entryDx=0;entryDy=0;" parent="1" source="gZfv-GnPvZriBF9S_skx-71" target="gZfv-GnPvZriBF9S_skx-72" edge="1">
                    <mxGeometry relative="1" as="geometry">
                        <mxPoint x="255" y="1240" as="targetPoint"/>
                        <mxPoint x="291.04999999999995" y="1375" as="sourcePoint"/>
                    </mxGeometry>
                </mxCell>
                <mxCell id="gZfv-GnPvZriBF9S_skx-74" value="fw-model" style="rounded=1;whiteSpace=wrap;html=1;labelBackgroundColor=none;strokeWidth=1;fontSize=13;fontColor=#000000;" parent="1" vertex="1">
                    <mxGeometry x="281.05" y="1150" width="70.53" height="60" as="geometry"/>
                </mxCell>
                <mxCell id="gZfv-GnPvZriBF9S_skx-75" value="" style="endArrow=classic;html=1;rounded=0;fontSize=13;fontColor=#000000;elbow=vertical;entryX=0.25;entryY=1;entryDx=0;entryDy=0;exitX=0.25;exitY=1;exitDx=0;exitDy=0;" parent="1" source="gZfv-GnPvZriBF9S_skx-72" target="gZfv-GnPvZriBF9S_skx-74" edge="1">
                    <mxGeometry width="50" height="50" relative="1" as="geometry">
                        <mxPoint x="297" y="1250" as="sourcePoint"/>
                        <mxPoint x="293" y="1200" as="targetPoint"/>
                    </mxGeometry>
                </mxCell>
                <mxCell id="gZfv-GnPvZriBF9S_skx-76" value="$$a_t$$" style="edgeLabel;html=1;align=center;verticalAlign=middle;resizable=0;points=[];fontSize=5;fontColor=#000000;" parent="gZfv-GnPvZriBF9S_skx-75" connectable="0" vertex="1">
                    <mxGeometry x="-0.0498" y="1" relative="1" as="geometry">
                        <mxPoint as="offset"/>
                    </mxGeometry>
                </mxCell>
                <mxCell id="gZfv-GnPvZriBF9S_skx-77" value="" style="endArrow=classic;html=1;rounded=0;fontSize=13;fontColor=#000000;elbow=vertical;entryX=0.685;entryY=0.974;entryDx=0;entryDy=0;entryPerimeter=0;exitX=0.5;exitY=1;exitDx=0;exitDy=0;" parent="1" source="gZfv-GnPvZriBF9S_skx-72" target="gZfv-GnPvZriBF9S_skx-74" edge="1">
                    <mxGeometry width="50" height="50" relative="1" as="geometry">
                        <mxPoint x="350" y="1250" as="sourcePoint"/>
                        <mxPoint x="350.54999999999995" y="1195" as="targetPoint"/>
                    </mxGeometry>
                </mxCell>
                <mxCell id="gZfv-GnPvZriBF9S_skx-78" value="$$s_t$$" style="edgeLabel;html=1;align=center;verticalAlign=middle;resizable=0;points=[];fontSize=6;fontColor=#000000;" parent="gZfv-GnPvZriBF9S_skx-77" connectable="0" vertex="1">
                    <mxGeometry x="-0.0498" y="1" relative="1" as="geometry">
                        <mxPoint as="offset"/>
                    </mxGeometry>
                </mxCell>
                <mxCell id="gZfv-GnPvZriBF9S_skx-79" style="edgeStyle=none;rounded=0;orthogonalLoop=1;jettySize=auto;html=1;fontSize=12;fontColor=#000000;startArrow=none;startFill=0;endArrow=classic;endFill=1;elbow=vertical;" parent="1" source="gZfv-GnPvZriBF9S_skx-81" edge="1">
                    <mxGeometry relative="1" as="geometry">
                        <mxPoint x="430" y="1143" as="targetPoint"/>
                        <Array as="points"/>
                    </mxGeometry>
                </mxCell>
                <mxCell id="gZfv-GnPvZriBF9S_skx-80" value="$$r^{i}_{t}$$" style="edgeLabel;html=1;align=center;verticalAlign=middle;resizable=0;points=[];fontSize=12;fontColor=#000000;" parent="gZfv-GnPvZriBF9S_skx-79" connectable="0" vertex="1">
                    <mxGeometry x="-0.2251" y="1" relative="1" as="geometry">
                        <mxPoint as="offset"/>
                    </mxGeometry>
                </mxCell>
                <mxCell id="gZfv-GnPvZriBF9S_skx-81" value="-" style="ellipse;whiteSpace=wrap;html=1;aspect=fixed;labelBackgroundColor=none;strokeWidth=1;fontSize=6;fontColor=#000000;" parent="1" vertex="1">
                    <mxGeometry x="370" y="1135.53" width="14.47" height="14.47" as="geometry"/>
                </mxCell>
                <mxCell id="gZfv-GnPvZriBF9S_skx-82" value="" style="endArrow=classic;html=1;rounded=0;fontSize=13;fontColor=#000000;elbow=vertical;entryX=0;entryY=1;entryDx=0;entryDy=0;exitX=0.5;exitY=0;exitDx=0;exitDy=0;" parent="1" source="gZfv-GnPvZriBF9S_skx-74" target="gZfv-GnPvZriBF9S_skx-81" edge="1">
                    <mxGeometry width="50" height="50" relative="1" as="geometry">
                        <mxPoint x="310" y="1164.47" as="sourcePoint"/>
                        <mxPoint x="312.47" y="1124.47" as="targetPoint"/>
                    </mxGeometry>
                </mxCell>
                <mxCell id="gZfv-GnPvZriBF9S_skx-83" value="&lt;div style=&quot;text-align: left;&quot;&gt;$$s_{t+1}^{\wedge}$$&lt;/div&gt;" style="edgeLabel;html=1;align=center;verticalAlign=middle;resizable=0;points=[];fontSize=1;fontColor=#000000;" parent="gZfv-GnPvZriBF9S_skx-82" connectable="0" vertex="1">
                    <mxGeometry x="-0.0498" y="1" relative="1" as="geometry">
                        <mxPoint as="offset"/>
                    </mxGeometry>
                </mxCell>
                <mxCell id="gZfv-GnPvZriBF9S_skx-84" value="" style="endArrow=classic;html=1;rounded=0;fontSize=13;fontColor=#000000;elbow=vertical;entryX=0.5;entryY=1;entryDx=0;entryDy=0;" parent="1" target="gZfv-GnPvZriBF9S_skx-81" edge="1">
                    <mxGeometry width="50" height="50" relative="1" as="geometry">
                        <mxPoint x="377" y="1250" as="sourcePoint"/>
                        <mxPoint x="384.47305" y="1159.2" as="targetPoint"/>
                    </mxGeometry>
                </mxCell>
                <mxCell id="gZfv-GnPvZriBF9S_skx-85" value="$$s_{t+1}$$" style="edgeLabel;html=1;align=center;verticalAlign=middle;resizable=0;points=[];fontSize=6;fontColor=#000000;" parent="gZfv-GnPvZriBF9S_skx-84" connectable="0" vertex="1">
                    <mxGeometry x="-0.0498" y="1" relative="1" as="geometry">
                        <mxPoint as="offset"/>
                    </mxGeometry>
                </mxCell>
                <mxCell id="gZfv-GnPvZriBF9S_skx-86" value="" style="endArrow=classic;html=1;rounded=0;fontSize=12;fontColor=#000000;curved=1;elbow=vertical;exitX=1;exitY=0.25;exitDx=0;exitDy=0;entryX=0.25;entryY=0;entryDx=0;entryDy=0;dashed=1;fillColor=#e3c800;strokeColor=#4D9900;" parent="1" source="gZfv-GnPvZriBF9S_skx-71" target="gZfv-GnPvZriBF9S_skx-24" edge="1">
                    <mxGeometry width="50" height="50" relative="1" as="geometry">
                        <mxPoint x="740" y="1380" as="sourcePoint"/>
                        <mxPoint x="710" y="1410" as="targetPoint"/>
                        <Array as="points">
                            <mxPoint x="420" y="1450"/>
                        </Array>
                    </mxGeometry>
                </mxCell>
                <mxCell id="gZfv-GnPvZriBF9S_skx-87" value="" style="endArrow=classic;html=1;rounded=0;fontSize=12;fontColor=#000000;elbow=vertical;dashed=1;fillColor=#e3c800;strokeColor=#4D9900;" parent="1" edge="1">
                    <mxGeometry width="50" height="50" relative="1" as="geometry">
                        <mxPoint x="678.65" y="1240" as="sourcePoint"/>
                        <mxPoint x="791.05" y="1240" as="targetPoint"/>
                    </mxGeometry>
                </mxCell>
                <mxCell id="gZfv-GnPvZriBF9S_skx-88" value="Backprop." style="edgeLabel;html=1;align=center;verticalAlign=middle;resizable=0;points=[];fontSize=12;fontColor=#000000;" parent="gZfv-GnPvZriBF9S_skx-87" connectable="0" vertex="1">
                    <mxGeometry x="0.2523" y="2" relative="1" as="geometry">
                        <mxPoint x="-18" y="-8" as="offset"/>
                    </mxGeometry>
                </mxCell>
                <mxCell id="gZfv-GnPvZriBF9S_skx-89" value="" style="endArrow=classic;html=1;rounded=0;fontSize=12;fontColor=#000000;curved=1;elbow=vertical;exitX=1;exitY=0.5;exitDx=0;exitDy=0;dashed=1;fillColor=#e3c800;strokeColor=#4D9900;edgeStyle=orthogonalEdgeStyle;" parent="1" source="gZfv-GnPvZriBF9S_skx-14" edge="1">
                    <mxGeometry width="50" height="50" relative="1" as="geometry">
                        <mxPoint x="750" y="1390" as="sourcePoint"/>
                        <mxPoint x="750" y="1611" as="targetPoint"/>
                        <Array as="points">
                            <mxPoint x="790" y="1380"/>
                            <mxPoint x="790" y="1470"/>
                            <mxPoint x="750" y="1470"/>
                            <mxPoint x="750" y="1611"/>
                        </Array>
                    </mxGeometry>
                </mxCell>
                <mxCell id="gZfv-GnPvZriBF9S_skx-90" value="&lt;h1 style=&quot;line-height: 40%;&quot;&gt;&lt;span style=&quot;background-color: initial;&quot;&gt;&lt;font style=&quot;font-size: 18px;&quot;&gt;Env&lt;/font&gt;&lt;/span&gt;&lt;/h1&gt;&lt;h1 style=&quot;line-height: 40%;&quot;&gt;&lt;span style=&quot;font-weight: 400;&quot;&gt;&lt;font style=&quot;font-size: 12px;&quot;&gt;The agent is in the same env but with different tasks. We want a env where the task vary but the action space is still the same, as we discussed.&lt;/font&gt;&lt;/span&gt;&lt;/h1&gt;" style="text;html=1;strokeColor=none;fillColor=none;spacing=5;spacingTop=-20;whiteSpace=wrap;overflow=hidden;rounded=0;labelBackgroundColor=none;strokeWidth=1;fontSize=12;fontColor=#000000;" parent="1" vertex="1">
                    <mxGeometry x="881.05" y="1215" width="190" height="120" as="geometry"/>
                </mxCell>
                <mxCell id="gZfv-GnPvZriBF9S_skx-92" value="" style="shape=image;verticalLabelPosition=bottom;labelBackgroundColor=default;verticalAlign=top;aspect=fixed;imageAspect=0;image=data:image/png,iVBORw0KGgoAAAANSUhEUgAAAoAAAAHgCAYAAAA10dzkAAAAAXNSR0IArs4c6QAAAERlWElmTU0AKgAAAAgAAYdpAAQAAAABAAAAGgAAAAAAA6ABAAMAAAABAAEAAKACAAQAAAABAAACgKADAAQAAAABAAAB4AAAAAAfNMscAABAAElEQVR4AeydB5xU1fXHz+5s77uw9CogggiCigoaNWIBuyYaYyKiokbsmn8sAWPFaDTW2HsvUZNYUKPYUVFiBwSlidStbN+dmf/93Zn7nJ2d3Z3dnZn3ZuZ3/Qzz5r377j33e986Z86559wUryrCQgIkQAIkQAIkQAIkkDQEUpNmpBwoCZAACZAACZAACZCAJkAFkA8CCZAACZAACZAACSQZASqASTbhHC4JkAAJkAAJkAAJUAHkM0ACJEACJEACJEACSUaACmCSTTiHSwIkQAIkQAIkQAJUAPkMkAAJkAAJkAAJkECSEaACmGQTzuGSAAmQAAmQAAmQABVAPgMkQAIkQAIkQAIkkGQEqAAm2YRzuCRAAiRAAiRAAiRABZDPAAmQAAmQAAmQAAkkGQEqgEk24RwuCZAACZAACZAACVAB5DNAAiRAAiRAAiRAAklGgApgkk04h0sCJEACJEACJEACVAD5DJAACZAACZAACZBAkhGgAphkE87hkgAJkAAJkAAJkAAVQD4DJEACJEACJEACJJBkBKgAJtmEc7gkQAIkQAIkQAIkQAWQzwAJkAAJkAAJkAAJJBkBKoBJNuEcLgmQAAmQAAmQAAlQAeQzQAIkQAIkQAIkQAJJRoAKYJJNOIdLAiRAAiRAAiRAAlQA+QyQAAmQAAmQAAmQQJIRoAKYZBPO4ZIACZAACZAACZAAFUA+AyRAAiRAAiRAAiSQZASoACbZhHO4JEACJEACJEACJEAFkM8ACZAACZAACZAACSQZASqASTbhHC4JkAAJkAAJkAAJUAHkM0ACJEACJEACJEACSUaACmCSTTiHSwIkQAIkQAIkQAJUAPkMkAAJkAAJkAAJkECSEaACmGQTzuGSAAmQAAmQAAmQABVAPgMkQAIkQAIkQAIkkGQEqAAm2YRzuCRAAiRAAiRAAiRABZDPAAmQAAmQAAmQAAkkGQEqgEk24RxuYhNISUmRs846K7EH6R/d6tWrBeN96KGHwhov6v7lL38Jqy4rJQ+Bt99+Wz9Hzz33XPIMmiMlAUWACiAfg6Ql8NVXX8mvfvUrGTp0qGRlZcnAgQPlgAMOkNtuu83RTD788EOtyFRWVkZMzn333Vd/CUJJ6ujldAXqlVdecZySB2aBTFNTU6V///5y6KGHykcffdTtObz22mvlxRdf7Pb9Tr3RKPaBzNo7Rl0WEiCB7hFI695tvIsE4psAlKj99ttPhgwZIrNnz5Z+/frJunXr9BfyLbfcImeffbZjBwjZr7jiCjnppJOkqKgoInJedtllcuqpp1ptLV68WG699Va59NJLZcyYMdb58ePHW8d2H0Bxr6+vl/T0dEsUKIB33HFHSCUQddPS7Ptf3p133il5eXni8Xj0s3bvvffKL37xC/nkk09k5513tsYQ7gEUQPyAOfLII8O9JS7qlZaWyqOPPtpK1htvvFF+/PFH+fvf/97qPOqykAAJdI+Aff837J68vIsEIkLgmmuukcLCQoGiE6xEbd68OSJ9xFMjsHwGFlhEoQDiPKyD7ZXa2lrJzc1t73JUz8MqBDnDLV2pG26bXakHZa13797WLVDcxo0bJ88++2y3FECroQQ7wPP0u9/9rtWonnrqKamoqGhzvlUlfiABEugSAbqAu4SLlROFwPfffy877rhjG+UP4+vTp0+rYULRwLo6fFGPHTtWsrOzZc899xS4kFHuvvtuGTlypFZGoCyFckvh3l122UXfCyUAX3Dr169v1Q8+vPXWW7L33ntrpQqK6RFHHCFLly616sGd+Mc//lF/Hj58uOVaDO4TrkEoF5mZmXqcCxYssNro7oFxZX777bfy29/+VoqLi2WvvfbSzX355ZfaIrnddttpDrConnzyyVJWVtaqO9PGypUrLQsmFPFZs2ZJXV1dq7pvvPGGbh8cYDkbPXq0tkiaShgz5sasAYRFFNY/lECXoamPc+g/sPzvf/+T6dOnS0FBge5j//33b+OWRfu494MPPpALLrhAYHWCknLUUUfJli1bApvr0jEYoQRbJRsbG+Xyyy/XzxTmb/DgwfJ///d/gvOmQB4o3w8//LA1Vowf84Br//73v01V+eyzz/S5SZMmWedwgHHvvvvurc69+uqr1vOXn58vhxxyiHzzzTet6uDDsmXLtPWxpKREz/euu+7aqk/UiRY3tI3yt7/9TaZMmSK9evXSf1f4+wq1jq+z58jXWut/wRouejybsLijbNu2Tc477zwZNmyY/rvC/yfwA2nJkiWtb+YnEogTArQAxslEUczIEoD7cNGiRfL1119rRamz1t977z39BTdnzhxddf78+foLAl/M//jHP+TMM8/UForrr79eKz5Q5EzBFyEUnN12201w36ZNmwRuZigUUECMBfK///2v/lKGEgVFBS5LrEecOnWq/pLBF8/RRx8t3333nTz55JPaHWYsSoGusPfff1+ef/55LRO+xGHJO+aYY2Tt2rX6y9LI1d33X//61zJq1CiBC9Lr9epm8CX7ww8/6HFCsYHScM899+h3rHODUhJYjj32WIECCx74Ar3vvvu04v3Xv/5VV8P9+AKGy/nKK6/UX7hQGsGsvXL66afLTz/9JJAl2IUY6h70AWUbyh/mEa5kKPNQ4t955502yhGWBUDphXIG5fPmm2/WPwyefvrpUM23OVdeXq7PwQUM5f+qq67SyhNYmIJrhx9+uGAOTzvtNO1+xw8NuD4x72bNH8YHl/3kyZN1Pdw/YsQI/SzjeXr33Xd1OziPZxfrDr/44guprq7W40U/UGzQhyloc+bMmXLQQQcJ5gEKOdzWUPLxnOL5QwE3PJNYM3vxxRdrZfiZZ57Rruh//vOfWjHWFf3/9JRbYFuBx/gbAqsTTjhBmpqaBFZCPJsvvfSSVlxRtzvPEf7u8MPr008/FfxN4u8W5YwzztAKJn4M4ocgftxgnvADLVi51jfwHxJwOgH1P3AWEkg6Aq+//rrX5XLpl7LmeZUC4H3ttde86oukDQv1N+xVlhjvqlWrrGtKUYDm41XKjld9qVrnL7nkEn3e1EV7ylLgVdY4r/piseqpLyldb968edY5tQ5M11VfLNY59aXtVV/e3hNPPNE6d8MNN7Tqw7qgDiBTRkaGVylL1mm0gfNKmbTOdXagLJb6noULF1pVleKjzx1//PHWOXOglAVzaL0rJVXXV8qIdc60oayD1jkcKGuaV1lyrHNK4dH3KgubdS74AIwxrgcffNC6pBR0fc46EXCAuujfFOWC1ayUNdic8ioF0quUZq9am2edQ/u4d9q0aV6lOFnnzz//fP38qGAc61yoAzNmtBH4UoqaV1lmW92ilDA930ppa3X+rrvu0vcqBdg6r6yQXqWwWZ/NgbLaeZViaD561Y8G/cLzrix8+rxSunV7//rXv/RnZd3yQh61Hta6DwcbN270KitYq/PKSurdaaedvA0NDVZdcFHWOK/6YWCd6yk3qyF1gDGpH22Bp7zBzxz+1vB39stf/tKqF85zhGcc84JnHhz22Wcfr/ph5VVKr9UODsABzxcLCSQKAbqA1V8+S/IRgOsGFkBYEGAZgeUOlg9YNQLdZ4YMXIPGAoJzxnUGyxqsbKaY87CGocCKgDWFsBAGrkGDa22HHXaQl19+WdfbsGGDfP7559otCreaKbCAQVYEN4RblKKirUGmPtqAlcvIZM539x2WkOACt7gpSjGQrVu3yh577KFPhXKRBbcBSxwsKrBQoRirqFJQdNCEPhnBf9xut6gfAdpqBYurKYjOhXsblh0ji7kGa1mgJRMyo501a9aYKh2+wzoG6yT6VcqRbL/99toya1yMuBlLBRB0g2cDDM1LKTW6baWsdNgHLkIuMIeLGAVjmTFjhl5nCGsgCt4xFuPCh1yIKlfKvdUn+lZKo37WTb+wYsK6DaslXKJGPswd/n5WrFjRZmlDT7lpgUP8E/jMYX1gVVWVNXZTvSvPEe4/8MADtXsbqWGCA3PQ1scff6ytzKZ9vpNAPBOgAhjPs0fZe0QArh24SvHlgUhMZb3TX2pYrI91boEF0cKBBWuDULA+K7CY82gTxSgHWL8WXPAlb66b91D1oBDgi9Z8oQe3E/w5WFZch+vSyBRcv6uf4boNLlAMzj33XOnbt69ejwWXtKmHL9bgEiwj5EMxMh533HHazQg3J9r8zW9+I3AzwnUZiYK1e3Bxtscb/SAqPLB0JnNg3VDHiPiFcg6FHuv13nzzTf3jITDiHAoU3JbgF/iCsogSToASFMCWlhb9A2f58uX6HpxD/4EKINyY5scG+kWBohnYL46hsJp+4YZX1g+ZO3dum3rK0qnbMHX1B/VPT7mZdoLf4erFjwz8sMI4ICtc1oHPW1eeI6zvQ1AY3L5YHxxc8CMRS0bwNw/XO5ZpROpHVXBf/EwCsSDANYCxoMw+HE1AuUz1Oh8ohPiixXo9WGLMFxqEhyUkVGnvPL4k7SrRlinQ8mLGCIsQLFkIUIHlxKQ7Ofjgg0MqbZ3JiD6wjg2WJ1hJEcSCtXZQUKCQtHe/kSca7+312d25BiNYjGHlNNHUUDyVe1VuuummkEMI/sERqhICMqAUgR+ULwQr4LmGEoj1qghwgCKIIBZTjGKNdYAmOMVcw7sJVDH1LrroIm3xC6xjjhEQFVgizQ1tQ35Y76HUYkyw3GINJyyrTzzxhNV9V54jrPvDOsLrrrtOHnnkEb1u0mpIHeAZB8MXXnhBP4NqKYZeK4kfkQioYSGBeCNABTDeZozyRpUAvjxR4JKNREGwCQosMcaNZ9rFOXPdvONccEHEJYI9TLqVQDdkcF07PsNqB2sWchOqNY2WCMaqZJ3o4gECF+B6xwsKEYJOkK8QSiEsaaFKuGxgLcrJydHzEtwOeKPvcJSt4Hu7+hmWOpSamho9vwjkwJIEjLmzsbR3HT9oYKGCkgQFEEoLCt6h/D3++OM6EAnKkynoFwXKYntscd24y6FsdVQPdaNZ4E6HkqvW7eoAIdMXFMDgEu5zhLQ8cAHDOotlHbAmBhcomljOgRcsnQj+QEopKoDBpPg5HgjQBRwPs0QZI04ASkQoy41ZaxfKNdgdIaBQ4ktVLeJvlcYD6TYQPYi1gCj4YoHlDGk9Anf4gMsJFi+s4TLFKIKB9cw1O96NhSeYJ6Jku1tMxGzg/WZNVmA6lMDrOA6XDWTGlz2sb4joNQUR2rAgYW0c1k1Gs2CMsJrC4oZnBAVWJkQII0l0cEF0auAyAIy1vWcAyh7Wq+E5NwogfkRgOYGJtDbn0Q/W72G8ULKbm5uDu7bS3UDOfffdV0dLh/qR1JO0OG067eAE5g8KMNZgmoJ5NFHS5lxXnyMVbKWj5vH3+qc//ck0o/sJdC3jAlgMGDCg1d+1dQMPSCAOCNACGAeTRBEjTwDrrrAGDG4wrMVDGgl8GcPNiGAPuIEjUWApwRcu2lPRhXqRvUkDg35UJKnVDVxKsCQgx+App5xipYHBukKsNzIF+c5QYA3D2jj0cdhhh1nKj6kXq3coDrAmYY0UlAcE0kBpVVG63RYBqV/gwoSCDOsorC1w9Q0aNMgKXAjVuGFzzjnnaKUGigIYhSpXX321DsqAsgeLDtycSAMDBRNjiXRBjjq4faEoI13N/fffr9c8Qtkw1rzf//73eq0jgmSgvCHdCpQcWCWxBhIWL2OlxlixXg3WUSgiWHNpgpCg3MEyhXWMgYoe5gljxLMHlqZgDmHxQv+waoEZrKRIHQQXPOS4/fbbdXXkWgQzuKqxiw6sgnimEVSF3TpgwYx2wXOBcWOJAYJ28HxALrifkQvRlO48R0jzggAg/H3hbw+74SDgBbywPnjChAl6HsEeawaxSwkLCcQlAfU/IxYSSDoCSIeBVCRK+fOqL2WdDkR9eXiVYuhVX2ateKg/7DbpH0wKEqRkCSzqSxuL/3RKicDzSrH0Tpw4UaeTUQvWvSp3mVd9WQZW0cfqS8Wrvmy9au2SV30pe5Vi51UBKW3qqRxyXqVo6ZQh6A/yoISSFeeVEhUyZQiuhSodpYEJlZoFY0EqF6QSUV+aXpWPTadUgTxIg2IKjnEuuA2TMsSMQ7mUvWpNllcpNnpu8I70MyoXnmlKjxlt4V5TlEtVz6FSXrxKqdJ9mWvBsuA80qEo65d+BpRL2Ku2B/SqHwLmFv1uZFNf9q3Om7nGe0fFjBn9m5ey3nmRfkgpdW1uRToT9aPBqwIR9POiAmS8StnzKhe7V1mhrPpKKdTpavCsoN2ZASlhkJpIKb86pQ2YmPLYY4/pukrRM6davWMs4IE5VC5Wr3INe5VL1Kui2VvVQ+ocpCZCGiT1A0Q/iypvo1cpuVa9nnKzGlIHSuHTz3DgOaVA67QzSNGEv2P0Z1ibeuE8R2Ye8cwHFqSGAlel+HrVjwKvWt/qVcqfZor5w7H6URJ4C49JIK4IpEBa9ZCzkAAJkAAJkAAJkAAJJAkBrgFMkonmMEmABEiABEiABEjAEKACaEjwnQRIgARIgARIgASShAAVwCSZaA6TBEiABEiABEiABAwBKoCGBN9JgARIgARIgARIIEkIUAFMkonmMEmABEiABEiABEjAEKACaEjwnQRIgARIgARIgASShAAVwCSZaA6TBEiABEiABEiABAwB7gRiSHTjHRujI6M/9o00mfy70QxvIQESIAESIAESiCEBpEDGDi/YRQf7RSdjoQLYg1mH8heLDeN7ICJvJQESIAESIAESaIcAtksM3BaxnWoJeZoKYA+mFZY/FDxA2EuThQRIgARIgARIwPkEsN8zDDjme9z5EkdeQiqAPWBq3L5Q/qgA9gAkbyUBEiABEiABGwiY73Ebura9y+R0fNuOnQKQAAmQAAmQAAmQgH0EqADax549kwAJkAAJkAAJkIAtBKgA2oKdnZIACZAACZAACZCAfQSoANrHnj2TAAmQAAmQAAmQgC0EqADagp2dkgAJkAAJkAAJkIB9BKgA2seePZMACZAACZAACZCALQSoANqCnZ2SAAmQAAmQAAmQgH0EqADax549kwAJkAAJkAAJkIAtBKgA2oKdnZIACZAACZAACZCAfQQSRgF899135bDDDtMbOyOz94svvtgp1bffflsmTZokmZmZMnLkSHnooYc6vYcVSIAESIAESIAESCDeCSSMAlhbWysTJkyQO+64I6w5WbVqlRxyyCGy3377yeeffy7nnXeenHrqqfLaa6+FdT8rkQAJkAAJkAAJkEC8EkiYvYCnT58ueIVb7rrrLhk+fLjceOON+pYxY8bI+++/L3//+9/loIMOCrcZ1iMBEiABEiABEiCBuCOQMApgV8kvWrRIpk2b1uo2KH6wBLZXGhsbBS9TqqurzWFE35//coM8/9WGNm0qz3arkiJBJ9TVtnVa3aI/hNr8Oril4HZwY1j9BTek79PdWv+E0z8qB8sQTv/6Pqsn30HI/oLkDPqobwzu39d265qh67QWIGT/rauIKzVFstJSJTvd5X/5jnMyXNI7N0NK1atPfqYUZaVLqqrL0paAp6FGmst/FHdtuXjqq8WtXnj3NNaIt6VJvO5m611w7H+J19u2MZxp7zyuqYlPcaWLqBfeU1xp/nf/uTQ1T+nZkppTJC7/KzW3SNLy+4hLvbO0JeBVvLeoOdxYv02qmhqkqlm91Hu1em9wt0gTXh63NKsX3s2x2+vRU+UV9Z+aSv2umkd7KPjXdw3/+s77rpjzqMXiZAJHD91Jjh62k5NFjEvZklYB3Lhxo/Tt27fVpOEzlLr6+nrJzs5udQ0f5s+fL1dccUWb85E+8dWGanl8yfpIN8v2EoBAmlL+RvTKkR365MmYvvkyeUiR7DOil5TkZCTA6MIbgqe5Ueq+e18aVi2WhnVfSuOPXyvFb6146qrCa8DmWqk5hZLRe7hk9B0lWcN3lewRu0v28N0kNTPHZsli1/3Whlp5d+MPsqTsR/VaLyuqt8qPdZVa0YudFOwpXgiMKuhNBTAKk5W0CmB3WF5yySVywQUXWLdCWRw8eLD1OVIHB44ulYKs1lNjfrGaPkIZJ4LP+X7vmjt878F1cLZt28Fn2tbR9wVVC6e/oFu0UCFlCjoZ9n1Bowlqxtef/vfnf4yl4OczYY43hFDBDMLpH/22eDxS3+yRhma3fq/X726pbXLL1tom2VzTKFUNLaqeV5ZvqdWvf32zSYsMK+Rug4vkhEkD1WuQ9FLWwkQr3pZm2fb5f6TyvYek9ts3xdtUF3KIqVn54sovFVd2gbK+FUpqlnrPypOUtAzLQmdZ7vQ59XeW0nYpdBtrc5Cp16usTpYVUckGa6J4WvxWRt9nj5LRo5Qat3rp99oK8TRs04pqw9rPBa/qxc/65jAjR/ImzJDCycdK/qQjlbzKkphgpbKxXh5e+ak8u/oLWbRljXhC/XGoMffOzJWijGwpysySQmVFLczIkixlYc1IdalXmqSnpkqG+pyu5i1dnUtTn1EwZ5gm/R54bJ2D4dY3s75/8dncpw5YHEtgj9IhjpUtngVrrWXE80i6KHu/fv1k0ybfF6i5FZ8LCgpCWv9QB9HCeEW77DmsRPBiIYFAAo0tbtm0rVGWb66VZZtr5OuN1fLeqnJZuqlGPllbqV+XvrJM5kwdJn/65ciEsAp6lauv6v1HZPML86RFuXdNSSvsJzk77CNZgydI5uDxktFnhKQVD1SKX76p4sh3T2OtNG1ZLc1bV0vj+m+k/odPpH7lImmp/Em2LX5Ov9J7D5Peh14sRfucqnRTlyPH0RWhqprq5Zov3pQ7ln0gdUpZNmWn4v4yufdgmdhroOxY1FeG5BXLQKW0ZyrljoUESCD6BJL2L23PPfeUV155pRXhN954Q3CehQScSCAzzSVDinP06wBlJTZlQ3WDPPfFBrn/k7XyxU/Vcv3C7+Whxevkrl+Nl6N26m+qxd1744blsv6uE6Rh9WdadldhXyna+2Qp3P04rfSFWlvp9EGmKutW1qAd9St/50O0uLBAN6z5n7IGPieV79ynlcMND50hFep44GmPSuaAHZw+rHble3HN13L6h8/JZrW2D2VcUT85Y4c95fDBO8rgPK6FbBccL5BADAikqP/5hHBkxaDnCHdRU1MjK1eu1K1OnDhRbrrpJp3ipaSkRIYMGSJw365fv14eeeQRXQdpYMaNGydz5syRk08+Wd566y0555xz5OWXXw47Chgu4MLCQqmqqtKWwwgPic2RQJcI4E/5pW83yZ9eXqqtgrj50v1HylUH7xB3gSPb/vcf+fEfv9GuXgRSlB4xV4r3n6MCK6Jvge8S9AhX9ihrWcXb98oWZfHEmka4rwee/phyCx8R4Z6i2xyexUs/e1Wu++ot3dH2BaVy0+TDZMagMdoNG93e2ToJdE6A399q+UOiKIBI6oycfsFl5syZOsHzSSedJKtXrxbUMwXH559/vnz77bcyaNAgmTt3rqBeuIUPULikWC+WBOAqvky5gm985wfd7R+mDJU7jt4pbr54qxY9Kevv+b1aU+eWnLG/1Faw9OIBsURoe1/NlRtk/Z3HS92yd0SUG3jgGY9ry6ftgoUhgEetjzxz0fNy9/KPdO0Ld9xHrt1lul63F8btrEICMSHA7+8EUgBj8sQEdcIHKAgIPzqKwIPKJXzKM1/o1BiwBF4zY4yj5AslTO23b8mavx2kAixapHCvmTJg1r0JGRARauzB57yKwU/3nSxVHz6qlcCh//eG5I5p+yM3+D67P89bskCu+uK/Ohjj/r1+LbNGTbZbJPZPAm0I8Ptb/W+lDRWeIAESSAgCsyYPkXt/PUGP5do3V8q/v97o6HE1l62Tdbcdo5W/gt1/IwNOeSBplT9MFHILDpj9oBTscby2hv54+6+laesaR8/hP1d/qZU/CHnfVCp/jp4sCpf0BKgAJv0jQACJTOCU3YfIuXsP10Oc+dTnslEFjDixeFUanJ/um6XTpWSpnHgDTn1QRcDyf0+IAh5wyv06X6C7pkw23H+KleDYafO4WSVwRsAHygU7/kJO3p6WP6fNEeUhgUAC/D9sIA0ek0ACErj+0LEyaVChVNY3yx9f+taRI6x870Gd3y9F5X8beMZjkqpyv7H4CKQqJoP+8JSkpGdpRlUqF6ITyzkf/0vKGutkQskAuW5XX4SzE+WkTCRAAj4CVAD5JJBAghPIUFvM3XXMeJ309rHP1su735c5asTYwm3L83O1TH2Ovkoy+23vKPmcIExG3xFSevSVWpRNz16strerdYJYlgyLNq+Wp1d9Li6VnPmBqcfqBM3WRR6QAAk4kgAVQEdOC4UigcgS2E1tGTdbuYNR/vL68sg23sPWyhbcpBIhb5D00u2keNpZPWwtcW/vdeB5kq4SXrurN0v5f293zEBNyhcINGvUbjKp9yDHyEZBSIAE2idABbB9NrxCAglF4LJpoyTdlSILV5bJB2oHEScUj3IZlr9+ixalz6+uSfg8fz1hju3hSo+Yp5soe/l6cas1d04o72z8Xt5WL2zVNm/CAU4QiTKQAAmEQYAKYBiQWIUEEoEAdhGZuatv7+r5b65wxJAqP3hE3LXl2vpXMPnXjpDJyUIUTjlBMvqO0syqPnzMEaLe+u37Wo5TVNAHd/dwxJRQCBIIiwAVwLAwsRIJJAaB/9tvhB7IK8s2y7qKelsHhcjf8tdv1jKUHHhOQux7G22giAounjZHd1Px1p22RwSvramQf637Rstz1pip0R4+2ycBEoggASqAEYTJpkjA6QRGlebJPiN66eTQD326zlZx61Z8IE1qv9/UrHy9x6+twsRR50VTZwqipRt//ErqFUM7yz1qtw+P2vZtv34jZKza55eFBEggfghQAYyfuaKkJBARAqf6g0Hu/3iteDz2bQVevehxPZ78XY8RV3Z+RMaWDI24coukEMmhVUH6HLsKgj8e+2GJ7v6MHfa0Swz2SwIk0E0CVAC7CY63kUC8EjhmfH8pzEqTNcoF/OFqe4JBvC1NUv3Jsxoh1rWxdI1A4Z4+Zts+e1G8Lc1duzlCtRdvXSdrlAs4Ny1DDhu8Y4RaZTMkQAKxIkAFMFak2Q8JOIRAdrpLDh3bV0vzok3bw9V89ZoOZEgr6h8X+9s6ZOosMXJG/0Jc+aWaYe3Shdb5WB4g7x/K4UN2lGwVocxCAiQQXwSoAMbXfFFaEogIgSPH+dZrQQGEKy/WZduSf+kuC3b7FYM/ugEf+wQX7Hq0vrN6sW/7tW400+1b8Mw8q/b9RTl2mG+/6W43xhtJgARsIUAF0Bbs7JQE7CVw8A59JFPtEPJ9WZ18szG2+eSgPNR8tUADyJtwqL0g4rj3/N18aXO2LVFuYBVRHcvyVcUGWVdbKTnK8nfwwNGx7Jp9kQAJRIgAFcAIgWQzJBBPBPIy0+SA7Uu1yP/+ZlNMRW9c95W0VKxXkaw5AlcmS/cI5I7eW1Iyc8W9bYuOCO5eK9276/X13+kb9+s3UrLo/u0eRN5FAjYToAJo8wSwexKwi8DBo30K4Fsrt8ZUhJovX9H95Y7ZT1IzsmLadyJ1lqKCL3J32EcPqebrN2I6tNd/8imABwzgvs0xBc/OSCCCBKgARhAmmyKBeCKw38jeWlxsC9fY4o6Z6AgAQckbPz1mfSZqR7k7+rZeq/32vzEbYr2KOn530w+6vwMHUgGMGXh2RAIRJkAFMMJA2RwJxAuBMX3zpG9+pjS0eOTjNZUxEdvT3Cj133+k+8odu39M+kzkTnJ3nKaHV7f8XfE0NcRkqO8p5a/R3SKDcgplh8I+MemTnZAACUSeABXAyDNliyQQFwRSUlJkX7UrCMrCGLmBG9YsEW9zg0ph0lsy+jN4oKcPSubAHSWtsJ94m+ql/oePe9pcWPe/u9Fn/dt/wCjBM8RCAiQQnwSoAMbnvFFqEogIgf1G+hTAWK0DrPvOt3VZzqi9qDxEYAahgGVvv5duyVhWI9Bsh00s2rJGX5/SZ1iH9XiRBEjA2QSoADp7figdCUSVwC+28ymAi9dVSos7+qlE6le8r8eTPWpqVMeVTI3njNhDD7d+pc+1Hs2xu1W6mU+2+PaQ3qN0SDS7YtskQAJRJkAFMMqA2TwJOJnA6NI8KVDbwtU3e+SbTdHNB4j8f3Xf+RTAHL/Vysls4kW2bKMAqrWV0U7q/U3lRqlpaZT89EzZsciXTDxeOFFOEiCB1gSoALbmwU8kkFQEUlNTZJdBhXrMi9dGNxCkadMKcdeUSUp6lmQPm5RUnKM52CywVDuDtFRtlOaytdHsShZt9rl/J/ceIq5Ufn1EFTYbJ4EoE+BfcJQBs3kScDqB3QYXaRHhBo5maVi9RDefNWSCIIcdS2QIpGZkS9aQnXVj9d9HNxDErP/bs8/QyAjPVkiABGwjQAXQNvTsmAScQWDykBgpgGv+pwecNWSiMwaeQFIEuoGjOaxPt/rW/+3O9X/RxMy2SSAmBKgAxgQzOyEB5xIwFsCvNmxTawGjlxC6wSiAQ6kARvppyB7qc6k3rPsi0k1b7TWoBNDLqrbozzuXDLDO84AESCA+CVABjM95o9QkEDECg4uypU9ehrR4vPLlT9URazewIQQnNKz1WwCpAAaiichx5uDxup3GtV9ELRBkadVmcXs9UqxczgNVEmgWEiCB+CZABTC+54/Sk0CPCSCX3IQBBbqdrzdGJxK4pWK9uLepPYdTXZI5aKcey8wGWhPIHDhWJCVVB9kgGCQa5Yvyn3SzE5T1jwmgo0GYbZJAbAlQAYwtb/ZGAo4ksGO/fC3X1xujYwE07t/MAWMkNSPLkQziWSgEgmT08+3L27juy6gMJVABjEoHbJQESCCmBKgAxhQ3OyMBZxIY189vAVTrAKNRGpRrEoUBINGg62szy+8GboiSAvhlxQbd0YSS/tEbBFsmARKIGQEqgDFDzY5IwLkExvktgNFKBt3407d68JmDxjkXQpxLZq0DjIICiDWcxgI4vpgBIHH+qFB8EtAEqADyQSABEpCxfX0u4A3VjVJW2xRxIk0/LdVtZvbfIeJts0EfgWhaADfUV0tZY52kqvWiOxb1JXISIIEEIEAFMAEmkUMggZ4SyFfbwQ0rydbNfBPhQBCv2j+2ceNy3XaGWgPIEh0CJrimUSnbXndLRDtZVrlZt7ddXi/JSkuPaNtsjARIwB4CVADt4c5eScBxBKx1gBFWALE9mbepXu/+kVE63HHjThSB0nsN0dvsibtZmrf6tmyL1Ni+q/bl/xtdWBqpJtkOCZCAzQSoANo8AeyeBJxCYEe/GzjSFkBYpFAy+o6SFLVnLUt0CKSovXnBGKVx43cR7WS5PwE0FcCIYmVjJGArASqAtuJn5yTgHALbl+ZqYVZurY2oUE0blun26P6NKNaQjZlUME2boqUA9gnZL0+SAAnEHwEqgPE3Z5SYBKJCYGRvnwK4IsIKoLEAMgAkKtPWqlFLAYy0BZAu4Fac+YEEEoEAFcBEmEWOgQQiQGCU3wK4pqJOmlo8EWjR10TjBn8EMANAIsa0vYYy+4/Wl5o2+IJu2qvXlfONKqBkdU25vmV0AdcAdoUd65KAkwlQAXTy7FA2EoghgX75mZKb4RK1JbCsKq+LWM9Nm1botjL6+ZSTiDXMhtoQMBbASK4BXFm9VT0TXilIz5K+2b50QW065gkSIIG4I0AFMO6mjAKTQHQIYH/XSLuBPY214q7apAXO6DMiOoKzVYuAUQBbyteJR+Xti0QxASDbF/bmHsCRAMo2SMAhBKgAOmQiKAYJOIHAKP86wEgFgjRtWaWHlZpbLK7cIicMMaFlSFN5+lzqhWIsrz0d8Aqz/q+AASA9Zcn7ScBJBKgAOmk2KAsJ2EzAsgBuiUwkcPPmH/SIMkq3s3lkydO9SQUTKQXwh22+9X/b5ZckD0SOlASSgAAVwCSYZA6RBMIlYCyAK7bWhHtLh/WatlAB7BBQFC6m+5NtN21ZHZHWTQDIcCqAEeHJRkjAKQSoADplJigHCTiAgIkEjlQqmGa/ApjehxbAWE1veu9huqvmrasj0uUqfwTw8DxaACMClI2QgEMIUAF0yERQDBJwAoHteuVoMdZVNkiLu+epYJroAo75tJrt9iKhAHq8HllTU6HHMIwKYMznkh2SQDQJUAGMJl22TQJxRqB/fpaku1LErXLB/FTd0GPpjQuYFsAeowy7gUhaADfUbZMmj1tcKakyKLcwbBlYkQRIwPkEqAA6f44oIQnEjEBqaooMLsrW/a2pqO9Rv16PR5r9UcAMAukRyi7dbBTAJuUC9qr8fT0pxv07WCl/aamunjTFe0mABBxGgAqgwyaE4pCA3QSGFkdGAWyp2ijeZmVFVIpDeslgu4eVNP2n9xqix+pFDsZtW3s0bisAhO7fHnHkzSTgRAJUAJ04K5SJBGwkMMSyAPYskbCx/kH5S0lLt3FEydV1anqmpBUN0IPu6TrAVf4UMMPzfbkFk4skR0sCiU2ACmBizy9HRwJdJjC02BcI0lMXcLPajQLFWKS6LAhv6DYB4wbusQLojwAellfcbVl4IwmQgDMJUAF05rxQKhKwjYDlAi7v2RpASwGk+zfmc5leOkz3iXWAPSmrLQsgU8D0hCPvJQEnEqAC6MRZoUwkYCMBowCureyhAli2Vo8ijQpgzGczo/dw3WdPLYBrait1O0PVVn4sJEACiUWACmBizSdHQwI9JjC0xLiA63oURdpiuYAZANLjSeliA+m9h+o7mreu6eKdP1dHBPH6uip9YjD3cf4ZDI9IIEEIUAFMkInkMEggUgQGF2XppuqbPbK1tqnbzTaX+dcA0gLYbYbdvTGteKC+taVifXebkLLGOml0t+j7B+QUdLsd3kgCJOBMAlQAnTkvlIoEbCOQmeaS/gWZuv+eBIJwDaBtUyjpxYN0580VP3ZbiB/97t++2fmS4Urrdju8kQRIwJkEqAA6c14oFQnYSsCkglnXzXWAnqYGlYNuix5DWi+6gGM9mWklPgsg8gBiLrpTfvS7fwflcAeQ7vDjPSTgdAK2K4AetVvAd999J++//768++67rV5dhXfHHXfIsGHDJCsrS3bffXf55JNPOmzi5ptvltGjR0t2drYMHjxYzj//fGlo6N7/LDvsiBdJIM4IDCz0uYF/qure30OL3/KUkpEtrlxGkMZ6+sE8Jd03hy2VP3Wre2MB5BZw3cLHm0jA8QRstet/9NFH8tvf/lbWrFnTZrF5Soraj9TtDhvg008/LRdccIHcddddWvmDcnfQQQfJ8uXLpU+fPm3aeeKJJ+Tiiy+WBx54QKZMmaKV0JNOOknQ70033dSmPk+QQDIRGFDgUx7Wd3M/4ED3L/6mWGJLAMzTSwZJ06aV0qzWAWb02a7LAvxY6wsAoQWwy+h4AwnEBQFbLYBnnHGG7LrrrvL1119LeXm5VFRUWC987kqB0jZ79myZNWuWjB07ViuCOTk5WsEL1c6HH34oU6dO1QroMGU1PPDAA+X444/v1GoYqi2eI4FEI2AsgOu7aQFkAIj9T4QVCFLevXWAlguYEcD2TyYlIIEoELBVAVyxYoVce+21MmbMGCkqKpLCwsJWr3DH29TUJJ999plMmzbNuiU1NVV/XrRokXUu8ABWP9xj3MQ//PCDvPLKKzJjxozAajwmgaQkMKCHLmBjAWQOQPsen54GglgWwFyuAbRvFtkzCUSPgK0uYKzTW7lypYwcObJHI9y6dat2F/ft27dVO/i8bNmyVufMB7iecd9ee+2l3c8tLS0Ci+Sll15qqrR5b2xsFLxMqa6uNod8J4GEIjCwhy7gFr/VCW5IFnsIpPnZdzcVzI91viTQdAHbM3/slQSiTcBWBfDss8+WCy+8UDZu3Cg77bSTpKe33jB+/PjxURv/22+/ra2P//jHP/SaQSii5557rlx11VUyd+7ckP3Onz9frrjiipDXeJIEEomAcQF3OwikaqPGkVbUP5GwxNVY0v25AJu74QJGEuifLYBFcTVuCksCJBAeAVsVwGOOOUZLefLJJ1vSYvEy/ueD93CDQHr37i0ul0s2bdpktYMDfO7Xr1+rc+YDlLzf//73cuqpp+pTUEBra2vltNNOk8suu0zgQg4ul1xyiQ40MedhAUT0MAsJJBoB4wKuamiR2sYWyc3s2v8qWqo2aCRphVQA7Xo20vy5ALtjAaxSqWNqW3xJwAcyDYxdU8h+SSCqBLr2f/UIi7Jq1aqItJiRkSG77LKLvPnmm3LkkUfqNpFeBp/POuuskH3U1dW1UfKgRKJAAQ1VMjMzBS8WEkh0AgVZ6ZKX6ZKaRrcgEnj70rwuDbmFFsAu8YpGZeN+704yaOP+LcnMkey01p6ZaMjKNkmABGJPwFYFcOhQ336VkRg2UsDMnDlTRxVPnjxZkAYGFj1EBaOceOKJMnDgQIEbF+Wwww7T6V4mTpxouYBhFcR5owjqivyHBJKUAFLBfLelVuAG7ooCiB9QLZXGAhjaAp+kSGM6bCsKWM2F1+OWlFTfD9xwhNhYv01XG5DNLeDC4cU6JBCPBGxVAAHs0Ucf1SlbYA1ExC6UQihvw4cPlyOOOCJspscdd5xs2bJF5s2bp9cU7rzzzrJgwQIxgSFr165tZfH785//rN3MeF+/fr2UlpZq5e+aa64Ju09WJIFEJoB1gFAAu5oKxqOCB7x+92FaIRVAu56RtEIVFJeilrIo5Q87gujPYQpjFMB+Oflh3sFqJEAC8Uag7UK3GI7gzjvv1GvqkHqlsrLSWvOHlDBQArta4O5FUmlE6n788cfasmfaQNDHQw89ZD5KWlqaXH755ToKub6+XqAgYicR9M1CAiQgYgWCdDEZtLH+peYUSWqGL6E0ecaeACx+roJS3bFxyYcrxYY6X4aDfmofYBYSIIHEJGCrAnjbbbfJvffeq4MuAt2uSA791VdfJSZxjooE4oSAtRtIF5NBG2WDEcD2T7SxwJo5CVciywJIBTBcZKxHAnFHwFYFEG5frMELLgi0wPo9FhIgAfsIGAXwp25aAI3yYd8I2LOZg+4qgP25BpAPEQkkLAFbFUCs8/v888/bwMXaPewOwkICJGAfgb75voj3Tdt+Tn4ejjRG2aAFMBxa0a3TUwWQLuDozg9bJwE7CdgaBILI3Tlz5khDQ4NOvYJt2Z588kkdqXvffffZyYV9k0DSE+iuAthsRQAzB6DdD5GlAFb6EnOHKw/XAIZLivVIIH4J2KoAIglzdna2IBIXefmwPduAAQPklltukd/85jfxS5WSk0ACEOhnLIA1voTA4Q7JbXIAMgI4XGRRq2cpgP45Cbcjaw0go4DDRcZ6JBB3BGxVALGTxgknnKBfUABramqkT58+GmIk9giOu9mgwCTgIALGAlhZ3yyNLW7JTAsvj1yzfxeQdG4DZ/tsdkcBbHS3SEVTvZadawBtn0IKQAJRI2DrGsBDDjlEp2zB6HJycizlb/ny5bLvvvtGbdBsmARIoHMCxdnpku5K0RW7sg7QpIFx0QLYOeQo1+iOArix3pcCJkOlkSnKyI6yhGyeBEjALgK2KoB5eXly1FFHSUtLizX+pUuXauXP7BNsXeABCZBATAlgP+4+eSYQJHw3sAkCoQUwptMVsrPuKYC+XUAQAIJngIUESCAxCdiqAD7//PNSVVWlXcDYPurrr7/Wyt/xxx+v1wEmJnKOigTih8DP6wDDiwT2NDWIp7ZCD9AoH/Ez2sST1MwBdmfB3IRTNtb9rACGU591SIAE4pOArQogAkBefvllgcv32GOPlf3331/v2XvTTTfFJ01KTQIJRsCsA9wYZi7AlupNmkBKeqak5hYnGI34G05qTqFgLlDM3HQ2ig1+F3D/HO4D3BkrXieBeCYQcwUQgR+Br9TUVHn66af11m1w+86dO9e6Hs9gKTsJJAKBvsYFXBOeBdCs/4Plie5D+58AzIGxAhrXfGdSmQjgvlncBq4zVrxOAvFMIOZRwNhrN9QXA1zAd911l9x99906JyDquN3ueGZL2Ukg7gkYC+CmbeGtATRKhlE64h5AAgwAc9G8dY2Y9DydDWlzQ42u0jc7r7OqvE4CJBDHBGKuAC5cuDCOcVF0EkguAtYawDB3A3H7XcCugr7JBcrBozVz0VLlc893JuqWBt82nH2yqAB2xorXSSCeCcRcAdxnn33imRdlJ4GkImAsgBu3hRdA0FK9RfNJK/Dl80wqWA4dbFp+qZasZZtvbjoTc3O9zwJYSgWwM1S8TgJxTSDmCmAoWkgCvXbtWmlqau1mGj9+fKjqPEcCJBAjAkYBDDcPoNuvZLj8SkeMxGQ3HRAwc2HmpoOq+tIWvwu4NCu3s6q8TgIkEMcEbFUAt2zZIrNmzZJXX301JEKuAQyJhSdJIGYEjAt4Y5guYGNlMlanmAnKjtolkFbQNQugcQHTAtguUl4ggYQgEPMo4EBq5513nlRWVuoIYKSEWbBggTz88MMyatQo+fe//x1YlcckQAI2EDCJoKsaWqSpxdOpBO7qzbqOsTp1egMrRJ2AmQszNx116PZ4pKyxTlehBbAjUrxGAvFPwFYL4FtvvSX/+te/ZNdddxWkgxk6dKgccMABUlBQIPPnzxdsFcdCAiRgHwFsB5eqNoPweEW21jbJgMKsDoWxLIB+q1OHlXkxJgSMNdbMTUedljfViVf9h9KbLuCOUPEaCcQ9AVstgLW1tdb+v8XFxQKXMMpOO+0kS5YsiXu4HAAJxDuBVKX99crN0MOAAthZMevMjNWps/q8Hn0CZi7c/gCdjno0ASAlmTmSpvYCZiEBEkhcArYogAj48ChXw+jRo/UuIMA7YcIEnQNw/fr1Oh9g//79E5c6R0YCcUSgd5gKIHJ5tmzbqkdmrE5xNMyEFTVwDSDmqKPCAJCO6PAaCSQWAVtcwMOHD5cNGzbIueeeq9+B9PLLL5eDDz5YHn/8ccnIyJCHHnoosUhzNCQQpwRKlQK4VMm+pZPdQDx1VSLuZj1KY3WK0yEnlNjWXKi58aht3lxqe7j2CgNA2iPD8ySQeARsUQDNr9Df/e53FtFddtlF1qxZI8uWLZMhQ4ZI7969rWs8IAESsI9AuBZAs8YsVeWPS83oeK2gfaNJvp5TM7IlJTNXvI21Ahd9xwqgPwegqs9CAiSQ2ARscQEDaajt4HJycmTSpElU/hL7mePo4oxAqX8/4C2drAHk+j/nTqxxyRslvT1JzTZwfbgNXHuIeJ4EEoaALRZA0Js7d65A4euo3HTTTR1d5jUSIIEYEAjXAkgFMAaT0c0u4AZu3rpaOgsEoQu4m4B5GwnEIQHbFMCvvvpKr/Vrj1koC2F7dXmeBEggegSwBhBlS03HUcDWNnDcBSR6k9HNlgMDQTpqgkEgHdHhNRJILAK2KYAvvPCClQImsZByNCSQWARoAYz/+TSBIMZK296IaAFsjwzPk0DiEbBlDSCte4n3IHFEiUugNM9vAaxt7HCQZn2ZsTZ1WJkXY0og3DWAtADGdFrYGQnYSsAWBdBEAds6cnZOAiQQFgFaAMPC5OhKlgWwk2TQVhCIiuRmIQESSGwCtiiADz74oBQWtp+LKrGRc3QkEF8ESnMztcDYCaSjH2+WBZBrAB03weFYAD3ewH2AqQA6bhIpEAlEmIAtCuDMmTMlM9P3pRLh8bA5EiCBCBPo7XcBN7u9Ut3Q0m7rJsLUWJvarcgLMSfg8u/N3NEawPLGerXnM/cBjvnksEMSsImALQqgTWNltyRAAt0gkJ3uktwM376wHeUCpAWwG3BjdItRyjtSAM36vyKVODqd+wDHaGbYDQnYR4AKoH3s2TMJxA2BztYBwjVslAtjbYqbwSWBoOG4gM36v9Is7gKSBI8Eh0gCQgWQDwEJkECnBKxI4Hb2A8Y2Y97mBt2OUTY6bZQVYkbAWAC9TcrNq+YqVNna4DtfygCQUHh4jgQSjgAVwISbUg6IBCJPoDMLoHH/pqRn6X1nIy8BW+wJAezPnJLuW3dtEnYHt1fWWKdP9eY+wMFo+JkEEpKAbYmgQbO4uDjknsDIE5iVlSUjR46Uk046SWbNmpWQ8DkoEogXAiYSuL3dQNw1ZXoorvzeIf+m42WciSon/p/qyustLRXrxV2zVaR0WJuhVvgVwOLM7DbXeIIESCDxCNiqAM6bN0+uueYamT59ukyePFnT/eSTT2TBggUyZ84cWbVqlfzhD3+QlpYWmT17duLR54hIIE4IdGYBdNeU65G4ckviZETJJ6Yrr5dfAfTNVTCBcr8CWJLZ8R7twffxMwmQQHwSsFUBfP/99+Xqq6+WM844oxW9u+++W15//XX55z//KePHj5dbb72VCmArQvxAArElYK0BVLkAQxV3LRXAUFycdA4KIIqx1gbLVq7WB6KUZFABDGbDzySQiARsXQP42muvybRp09pw3X///QXXUGbMmCE//PBDmzo8QQIkEDsCnVoAjQKYRwtg7Galaz0Z62y7CqBlAaQLuGtkWZsE4pOArQpgSUmJ/Oc//2lDDudwDaW2tlby8/Pb1OEJEiCB2BEozfXvB9xOFDBdwLGbi+72ZFkA/cp6cDt0AQcT4WcSSGwCtrqA586dq9f4LVy40FoDuHjxYnnllVfkrrvu0uTfeOMN2WeffRJ7Fjg6EnA4gV5+BbC8rjmkpO66Cn3elVsc8jpP2k+gMwtghd8FXMw1gPZPFiUggRgQsFUBRGDH2LFj5fbbb5fnn39eD3f06NHyzjvvyJQpU/TnCy+8MAYY2AUJkEBHBEpyfBbA8rp21gAyCKQjfI64FrYFUO0EwkICJJD4BGxVAIF36tSp+pX4qDlCEohfAiU56Vr4ivpm8Xi8kpqa0mowDAJphcORH1z+9ZmdrwFkEIgjJ5BCkUCECdiuAHo8Hlm5cqVs3rxZfbF4Wg3vF7/4RavP/EACJGAPAaMAKt1PqhqapdhvETTSWAogg0AMEse9p5ko4BBrABvdLVLb4rPuMg2M46aOApFAVAjYqgB+9NFH8tvf/lbWrFkj2Es0sCBxqdvtDjzFYxIgAZsIZKa5JDfDJbVNbsE6wGAF0FPrWwOYmsM1gDZNUafdWi5gf9LuwBtMEugUSZHCjKzASzwmARJIUAK2KoDI/7frrrvKyy+/LP379+cOAgn6kHFYiUEAVkCjAI4IGhItgEFAHPjRBIG0hFIA/QEgRUr5S02xNTmEA8lRJBJITAK2KoArVqyQ5557Tm/5lph4OSoSSBwCCARZV9kgZUGBILDeWwogdwJx7IQbC6CnrlK8HrekpLosWZkCxkLBAxJIGgK2/tTbfffd9fq/pKHNgZJAHBPo1U4ksFdZj7zNjXpkxsoUx8NMWNGtFD1Q2JUSGFioAAbS4DEJJAcBWy2AZ599tiDNy8aNG2WnnXaS9HRfpKFBj23gWEiABJxBwASCBOcCNNY/caVJalaeM4SlFG0IpKRlqPnJF0/DNrUdXLmYoBBUpALYBhdPkEDCE7BVATzmmGM04JNPPtkCjeAPuJQYBGIh4QEJOIJA+wqgPwm0CgDB3y2LcwkgFYxPASxTQo6yBLX2AWYSaIsJD0gg0QnYqgCuWrUq0flyfCSQMATMbiDBawCNBdDkmUuYASfgQFy5vaR56xprzaYZookCLmYSaIOE7ySQ8ARsVQCHDh2a8IA5QBJIFAIl2aF3A+E+wPEzwyYQJDgZNF3A8TOHlJQEIkUg5grgv//9b5k+fbpe74fjjsrhhx/e0WVeIwESiCGB9l3A5VoKBoDEcDK62ZWx0rZRAP1pYJgEuptgeRsJxCGBmCuARx55pA766NOnj+C4vcI1gO2R4XkSsIeAUQDLalvvB+z2J4G2okztEY+9hkHAsgAG7QZiWQDpAg6DIquQQGIQiLkCGLjdW+BxYuDkKEggcQmYNYDtRQHTAuj8uTdz1MYC2FinhacF0PlzSAlJIFIEbM0DGDiI5xIurAAAQABJREFUhoaGwI88JgEScBgBJIJGKQ9KBO3xW5OMcuEwsSlOAAHLAqjSwASWisZ6/bGYUcCBWHhMAglNwFYFEHv9XnXVVTJw4EDJy8uTH374QcOeO3eu3H///QkNnoMjgXgjYFzAFfXN4vH8vHe3FQSiUoywOJuAUdLbWACbjAUw29kDoHQkQAIRI2CrAnjNNdfIQw89JNdff71kZPisCxjZuHHj5L777uvyIO+44w4ZNmyYZGVlCXYZ+eSTTzpso7KyUubMmaP3Ic7MzJTtt99eXnnllQ7v4UUSSFYCRgGE7lfV0GxhsNLAcBs4i4lTDywLYMAaQI/XI8YCWJKR41TRKRcJkECECdiqAD7yyCNyzz33yAknnCAu18/7Uk6YMEGWLVvWpaE+/fTTcsEFF8jll18uS5YsEbRx0EEHyebNm0O209TUJAcccICsXr1a70e8fPlyuffee7U1MuQNPEkCSU4gM80luRm+v9PAdYAmCCQ1tzjJCTl/+JYCWINE0L5S1dQgXvUfCl3APib8lwSSgUDMg0ACoa5fv15GjhwZeEofIzikuflnC0ObCiFO3HTTTTJ79myZNWuWvnrXXXfJyy+/LA888IBcfPHFbe7A+fLycvnwww+tLehgPWQhARJonwCsgLVNbrUOsFlG+KvRAtg+L6ddsdLABFgATQRwrtoqLlNt58dCAiSQHARstQCOHTtW3nvvvTakn3vuOZk4cWKb8+2dgDXvs88+k2nTpllVUlNT9edFixZZ5wIPkINwzz331C7gvn37arfztddeK1iXyEICJBCaQC9/IEjgbiCWAsg1gKGhOeissQB66qvF2+L7kV3hzwHIXUAcNFEUhQRiQMDWn3vz5s2TmTNnCiyBsPo9//zzAlcsXMMvvfRS2MPfunWrVtygyAUWfG7PlYyAk7feeku7n7Hub+XKlXLmmWdqyyPcyKFKY2Oj4GVKdXW1OeQ7CSQFgeBIYK+7RaBMoJgAg6QAEaeDdOUUidqwWdSG63o7uLTCvmIsgEwBY++kwvjQVc+XvRI7u/f09PRWS8ucLa090tmqAB5xxBHyn//8R6688krJzc0VKISTJk3S57A+L5oFCieSUWMNItYf7rLLLloRveGGG/Q6wlB9z58/X6644opQl3iOBJKCgAkEMWsA3XWV1ri1cmF94oETCaSkuiRVKYEelbwbllsqgPbPklcp4xs3bhQEJbJElkBRUZH069dP/eZRP3pY2hCwVQGENHvvvbe88cYbbQTryonevXtrJW7Tpk2tbsNnTH6o0r9/f732LzD4ZMyYMfoPES7lwKhkc/8ll1yiA03MZ1gABw8ebD7ynQQSnkAbBdC/liw1u0BSuH4sLuYfllqtAPoDQWgBtHfajPIHg0ROTg6VlQhMB5Tquro6KwgU3/csbQnYrgAGigS3bH19vUARwxq+cAuUNVjw3nzzTWt7OVj48Pmss84K2czUqVPliSee0K5n09d3332nU8KEUv7QCFLF4MVCAslKwOwGYtYAWjkAmQImbh4JrANs3vy9mLkr9yeBpgs49lMIty8sf1D+evXqFXsBErjH7GxfTktkAgHfQGNPAg+7S0MLX8vqUrMdV8Y6B6yzO+ywwwS5APFHcPzxx8uoUaNk/PjxOiAD6Vm6UpACBmlcHn74YVm6dKn84Q9/kNraWisq+MQTTxRY8EzBdUQBn3vuuQLFDxHDCAJBXkAWEiCB0ARKslvvBmIFgFABDA3MgWfTlAKIYpJBV/iTQDMIJPaTZdb8wfLHEnkChqvhHPke4rtFWyyASMvy6KOPCtYAIh0LEjYj+AMWOVjjsDvIZZddJo8//njYdI877jjZsmWLXkcIk/rOO+8sCxYsEBMYsnbt2lZWRbhuX3vtNTn//PO10ondSKAM/ulPfwq7T1YkgWQj0MYF7N9SzKQXSTYe8TheE6zTQhewY6aPa9SiMxXk2jFXWxRApHnBDiAzZszQ1rcddthBW+CmT5+upYW5Fsmhu1rg7m3P5fv222+3aQ5pYD766KM253mCBEggNAHLBVzbpCt46ir0uyuHSaBDE3PeWaOsm7mjC9h5c5SMEv3lL3+RF198UT7//PNkHL4tY7bFBfzTTz/pnTowYmy/hnV1gQmhcQ5WPBYSIAFnEaAF0Fnz0R1pUv3uemsNIPcB7g7GpL9n3333lfPOOy9mHBoaGuSkk06SnXbaSdLS0qz1/jETIAE7skUBxJo/5OgxBZMZuEATbmBE8bCQAAk4i0BwHkCzBtAoFc6SltKEImBcwG6/9daKAuY+wKFw8ZxDCEBvQGDHOeec02rTB4eIF5di2KIAghTW32E3DrxMxK75jGssJEACziNgLIAV9c3q79aXTBhSGqXCeRJTomACLv+ezcYCWOGPAuY+wMGk+Lk9ArDEvfPOO3LLLbfotDVYa/f999/LKaecIsOHD9eK2ujRo/X1wDawFGvy5Mk67y9y9CEbx5o1awKrWMdob7vtttPLumAQQq7gO++8U2/52l56N+tmHoRFwJY1gJAMO4AEltNPPz3wI3MhtaLBDyTgDAJGAVS6n1Q1NKtkwv41gNwGzhkTFIYURlmH9RZfrOV0AYdBjVUCCUDxQ/aMcePG6Y0ccK24uFgGDRokzz77rE5p8+GHH8ppp52mU6sde+yx0tLSot22s2fPlieffFKQbxcBoKECNb788ks56KCDtEJ59dVXB3bN4wgSsEUBhMWPhQRIIP4IZKa5JCfDJXVNboEVMMWfCJpBIPEzlyYIBApgvbtZGtV2fijMA2j/HOoExupvy46Cv+tQylgoWQoLC/VmCUizEmiNC9wpC5bARYsWyTPPPCNQALFxQlVVlRx66KEyYsQI3Sxy/gYXKI6og0wgF154YfBlfo4gAVsUwAjKz6ZIgARiTKAkO10rgNgOrsgogLQAxngWut9doAXQrP9LS0mVvDQmue8+1cjciR9WeZe+GpnGuthKzbXTJTezZyrBHXfcoVO7Ie0aNnWAlQ8p2VBKSkp0EAcse9jqddq0aVoxDNylA/fhGvIDxzLApIuoEqa6bWsAE4YgB0ICSUYgMBDErCMzSkWSoYjL4Zq58tRVSXlDjR4DrH/hWn/ictAUOuoEnnrqKbnooou02/b111/X6VxmzZqllUDT+YMPPqitglOmTJGnn35aZwEJTMVWWlqq1wjCRQyLIUt0CfRM3Y+ubGydBEjAgQTMOsBylQtwkLEAcicQB85UaJFcOUXWha3VW/RxcaZv2yzrAg9sIQA3LCxxdhT03ZWCLVMRmWvKBx98IFDszjzzTHNKB4ZYH/wHEydOFLywMxdy8WIDiD322ENfRZTvSy+9pHMEw1IIRTI/Pz+4CX6OEAEqgBECyWZIIFkIGAWwurpSxOP7AjCRpcnCIJ7HmZKWLqlZ+eJp2CZbq3wKYAlTwDhiSmGF7akbNlYDGTZsmHz88ceCbVvz8vL0Vq6PPPKIzvCB9X/Y7Wvx4sU6KhgyrVq1Su655x45/PDDZcCAAXr3rxUrVgi2aQ0siPbF1qzYGAIv7OiF9lG+/fZbbVHENq7btm2zkkYbN3NgOzzunIBjFUAshqVLovMJZA0SiDWBYv9+wDWVPuUhJT1TUjJoQYr1PPSkPwSCQAEs82/lxwCQntBMznvh7kU2j7Fjx+r1fsuWLZP//e9/gm1Z8d19/PHHa2vgq6/61jQiYAR1Hn74YSkrK9PRwXPmzJHgDCCgCYUP98EKeMghh8grr7yi08Bg97DAtDGwJKJAX2DpOgFbFcAbbrhB/vjHP7aRGmbl3/3udzpUvM1FniABErCVgLEANlSXaTmwpow/1mydki53jjlr3rpGyuqUFVcVKoBdRpj0N2DHLkT5Bhas8cMrsMyfP19/7Nu3r7zwwguBl1odYys4vEyBEgi3cmCBtZElcgRsDQKBAnj//fe3Gg2Uv9/85jeWabfVRX4gARKwnYBRABsDFEDbhaIAXSJgAkEqlBUQhQpgl/CxMgkkBAFbLYDw8x944IGCnEK/+tWvdKJI5AuCmXjhwoUJAZiDIIFEI2CigFsYABK3U5vq3w2kvKFWj6GYLvy4nUsKTgLdJWCrArjbbrvJP//5T50dHBFFsAauXLlSK38wF7OQAAk4j0Bxjm8fb69/L1mjTDhPUkrUHgFjASxvatBVaAFsjxTPk0DiErDVBQysv/zlLwWRQ8ccc4yOEsL+glT+EveB48jinwASQaOk1PvWjxllIv5HljwjMHNW0dKkB00FMHnmniMlAUMg5hbAo48+2vTd6h0JILE5NPYONOX55583h3wnARJwCAHjAk5r8CuA3AXEITMTvhhmO7gK5HFLTVVrABnFHT491iSBxCAQcwUQ6/1CFYR7s5AACTifgAkCyWiq0sIaa5LzJaeEhoCZs0p/+gxaAA0ZvpNA8hCIuQIYHCKePKg5UhJIDALGApjn9kWQMgl0/M2rmbNKtQcwSjETQcffJFJiEughAVvXAGKz6Lq6OmsISPB488036+1frJM8IAEScBSBvEyXuFJTpNDr20fWWJMcJSSF6ZAA5qxZKX81qT4bAC2AHeLiRRJISAK2KoBHHHGEDgAB2crKSr0J9I033ig4f+eddyYkcA6KBOKdAJI+ww1c6DEWwJJ4H1LSyQ8FcFtapjXuoows65gHJEACyUHAVgVwyZIlsvfee2vSzz33nPTr109v84Ko4FtvvTU5ZoCjJIE4JIBI4AJjAWQQSNzNIIJAqtJ8Sl9hepakpbribgwUOLEIYBcQ7ukb2zm1VQGE+zc/P1+P+PXXXxdECKeqiLQ99tij1X5/sUXC3kiABDojgHWAhR66gDvj5NTrsABWK8UPpYTWP6dOk6Pl2nfffeW8886LmYxvv/229g72799f7wsMZfHxxx+PWf+J2JGtCuDIkSPlxRdflHXr1slrr72mdwUB5M2bN0tBQUEi8uaYSCAhCJRmeSVHfEmETUBBQgwsSQaRonb+qMrM06MtSvPldUySoXOYcUrgww8/lPHjx+vNI7788kuZNWuWnHjiifLSSy/F6YjsF9tWBXDevHly0UUXybBhw2T33XeXPffcUxOBNXDixIn206EEJEACIQn0T6/X572SIqnZoVM7hbyRJx1BAOs4t+X20rIU0/3riDmJJyFOOukkwaYNt9xyi+BZwuv777+XU045RYYPHy7Z2dkyevRofT1wXLDiTZ48WVvwkPd36tSp7Xr70N52220nZ511lnhVuqJLL71UrrrqKpkyZYqMGDFCzj33XDn44IOF+YIDCXftOOZpYALFw/6/e+21l2zYsEEmTJhgXdp///3lqKOOsj7zgARIwFkE+rp8CmBTRoGkqGUbLPFHYFtOsRa6SH15s5BAVwhA8fvuu+9k3LhxcuWVV+pbi4uLZdCgQfLss89Kr169BBY7bOwAl+2xxx4rLS0tetvX2bNny5NPPilNTU3yySefaOUxuG9Y+JAbGArl1VdfHXzZ+lxVVSVjxoyxPvOgawRsVQAhKgI/8Aos+IXAQgIk4FwCpSm1Wrj6dFr/nDtLHUtWle1bZlMkajcQFkcQgKXL2/RzarRYCpWickHCkhdOwYYOGRkZkpOT0+r7+4orrrBuhyVw0aJF8swzz2gFsLq6WqCwHXroodqCh4qhlDcojqhz2WWXyYUXXmi1F3yAdhcvXix333138CV+DpOA7Qrgp59+qh+QtWvX6l8EgXLTtBtIg8ck4BwCvVJ8X1I1Ll8Ql3MkoyThEtiWkaurFrlbwr2F9aJMAMrfstN8azOj3FWb5ne4p0ZSMn3PRJuLYZ6444475IEHHhB8nyPPL6x8JrK3pKRE4DqGZe+AAw6QadOmacUQFkJTcB+uXXPNNR0GmCxcuFCvAbz33ntlxx13NLfzvYsEbPXdPPXUU9qfv3TpUnnhhRekublZvvnmG3nrrbekvS3jujg+VicBEogCgULx5QDclmLPl1UUhpR0TVal+/b/LXA3Jt3YOeDIE8D3Odb0w22Ldfyff/65VtKgBJqCncBgFcQ6vqefflq23357+eijj8xlKS0t1WsE4SKGxTBUwdrDww47TP7+97/rIJBQdXguPAK2WgCvvfZaPYlz5szR6WCwrgBm49NPP12vGwhvCKxFAiQQawIF/m3gKqgAxhp9xPqrQiJoj0iBTS7HiA0kgRqCGxaWODsK+u5KgQvY7f55+cAHH3ygFbszzzzTagaBHMEFAZ54XXLJJTrw84knntCp31APwSOI6p0xY4a2FEKRNKnicB1BJHAP//Wvf9XrC3GOpfsEbLUA4uE45JBDtPR4mGpra/UahPPPP1/uueee7o+Kd5IACUSVQK7b9+u8zNszl1FUhWTjHRKoTPH9/i9stEfh6FC4JL2INXipyg1rxyvc9X9maoap7B0ff/yxrF69WrZu3SqjRo0SLOlCSjcEiMydO1ev0TP1V61apZU+WACx7SuUuxUrVrRZB5ibmysvv/yypKWlyfTp06Wmxvd8wu0LfeGcc86RY445RjZu3Khf5eXlpgu+d5GArQogooa2bfO5kgYOHChff/21Fh/bwgXuEdzFMbE6CZBAlAlkNfv+brd4qABGGXXUmq9UewGjFNSHdrVFrWM2nBAE4O51uVwyduxY7brF2j5s5nDcccfptG5lZWUSaA1EwMiyZcu08gbXLyKE4f2Dxy+45OXlyauvvqrTv0Dpg3Ho4Ycf1nrB/PnztYcQawfxQp8s3SOQoqKOvN27tft3nXzyyTo/ECZ+1113lQsuuEDn97ntttt0pu833nhDJk2a5Pj8PlijgLWKiGxi4uruPw+8M/4IfH/bcdL46TPy19xT5P7b7pE0l62/JeMPoAMkLn3kYtmqAkAWbP1WDvrjKw6QKPlEaGhoEFjGsPQpK4v7MUf6CeiIL7+/RWxZAwhN/rrrrpPbb79dMEEoCPlOT0/XuYNg3v3zn/8c6WeB7ZEACUSIgKuhUrdUpdYAVtY3S+88tZ6MJW4I4Hd/hX/9Vl5tWdzITUFJgAQiR8AWBdAYHREWbgr2AL744ovNR76TAAk4mICntkJLV5WSL+VUAB08U6FF29bcqLL/+Zw/+dWbQ1fiWRIggYQmYIsCCKJY+9eZyZtu1YR+9ji4OCbgrvUtvK5KzZPyuuY4Hklyil7e6MvjmOlulvSaLckJgaMmgSQnYJsCiEWg7RVYCBGRFBhi3l5dnicBEog9gVYWwLqf83zFXhL22B0CRgEsbGkQb2OteFuaJCUtoztN8R4SIIE4JWCbAvjcc89JoAs4TvlRbBJIOgJej0fcdT4XcLWyAFbQAhh3z0BFk28v50LlCkZxK5d+WmHfuBsHBSYBEug+AdsUwKlTp0qfPn26LznvJAESsIWAp75KVH4G3TeCQOgCtmUaetSpsQAWeH3bwMGlTwWwR0h5MwnEHQHmboi7KaPAJGAvAXeNb/1fkytbmlPSlQJIF7C9M9L13o0CWORX5M2cdr0l3kECJBCvBGxRAIcOHaoTSMYrNMpNAslMwLh/mzMLNQZEAbPEF4Fy//ZvxakpWnAT1BNfo6C0JEACPSFgiwsYiS9ZSIAE4pOAsRa5M4v0ALgGMP7m0VgAi12+rwAqgPE3h5SYBHpKwBYLYE+F5v0kQAL2ETDKgjfbpwDSBWzfXHS354pGXxBIsT/yF0EgLCRgJ4G//OUvsvPOO9spQtL1TQUw6aacAyaBnhEwCmBqri+RO4NAesbTjrstC2CGb/sxM6d2yMI+45PAvvvuK+edd17MhF++fLnst99+0rdvX51DeLvtttM7hjU3cwlKdyfBFhdwd4XlfSRAAvYTMC7gtDylACrDES2A9s9JVyUwawBLsnL1rWZOu9oO65NArAhgq9gTTzxRJk2aJEVFRfLFF1/I7NmzxaPSUl177bWxEiOh+om5BRC5/7Zu3aohnnzyyXpHkIQiysGQQIITMEEgmQW99EgZBBJ/E17udwH3yi7QwtMCGH9zaKfEJ510krzzzjtyyy236E0bsHHD999/L6eccooMHz5csrOzZfTo0fp6oJxvv/22TJ48WXJzc7USh3Rwa9asCaxiHaM9WPnOOusslXXKq49nzZolEyZMEASSHn744XLCCSfIe++9Z93Dg64RiLkFsKmpSaqrq6V3797y8MMPy1//+lfJz8/vmtSsTQIkYBsBYy3KzvcpgAgCMbv32CYUO+4SAeMC7pVbrO+jAtglfFGrjL+jOrUrix0lR60HhSIXToHi991338m4cePkyiuv1LcUFxfLoEGD5Nlnn5VevXrJhx9+KKeddpr0799fjj32WGlpaZEjjzxSW+2efPJJgS7wySefhOzzyy+/lIMOOkgrlFdffXVIkVauXCkLFiyQo48+OuR1nuycQMwVwD333FM/BLvssov+0jjnnHP0r4VQoj7wwAOhTvMcCZCAjQSMspBX3FtL0eLxSk2jW/KzYv6/ExspxHfXFf40MD8rgAwCccKMQvnLe+wyW0Sp+d01kpueGVbfhYWFkpGRITk5OdKvXz/rniuuuMI6hiVw0aJF8swzz2gFEIafqqoqOfTQQ2XEiBG63pgxY6z65gCKI+pcdtllcuGFF5rT1vuUKVNkyZIl0tjYqBVMo4BaFXgQNoGYu4Afe+wxmTFjhtTU1GjNHw9ERUVFyFfYo2BFEiCBmBEwCmBWQW/JTPP9L4TrAGOGv8cdNbQ0KyuTb+F8r8JS3Z5H7QTCQgI9JXDHHXcIjDulpaWSl5cn99xzj6xdu1Y3i+VfcB3DsnfYYYdp9/CGDRtadYm6BxxwgMybNy+k8ofKTz/9tFYAn3jiCXn55Zflb3/7W6s2+CF8AjH/yY4Inuuuu05LiF8Ijz76qDYXhy8ya5IACdhJwOPfCSQtr5eU5LTIhupGvR3cUF9QsJ2ise8wCJh9gFOVu6+4oK9UqnuMWz+M21kligTghoUlzo6CvntSnnrqKbnooovkxhtvFHj6sLTrhhtukI8//thq9sEHHxR4/eC6hSL35z//Wd544w3ZY489dB0ojgMGDBC4iBEjUFDgW6NqNaAOBg8erD+OHTtW3G63tgLCUuhyuQKr8TgMAjFXAANlYkLoQBo8JoH4IGCCQFLV+rGSnCqtAFZwN5D4mDwlpVn/V5yRLelKiUfBnHpVNGVKasydQrp//uMjgDV44bph7WYGFzAUMFM++OADgXv2zDPPNKd0YIj1wX8wceJEweuSSy7RiiIseUYBRPDISy+9pL2EsBS+/vrrHcYIIAIYaWDwTgUwmHTnn23/a0ckEczBI0eO1C9E9jCqp/OJYw0SsIMAFqkbF7BL5QEszk7XYtAFbMdsdK9PowCWZOYIlHhd1Lx66qu61yDvSkoCw4YN09a91atX68weo0aNkk8//VRee+01HSAyd+5cWbx4scUGBh8ofVgXiMhfKHcrVqyQ4HWAiBCGazctLU2mT5+ul4uhkccff1yvJ1y6dKn88MMP+hjtHXfccYIUMSxdJ2CrAoj1gNOmTdMLSWEWNgEh+++/v+BXAQsJkICzCHib6sXb3KiFcmkLoFEAmYzVWTPVvjTGBawVQLXoPyUjR1fmbiDtM+OVtgTg7oXVDa5YuG5hsUNELhSy3XffXcrKylpZAxEwsmzZMjnmmGNk++23167bOXPmyOmnn96mcawffPXVV3Wg6CGHHCK1tbVaIUTWEKSRGT9+vCDgBCli7rvvvjb380R4BFLUL3pveFUjXwuaP8LEzz///FaN33TTTXLvvfcKNH0nF0Q1IRoKgSyh1io4WXbKRgLdIdBc/qOsOF+twVF7yI65v0lOfvoLeWjxOpk/Ywe5eP9R3WmS98SYwEMrFsus95+WgweOllcPnC3fqflsUfM6/C+LJXv4rjGWJrm7a2hoEFjGsB4+K8u3K0tyE4ns6Dviy+9vEVstgDDjwv0bXOAG5vrAYCr8TAL2EzDBAnD/Yr1SSQ4tgPbPStckCHQB407MJYqZW/2B/5AACSQ8AVsVQETzvPnmm20g//e//7Uifdpc5AkSIAHbCLhry3TfLn/wgFkDyCAQ26akyx23qwAyFUyXWfIGEohnArZGASN0G+v+Pv/8cx09BJCIJHrooYfabCETz5ApOwkkCgFjJTJWo5IcX+oIBoHEzwxb+wCrIBAUF/Z0VsUE9+gP/IcESCDhCdhqAfzDH/4gyB301VdfyXnnnadfX3/9tc4PFGphaGezgSSUiEzCWgosQsU2M+EUyAB3FrapYSEBEmifgFESflYA6QJun5Yzr5h9gJEGBsWVY7aD424gzpwxSkUC0SFgqwUQQzrqqKP0q6fDQ1LJCy64QO666y6t/N188806Kmn58uXSp0+fdptHCDuimfbee+926/ACCZCAj4C7prULmGsA4+/JMC7gXpm5WnhaAONvDikxCUSCgK0WwEgMwLSByOHZs2fLrFmzdFg6FEGEnXe0nzCSWJ5wwgk6nHy77bYzTfGdBEigHQKWBdDvNjQu4Ip6ezawb0dMnu6AQFljrb5akum3ADIIpANasblkYzKO2AzQpl7ItWPwCaEANjU1yWeffaZzCprhpqqM9sgxiKST7RVsIg3r4CmnnNJeFZ4nARIIIBC8BtAEgZTXMQ9gACZHH7axABoFkEEgMZ83k8C4rq4u5n0nQ4eGq+GcDGPuyhhtdwF3Rdj26m7dulVvSYN9hgMLPiPxZKjy/vvvy/33368DUEJdD3WusbFR8DIFeYRYSCCZCFguYL/SYFzAtU1uaWxxS2Ya9+N0+vNQ1uhTNnoxCMT2qUIi5aKiItm8ebOWBV4rrEdn6RkBWP6g/IEr+HKbuNA8E0IBDD209s9u27ZNfv/73+tk0717926/YtCV+fPna3dx0Gl+JIGkIfCzC9i3h2xhVrr6whKVsV+kQlkB+xVQAXTyw9Dsccs2/04u2AkEJdUfBOKpZRCIHXPXr18/3a1RAu2QIVH7hPJn+CbqGHsyLlsVwIULF8p+++3XE/n1vVDioOFv2rSpVVv4HGryv//+e0HwR2ASamwmjYL9BxE4MmLEiFZt4QP2HUSgiSmwACKXIQsJJAuBnxVAX+qQ1NQUvR8wXMB49SvgbgZOfhaM+zdFUqTIRAEzDYytUwaLX//+/fVypOZmLqWI1GTA7UvLX8c0bVUADz74YBk0aJAO3Jg5c2a3lamMjAzZZZdddFJpk8oFCh2STGOvwOCyww476NQzgef//Oc/CyyDt9xyS7tyZGZmCl4sJJCsBILXAIID1gFC+WMyaOc/FSYApCgjS1xqnTSKSekD5R6uM7og7ZlHKCtUWOxhn6y92hoEsn79eq2gPffcc4IoXGwm/cwzzwiCOrpaYJnD/sEPP/yw3kMYOQaxgTSiglFOPPFEbcHDMfIEjhs3rtULpuL8/Hx9DgolCwmQQGsCUA6CdwJBDRMJzGTQrXk58ZPJAWhSwEBGowB6lWvY21TvRLEpEwmQQBQI2KoAwnV7/vnn60CMjz/+WLbffns588wzZcCAAXqHkC+++CLsIR933HHyt7/9TebNmyc777yzbnPBggViAkPWrl0rGzZsCLs9ViQBEmhNAMoBlAQUozTg2ASCMBIYNJxdyhpap4CBtKlZeWpCfc4g4+J39igoHQmQQCQI2OoCDhzApEmT9Hq9Xr16yXXXXafz9/3jH/+QPffcUyd33nHHHQOrhzyGuzeUyxeV33777ZD3mJPYfo6FBEigfQKWcqCUBa00+KvSAtg+M6ddMdvABVoA4fLFbiDubVuUhbdC0ksGOU1sykMCJBAFArZaADEeLHqFC3jGjBkydOhQee211+T222/XAR0rV67U5379619HYehskgRIoCsEAlPABK4TowWwKxTtrVvW4EsBYyKAjTTcDcSQ4DsJJA8BWy2AZ599tjz55JN64THSslx//fV6DZ7Bn5ubq926cAmzkAAJ2EvAWABdeb4UMEYakwyaQSCGiHPff7YA+lLAGEmNS98E+ZjzfCcBEkhcArYqgN9++63cdtttcvTRR7cbXYt1gkgXw0ICJGAvAaMcGGXBSEMLoCHh/HdjAeyV1Y4CyN1AnD+JlJAEIkTAVhfw5ZdfLnDvBqdWaWlpkXfffVcPEXn59tlnnwgNl82QAAl0l4BlAfTvAmLa4RpAQ8L57yYNTEkGFUDnzxYlJIHoErBVAUQS6PLy8jYjrKqqikiC6DYN8wQJkEC3CVhrAINcwLQAdhtpzG80iaB7ZeW26tuVW6w/IwiEhQRIIDkI2KoAtpd0tKysTLD+j4UESMA5BCwLoH/nCCMZ1wAaEs5/N/sAtwkC8Vt1PXQBO38SKSEJRIiALWsAseYPBZGEJ510UisXsNvtli+//FKmTJkSoSGyGRIggUgQaH8NoC9xOhNBR4JydNuwLID+fYBNb1YUcE1bj4ypw3cSIIHEImCLAlhYWKgpwgKI3Teys7MtqtiFY4899pDZs2db53hAAiRgPwHLBdxmDWC6Fg5RwB6PV7A/MIszCXRmATRWXmdKT6lIgAQiScAWBfDBBx/UYxg2bJhcdNFFdPdGckbZFglEiYBRDtqkgcnxKYDq95xUNTRLcQ63UozSFPSo2fqWZql3N+s2egVZAFP9Sr2Z4x51xJtJgATigoCtawARBcy1fnHxnFBIElC7RPjcg8ZdaJBkprkkN8OlP3I7OEPFee/G/etKSZWC9KxWAjIIpBUOfiCBpCAQcwsgtnx78803pbi4WCZOnKjXAbZHesmSJe1d4nkSIIEYE2jPBQwxEAhS2+QWJoOO8aR0oTsrBUxmdpv/7xql3ij5XWiWVUmABOKUQMwVwCOOOMIK+jjyyCPjFBvFJoHkIoD1ukY5CHYBgwRyAf5Y1SAMBHHuc2EsgIH7ABtpTXJvT321eJWrOCXN59Y31/lOAiSQeARirgDC7WtK4LE5x3cSIAHnEfA21Yu3uVELZpSFQCmZCzCQhjOP2wsAgbSunCJLaHddpaQVlFqfeUACJJCYBGxdA5iYSDkqEkg8Asb6J640Sc3KazNAKoBtkDjuxM8WwNa7gEDQFMxrji87gzXXjhsBBSIBEogkgZhbALH2D/n/wimhdgkJ5z7WIQESiCyBwPV/of5+i7N9kb8V9U2R7ZitRYxARxZAdOLKKRZPXZVy9XM3kIhBZ0Mk4GACMVcAb775ZgfjoGgkQAKhCBirUKj1f6hPC2Aoas4615EFEJLCtd+8dbW11tNZ0lMaEiCBSBOIuQI4c+bMSI+B7ZEACUSZQKAFMFRXVABDUXHWOWMBDBUEAkmtSGDuBuKsiaM0JBAlAjFXAKurq6WgoEAPB8cdFVOvozq8RgIkEH0CLdVbdCdp+aGDAxAFjMIoYI3Bkf8EpoEJJaAJ7jHW3lB1eI4ESCBxCMRcAcQawA0bNkifPn2kqKgo5HpApJzAOiPsC8xCAiRgPwF3zVYthCu/d0hhaAEMicVRJ392AeeGlIsKYEgsPEkCCUsg5grgW2+9JSUlJRrowoULExYsB0YCiUTAvc1nAXS1YwFEImgUJoJ27qwbF3BJ0DZwRuLU3GJ96GEQiEHCdxJIaAIxVwD32WcfC2jgsXWSByRAAo4j0LLNZwFMa9cC6HMBl9UyCthxk+cXqDMFkBZAp84c5SKB6BCIuQIYPIyKigq5//77ZenSpfrS2LFjZdasWZaVMLg+P5MACcSeQGcWwN65fgWwrknMEo7YS8ke2yOAOSlrqNWXS7PacQHn+TwzXAPYHkWeJ4HEImBrIuh3331Xhg0bJrfeeqtAEcQLx8OHDxdcYyEBEnAGAbffAujKC70GsDTPpwA2u71S1dDiDKEphUWgUu3k0uL16M+lIRJ540JaXi993Vh79Qf+QwIkkLAEbLUAzpkzR477//bOBE6q4tr/Z7pn3wdmYGBm2GRT2WQVXDBqcEuUaCJBfa7JP4tr8JkoUdH4V9QXfZiIKGrMS5Q/JrgQETcwuMIDQQFRRvYZGIaZAWbfevvXqe7b081Mz3RP375b/4pP0/fWrVvn1LfudJ8+VXVqzhxasmQJ2e12CZkXfvz6178mvrZ9+3bLgkfDQMBMBJy+OYChtghLTbJTZoqdGttcVN3YRrm+OYFmaqOVda32ef+yklIoRez60VVS5ncq3t6uyiAPBEDAOgR09QDu3r2b7rzzTr/xx1jZEJw3bx7xNSQQAAH9CfDwoX8VcAgPIGtZkJEila1uxDxA/XstWIPq1kaZEcr7xxdhAAYzwxkIWJ2ArgbgxIkT/XP/AkHzfMDx48cHZuEYBEBAJwJuYTx4HG1SeigPIF9UhoGrsRBEp54KLVbxAIaa/8d3KjEeub/d7a2hK8MVEAABSxDoeiwghk3btm2bv/bbbruNbr/9duntO/3002X+hg0baPHixfToo4/6y+EABEBAPwKK9y8hKZUSktNDKlLgWwjCQ8BIxiLQ4QHsegEIa2tLzxFuQBHOx+UgHga29S0xViOgDQiAgKoENDcAJ0yYIIM887CSkn77298qh/73q666Ss4P9GfgAARAQBcCLt8uIDxEyAHaQ6WCTN8QMDyAoRDplt/hAcwMqQP3LXsBnbUV5KyvoiQYgCFZ4QIIWIGA5gbgvn37rMANbQCBuCHg9O0CEioGoAKiwwOIOYAKE6O8+z2AKaE9gKyrPdtrAGIhiFF6DnqAQOwIaG4ADh48OHatQc0gAAKqE1CMAWWRQCgBHXMAMQQcipFe+eF4AFk39gBy7ymrvvXSF3JBAARiT0BzA7CrJn3zzTdUVlZG7e3BnoNLL720q+LIAwEQ0JCAPwZgiF1AFFWwClghYbx3vwcwRBBoRWPFyFeMfiUf7yAAAtYjoKsBuHfvXvrRj34k4/3x/BNlXqAyz4hjAiKBAAjoS0DxBimrRENp0+EBDP4hF6o88rUjUBVGGBjWRuljp2/ep3YaQhIIgIDWBHQNA8MrgHnXj6qqKkpPT6cdO3bIHUAmT55M69at05oF5IEACHRBwO8B7CYGIN/mNwCxCrgLivpmdQwB9zQHsJ9U1NVQpa/CkA4CIBBzArp6ANevX08ffvgh5efnk81mk68zzzyTFi5cSBwi5ssvv4w5AAgAARDonoDfAygWCHSXlCHgKhEImr35iie/u3twLfYEuC86hoBDrwJmTeABjH1/QAIIGIWArh5AHuLNysqSLNgIrKiokMe8UKS0tNQojKAHCMQ1gXA9gP18+wG3Od1yS7i4hmagxjeIIN7tbu90mu4CQbPKmANooI6DKiAQYwK6egDHjBlDW7dulcPA06ZNo8cff5ySk5Np6dKlNGzYsBg3HdWDAAiEQ0BZEKAYB6HuyUhJpLQkG7U43FTd1EZZqbp+vIRSM+7yFe9femISZYi9gLtLyk4vite3u7K4BgIgYG4CunoA7733XnK73ZLgH/7wB+IYgWeddRatXr2a/vSnP5mbLLQHAYsQCDcOIDfXHwwa+wEbpvc75v91P/zLCtuzlTmA1YbRH4qAAAjEhoCuP9EvuOACf6uGDx9OO3fupGPHjlFeXh7mD/nJ4AAE9CPgcTrI3XRcKtCTB5ALcTDosuMtwgOIlcD69VqwZMUD2NPwL9+lzAF0t9STWwwd23rwGAZLwhkIgICZCOhqAAaCKi8vl6clJdh/MpALjkFATwKupmNe8SJMkz0jr0dVsBK4R0SaF/B7AFN69gDa0nOFG1B8Lbic3v2A+xRrri8EggAIaENA1yFgp9NJ9913H+Xk5NCQIUPki495aNjhcGhDAFJAAARCEnDWHZHX7Jl9KYENgx6SshK4GkPAPZDS7nIkHkC5H7Av3A/mAWrXR5AEAnoQ6PkTPYZa3XrrrfT666/LxR/Tp0+Xkjg0zAMPPEBHjx6lJUuWxFA6qgYBEOiJgLPeawAm5hT2VFRe93sAMQQcFi8tCvk9gKk9ewBZH54H6KyrJBeCQWvRPZABAroR0NUAXLZsGS1fvpwuuugiP4Bx48YRDwPPnTsXBqCfCg5AQB8CbAhwSszuH5YCPAeQUzWCQYfFS4tCkXgAWR+eB8j7ASurv7XQETJAAAS0J6DrEHBKSooc9j2x2bw7CIeDQQIBENCXgH8IOCdMAzDTG2YEi0D07bdA6RF7AIUByMlZj91AAjniGASsRkBXA/CWW26hhx56iNra+PemN/Hxww8/THwNCQRAQF8CLmUIOEwPYGGW1wCsbOj4m9a3BZB+pLVBQihM8wbd74kIYgH2RAjXQcAaBDQfAr788suDyK1Zs4aKi4tp/PjxMp8DQ7e3t9N5550XVA4nIAAC2hNQPIDhzgH0G4D1MAC1762uJVa2RGYA2n3GvmL8d10rckEABMxOQHMDkFf5BqYrrrgi8FTO/wvKwAkIgIBuBPxzAMMcAh6QnSp1PSLmALrcHrLbEnTTHYKJ3B43HWlplCgK08P0APoW/Ch9D44gAALWJKC5AfjSSy9ZkyRaBQIWJOBfBRzmEDDvB5wgbD42/mrESuD+viFhC6IxRZOOtjWTSxiBCeJfQZirgBNzB8i2OWu9C4BM0VAoCQIgEDEBzQ3ArjSsrq6m0tJSeWnUqFFUUOCdhNxVWeSBAAhoR8BvAIYZBibRbpO7gVSJOICVDa0wALXrqi4lVTZ7h3/zU9MpyWbvssyJmcpwv7Pu8ImXcA4CIGAhArouAmlqaqIbb7yRBgwYQGeffbZ8DRw4kG666SZqbm62EGY0BQTMR8DjdvljwdnDHALmVhZmeYeBD2MeoO6d3jH/LztsXfwGoFgFzM8AEgiAgDUJ6GoAzps3jz766CN66623qLa2Vr5Wrlwp8+68805rEkerQMAkBFwNNSQsAOIxXWWP2HBUH5DtWwkMAzAcXDEt02EAhjf/j5VJFIGg5Tg+/wBoPBpT/VA5CICAfgR0HQJ+7bXXaMWKFXTOOef4CVx88cWUlpZGV155JQJB+6ngAAS0J6CsALaLrcHC2QZO0VBZCXxYDAEj6UugsqVeKhBuCBguzH1tF7EAXcIDyPMApUGobzMgHQRAIAYEdPUA8jBv//6dA8z269cPQ8Ax6GxUCQKREOiY/9f5b7S7epSVwIgF2B0lba71xgPImvmHgTEPUJuOghQQ0IGArgYg7/+7YMECam3t8BS0tLTQgw8+SMrewDowgUgQAAFBQAkDEu42cAo0vwewvuPvWrmGd20JRG8AYiWwtj0GaSCgHQFdh4AXLVpEF154YadA0KmpqfTee+9pRwGSQAAEOhHwDwFHsACEK1E8gFgE0gmp5hm9NgCVUDC+vaA1VxwCQQAEYk5AVwNw7NixtGvXLnrllVdo586dsrFz586lq6++Ws4DjHnrIQAEQCAkAWdthbyWlDswZJmuLvgXgWA7uK7waJrXawNQCQZdi1AwmnYYhIGAhgR0MwAdDgeNHj2aVq1aRT//+c81bDJEgQAIhEPAefyQLJaYVxROcX8ZDAH7Ueh+4DcAw9wFRFG4Yw4ghoAVJngHAasR0G0OYFJSUtDcP6uBRXtAwOwEHD4PYGLEHkBvHMCmdhc1tjnNjsG0+re7nHRM7ATCqTAt/DiAXN6/GwiGgBkHEghYkoBuBiDTvPnmm+mxxx4jp1OdL4nFixfTkCFDiOcQTps2jTZu3Biy055//nk666yzKC8vT77OP//8bsuHrAgXQMCiBBQPYFKEHsDMlETKSPbuOnEYC0F0ezoO+0LAJIsdQPKS0yLSAx7AiHChMAiYkoBuQ8BMa9OmTbR27Vp6//33iecDZmRkBEF8/fXXg867O3n11VeJA0s/++yz0vjjBSYXXHCB3GKOw8qcmNatW0c833DGjBnSYGRDdNasWbRjxw4qKopsyOvEunEOAmYn4PF4RAw47xzASIeAue28EGR3TZPYDq6NRhRkmh2HKfU/2FQn9S7OyBVxncUGzREkvwfQNw0ggltRFARAwCQEdDUAc3Nz6YorrlAF1ZNPPinnEt5www2yPjYE3377bfrLX/5Cd999dycZvPAkML3wwgvEganZIL322msDL+EYBOKOgKvpGHkcbbLdijEQCQSeB8gGIFYCR0JN3bKKAViUHtnwL2uheH3drY3kEp5Ee4RDyOq2BLWBAAjEgoCuBuBLL72kSpva29tp8+bNdM899/jrs9lsxMO669ev9+d1d8BBqXlhSp8+fUIWa2trI34pqb7eG2VfOcc7CFiFgPOYdwGIPSufbEnerd0iaVvHSmDEAoyEm5plDzV3eAAjrdeWkkG2jDxyNx0n57GDZC86JdIqUB4EQMDgBHSZA+h2u+XcvzPOOIOmTJkiPXQcALq3qaamhlwuV6ddRXiXkcrK8Fax/e53v6OBAwdKozGUHgsXLqScnBz/q6SkJFRR5IOAqQn4h38jXACiNFqJBVhR1/GDSbmGd20IHPQZgL3xALKGSXnFUlGHMACRQAAErEdAFwPw4Ycfpvnz51NmZqacb/fUU0/JBSF64X300Udp+fLl9MYbb8j5gKH0YA9jXV2d/1VeXh6qKPJBwNQEHL65X8pQYKSNKc7xrgQur+39D7tIZaJ8MIFDyhzA9NzgC2GeJfXxGYDHYQCGiQzFQMBUBHQZAv7b3/5GzzzzDP3iF7+QsNasWUOXXHIJ8Tw8HrqNNOXn55PdbqcjR44E3crnhYWFQXknnvzxj38kNgBZh3Hjxp14Oeg8JSWF+IUEAlYn4PcARrgCWOFSkutddVpeBwNQYaL1u98DmBH5HEDWNdHnAeQhYCQQAAHrEYjc2lKBQVlZGV188cX+mniuHq9Sq6jwrjr0XwjzIDk5mSZNmiQXcCi38DAzL+jobk/hxx9/nB566CF69913afLkycqteAeBuCeghICJNAagAs5vAMIDqCDR/P1gU62UWdxbD6DP+McQsOZdB4EgoAkBXTyAHPePY/UFJg4MzYsweps4BMx1110nDbmpU6cSh4FpamoiZVUwr+zl8C48j48Th325//77admyZTJ2oDJXkIel+YUEAvFMINoh4JJc79/3obpWcrs9wrMfWRiSeGavRtvdHjdVNHsXqRVn5PSqykTfELATQ8C94oebQMDoBHQxADnG2PXXXx80nNra2kq//OUvg2IBRhIHcM6cOVRdXS2NOjbmJkyYID17vBCEE3sdA4eXlyxZQrx6+Mc//nFQHy1YsIAeeOCBoDycgEC8EfB7APMi2wdY4TRQxAFkm8/h8tCRxjYZF1C5hvfYE6hqaSSnMAJtYmSlMC2rVwL9cwAxBNwrfrgJBIxOQBcDkD11J6ZrrrnmxKyIz2+55RbiV1eJAz8Hpv379wee4hgEQCCAgONomTxL6jMoIDf8w0S7TRp97AHkhSDKquDwa0DJaAgo8//Y+EsUO4H0JilzAB3wAPYGH+4BAcMT0MUAVCv+n+HpQkEQMCEBd1sTuRqPSs2T8gf3ugU8D1AxAKcOyut1PbgxcgLKCuCi9N4N/7JExQPIsQD5meDYgEggAALWIaDLIhDr4ENLQMB6BBw1B2SjbMJ4sEdhQCjzAMtrEQxa66ek3LcAJBoD0CZ2/7CleudDK3NCtW4H5IEACMSOAAzA2LFFzSBgSgLtPgMwqW/vvX/ccKwE1q/7DwivHachmb33vHJkBv8w8FHEPNWvNyEZBGJDAAZgbLiiVhAwLQHHUa8HEAagabuQ9jcqBmDorS3DaZ0yBcBRsz+c4igDAiBgIgIwAE3UWVAVBLQgoAwBK1/+vZWJIeDekov+vv2Nx2Ql0XgAuYLk/KGyHhiAEgP+AwFLEYABaKnuRGNAIHoCHR7A3q0AVjQYlJsuD8uOYzcQhYlW7/sbvB7AoVlRegALhkiVHdX7tFIdckAABDQiAANQI9AQAwJmIeD3AEY5B3BYX68BWFHfSq0Ol1mab3o9Gx1tVCNW7XIaHMUcQL4/yecBbIcByDiQQMBSBGAAWqo70RgQiJ6A3wMYRQgY1qJPehJlp3ojTe0/1hy9YqghLALK8G9echrliFc0KbkAQ8DR8MO9IGBkAjAAjdw70A0ENCbgcbaTs9a7J3dylB5AXkU6rI/XC7jnKAxArbpSrQUgrG9S/hCpNj8T7naE85Ew8B8IWIQADECLdCSaAQJqEHDwtl9iq8aEpBSyZ/eLukplGHgvDMCoWYZbwf4GdRaAsDx7Vj4l+AJAO46VhasCyoEACJiAAAxAE3QSVAQBrQi0V+2RonjuV4It+o+HYX29u0fsPeadk6ZVO+JZjuIBjHYBCDNkL65/GBjzAOP5sULbLUgg+k94C0JBk0AgXgm0H9ktm57cf4QqCOABVAVjRJUocwCHZEa3AlgRqgwDIxSMQgTvIGANAjAArdGPaAUIqEKg/cguWU9y/+Gq1KfMAcQQsCo4w6pkr4pDwCxQ8QBiJXBY+FEIBExDAAagaboKioJA7AnEzAMoVgF7xNxCpNgSYMbf1VdLISNzClQRllQwTNajPBuqVIpKQAAEdCcAA1D3LoACIGAcAn4PYKE6Q8CD89LFPDKi5nYXVTW2G6ehFtXkcEs9NYmV3PYEGw1VaQg4uXCkpNVe+Z1FqaFZIBCfBGAAxme/o9Ug0ImAx+0iR/VemZ/cT50h4OREG5XkemPR7a7BQpBO0FXOKK3zev+GiR1Aku3eGIzRikgpHCWr4B8HHrc72upwPwiAgEEIwAA0SEdADRDQm4DjaDlxHMCExGRK6luimjqjCrwrgUurGlWrExV1TeA7nwE4Mlud4V+WkiS2g+NnwuNoJcfRsq4FIxcEQMB0BGAAmq7LoDAIxIaAMvzLc74SbHbVhIzulyXr+hYGoGpMQ1Wk9vw/lsPPguIRbq8sDSUa+SAAAiYjAAPQZB0GdUEgVgQUA1CtEDCKnif3z5SHO2EAKkhi9q4MAY/MzldVRvIA7zBw22EYgKqCRWUgoCMBGIA6wodoEDASgXbfl3uySgtAlLaN7uc1AL890qBk4T1GBBQP4Kic6HdxCVSxYyEIDMBALjgGATMTgAFo5t6D7iCgIoG2QztkbalFY1SslehknwG4T4SCaXW4VK0blXUQcIhFPEoMQDXnALIE/0IQeAA7gOMIBExOAAagyTsQ6oOAWgRaD30tq0opVtcA7J+VQrlpSeQWYQB3YSWwWt3VqZ499UfJ5XFThliwMTA9u9P1aDL8Q8CYAxgNRtwLAoYiAAPQUN0BZUBAHwJOETzYVXdECk8pOkVVJXg/2Y5hYKwEVhVuQGXbjlfIszF5hXIP34BLUR+mDDxZ1uE8dpBczXVR14cKQAAE9CcAA1D/PoAGIKA7AWX4N6lgKNlSvGFb1FRKGQbGPEA1qQbXte3YYZkxLm9A8AUVzuwZeZTYp1jW1HZwuwo1ogoQAAG9CcAA1LsHIB8EDECg7aBv+Ffl+X9K004t9IaC2V6JhSAKE7Xftx2PnQHIuqaWjJcqt5ZtVVt11AcCIKADARiAOkCHSBAwGgHFA6j2/D+lnRMGeuekfXkIw4cKE7Xf/QZgH/U9gKxr6iAYgGr3GeoDAT0JwADUkz5kg4BBCCgLQFJVXgCiNO+04hx5uPdoM9W1OJRsvKtEoK69hQ40Hpe1jY3BEDBXnFIyTtbfdnCbfMd/IAAC5iYAA9Dc/QftQSBqAry/a5tvWC+leGzU9XVVQZ/0ZBqU590T+KsKeAG7YhRN3vbjlfL2koxcyktJj6aqkPf6h4DLt4s9gRHOJyQoXAABkxCAAWiSjoKaIBArAry9l7u1gRKS00hZ7RkLWaf5h4HrY1F9XNe57Zh3BXAsFoAoYDlAeEJSKnnam6m9ao+SjXcQAAGTEoABaNKOg9ogoBaBlr2bZFWpgydSgj1RrWo71XNakXcYGPMAO6GJOmNTTbmsY0KfgVHXFaoC3hNY8RC3HvgyVDHkgwAImIQADECTdBTUBIFYEWjZ5zUA04ZNjZUIWakguowAABvqSURBVC8MwNjh3VBdJiuf3m9w7ISImtOGTZH1t+zeEFM5qBwEQCD2BGAAxp4xJICAoQm07N0o9Usb6v1yj5Wyk0q8HsAdIhRMQ6szVmLirt7athbaWVcl2z2tIMYG4EnTpZyWPTAA4+5BQ4MtRwAGoOW6FA0CgfAJeJztYgHIV/IGxbsT/t2RlSzKSaPBYiEIbwn3v2XeFauR1YDSXRHYWOP1/g3Pyqf8VPWDeAfKTB/uNQBbD2wht6Mt8BKOQQAETEYABqDJOgzqgoCaBFrLtxEbgTax00NSv5PUrLrLus4c2kfmf7rvWJfXkRk5gQ3VB+RN0woGRX5zhHck9RtG9qwC+cywEYgEAiBgXgIwAM3bd9AcBKIm0PTtOllH+vAZqu8f25VyigH4GQzArvD0Km9DldcDeLoGBiDv65zm8wK27F7fK31xEwiAgDEIwAA0Rj9ACxDQhUDzzn9LuRknf08T+Wf4PIDrDxwnp8utiUwrC3GKeHyfVe2XTZzeb4gmTU0/6XQpp3nXZ5rIgxAQAIHYEIABGBuuqBUEDE/A43JSc+knUs/0U87VRN9T+2dRTmoiNbW76KsKxAOMFjqHf6l3tFIfEfw5liFgAvVM9/1YaPrmQwSEDgSDYxAwGQEYgCbrMKgLAmoRaNm/WQaA5vl/yi4PatUdqh6bLYFmntRXXv7gu+pQxZAfJoEPKr6TJc8bMJzsNm0+ztOGTiZbei65m2upZd8XYWqKYiAAAkYjoM0nhtFaDX1AAASo+Vvf8O+omZSgkfHA2C8c3U/Sf2enN3QJuqL3BNZU7JI3nz9wZO8rifBODhaeccp58q6mr9+P8G4UBwEQMAoBGIBG6QnoAQIaE2jY+raUqHyZayX+Ip8B+Pn+41Tb4tBKrOXkNIih3/VV3hXA3x84QtP2ZY6ZJeU1ff2BpnIhDARAQD0CMADVY4maQMA0BJz1VdTim8SfNfEyTfUe0iedTu6fSS4REBDDwL1H/96hUnJ63HRSVl8aKl5apowx35fimvesJ1cjQvpoyR6yQEAtAjAA1SKJekDARAQatvyLyOOh1CGTKKlvieaaK17At3Yc0Vy2VQT+c9822ZQrBo/VvEnJBUMppWQckVhI1LBlpebyIRAEQCB6AjAAo2eIGkDAdAQatrwpdc6aOFsX3X80plDKffPrSmpxuHTRwcxCm0Xw7lUHv5FN+PEQYYjpkLKnXiml1m38hw7SIRIEQCBaAjAAoyWI+0HAZAScDTXUtMM7dytrkj4G4IwhfeS2cA1tToIXMPIH6J2DO6nZ6aAhmXk0OV97Dy5rnD31J1Lxpm/WkLPxaOSNwB0gAAK6EoABqCt+CAcB7QnUff6y3MordfBESi0eo70CQiKHg7l6YpGU/cqWg7roYGah/7PbG36FvX+8O4ceKaVwJKUOmiCHgev/F15APfoAMkEgGgIwAKOhh3tBwGQEPGLeX+3HL0qtc2f+TFftr55YLOWv/raKDtW16KqLmYSXNR6ntw9+K1W+acQ0XVXPOet6Kf/4h8+IKaUeXXWBcBAAgcgIwACMjBdKg4CpCfD+rW0Hv6aEpFTKOX2urm05pTCLzhrWh5xiNfDiz/brqouZhC8t3UBuYWydK4I/j871xlTUS//cM66jhOR0+Uw1l36slxqQCwIg0AsCMAB7AQ23gIBZCdSsWihVz5l+FdkzcnVvxm/OHiZ1eG79AWpud+quj9EVaHS00dLvNkg1fzV6uu7q8jOUM+Maqcex95/SXR8oAAIgED4BGIDhs0JJEDA1gZYDX1LjV6tIbPtBfS+52xBtufTUQhrWN52ONTtoyefeoMaGUMygSjz97WdU3dokY/9dNkif+Zsnouk763bxTCVQw+Y3qGX/lhMv4xwEQMCgBGAAGrRjoBYIqEmA52dVr/i9rDL79J9SSqG2O0eEaotdLAaZf55Xl/+7ZpcwBNtDFY37/Lr2Fvqvr9dJDgsmzKIkm90QTFKKThHTCa6SulT5njFDKAYlQAAEuiUAA7BbPLgIAtYg0LD5TWrc9g6RPYkKLrvfUI26fkoJjRHzAXlbuAfe+85QuhlJmbu/WE3H2pppdE4/umrYaUZSjQp+9KB4thKpafu7CAxtqJ6BMiAQmgAMwNBscAUELEGAY7RVvnKbbEv+xb+llAGjDNUu9gI+eempUqenP9tH/95dYyj9jKDMx5V76NnS9VKVZ6ZfTnabsT66k/ufRH0vvFPqd/h/fkWupuNGwAYdQAAEuiFgrE+RbhTFJRAAgcgJeNxuqlh6LTmPHaTk/sMp/4fzI69Egzu+P6qAfn76IN6djq5d9iVV1rdqINUcIg4319Pcj16Ryt40Yip9T6z+NWIqmL2AksWPC2ftYTr03H+Qx40dXozYT9AJBBQCMAAVEngHAYsR4Hl/R5bdQY1bV8uwL8W3rCBbSrphW8lewJEFGXSwrpV+8OJGahS7hMR74nl/s9e+RBXCCDwltz/997RLDYvElpxGRb94RT5rjVvfpiP/707EBjRsb0ExEBAB+QEBBEDAegQ8LidVvnwbHfvgz3KF5sCbXhS7Now3dEMzUxLp7Z9No/yMZNp8sI7Oe3Y91TS2GVrnWCpX3dpIs95bShtryilPGFcrz7uBskT8RiOntKGTaOBNf5EqclgYfgbhCTRyj0G3eCYAAzCeex9ttyQBx9EyKvvjhXR8zdOyfQOuW0Ic988MaXh+Bq0WRmCf9CTaWFZLkxZ9Qp/sjb99Zj+p3EsTV/63NP76CK/t2gt/ScOz883QheJZm0sDrn9O/vDgZ/DAf80ix9FyU+gOJUEgnghYygBcvHgxDRkyhFJTU2natGm0cePGbvvyn//8J40ePVqWHzt2LK1evbrb8rgIAkYmwBPvq15fQHvmn0pN36yVOzQU3/oa5X3vF0ZWu5NuUwbl0qe3nEEnifiAZcdb6OzFn9NVL2+h3TVNncpaLePb2iP0Hx8vo7PfeYYONtfRyOwC+uTiX9Npfb37JpulvXnf+z9U9KvllJCSQc3ffEi77x5N1W/+AYtDzNKB0DMuCCSIeUKW2MDx1VdfpWuvvZaeffZZafwtWrSI2MArLS2lfv06b5f0+eef09lnn00LFy6kH/zgB7Rs2TJ67LHHaMuWLTRmTHgBVuvr6yknJ4fq6uooOzs7Lh4YNNJYBFwt9dRc+gnVb/wH1X/xGnnavEZS2vAZYijuRUoZONpYCkegTUOrk36zcgf9ZVOZXBzCt35/ZD7NmVBEF4hFI8W5aRHUZtyih5rq6L1DpfTqvq/og4pd5BH/OP1s5DR6YsoPKTvZ2MO+3ZFtq9hJFS/9nFq++1QWSxBD2dlTr6SsibMp89TzyZaa2d3tuAYCMSOA72/hpLeKAcgevylTptDTT3uHvdxi9WNJSQndeuutdPfdnXc9mDNnDjU1NdGqVWJnBF86/fTTacKECdKIVPK6e8cD1B0dXFODAP8+c7c2kKu+ipwN1XKFZfvhUmo7vJPaDu2g1rKviAJWW6YUjxVx/u6jrMlXiA0/rOHg/+pQHd37zk5avbPKbwgyW/YQjh+YLV45cjeRopxUKhYvnkOYJeYTJtqN0X63xy3i97VQlejHqpZGuaCjtL6adtZW0RdHD9LehuAh7tlih4/5486lKQWD1HiEdK+Dn2H+gVLz1iPUVr6tQx8RNzCl6FQxN/U0Si0eQ4l9Siip7yBKyhtItrQcYRxmWeYZ7mg0joxCAN/fFjEA29vbKT09nVasWEGzZ8/2P1/XXXcd1dbW0sqVK/15ysGgQYNo3rx5dMcddyhZtGDBAnrzzTdp69at/rzAg7a2NuKXkvgBYiNTbQ/gy2ufp9eENyA4dThq5VHHaXAx35n3cuhCoa+ICnwXg8sEn7GYzjk+4QFvncsE58iz4KyAu72HoS97r4S+Lu73XfQkdKq2I0N8QXVbh69k78oE3+UhoUiXTndRThhyHmEscOgW77EIo8HGncgLTLKOgIyE5HRKzCqgxLwiub9vl9UHlOfDnlocrPUJN/tOexo8CKuOHsgHtqXF4aLDIjzMUbFbSL3wDvaUbCK+YKJ42cU2ZeKNdysTL3EsbuR3Pud8cSZeHdp6s+T/fNF31Xvdm9txTV73nbrJTS6PiwL/Ockpz7vjLTShXPGvxFZCg22DKSshS8q13H+iM4trv6KTq9bSiOqPKa/lULdN5Oe8LTFDvDLJaUshly2RXAlJ5Pa987mbz8XWht6UIHpRdIboWKW3PNzJIk/5mznxXF6T/efrxG41wkW9CORO/THNuuImVcXDACRKVJWoTpXV1NSQy+Wi/v37B2nA5zt37gzKU04qKyu7LM/5oRIPFz/44IOhLquWv61qH71pt8bwlmpQUFHPBI6LZ5dfVk/8qRXGyCGbze1asOiwHbuX5hSKO5OJXElEbeLvu02E5GnLIE9zNh13JxKHTt5G9eJ/flk18XScuUTpP6UBqdV0snOvfA12V9AAVzUVumuowH2ckoThzGZbqrNRvqxKA+0Kj8COfcPDK4hSERGwhAEYUYujKHzPPfdIr6FSheIBVM7Ver941BmUs6+LTdXlr1mvlFC/V9mbEJxOPBdXfVlBVwLqDpQQVCa4YnlmC3FfYNFORRQFfIWkjM6FAqvw3dGFNr77gq4EnXA13ozg7OAzb6ngvK5UYs9RcDrx3C8uoFhwGe/ZCXnCFZVgTxavJEpITCabOKbEJLKJ44SUTLIlifOA1LmfAy6Kw+Dag68pZ53bolzxvvckg0t1whFchdCjZ016KtGTnlKPALlOl4fYW9jsdFFLu4tancIzJ6xBl/CsOt0e8e7xvguPFJf12m/8v1cT9jrKXPnurViWkf95fYXKXXyzL1t4Fm1if95ESkqwixe/i5c4TxbvGfZUShT5SCcS+J4/g/d/4Rd7yG2uNkpsb/C+HA3ivJ1sbvFyOSjB7RTH/O6Q+dwDYi4T3yjvleeBHRN43VdG8RF27Y1nJZCMRGDIuLOMpI5ldLGEAZifn092u52OHDkS1DF8XlhYGJSnnHB+JOX5vpSUFPlS6ojV+zkTLyF+IYEACIAACIAACIBALAgokydiUbdmdSYnJ9OkSZNo7dq1fpm8CITPp0+f7s8LPOD8wPJ87YMPPghZPvBeHIMACIAACIAACICAmQlYwgPIHcALOnjRx+TJk2nq1KnEYWB4le8NN9wg+4dDxBQVFcmwL5xx++2308yZM+mJJ56gSy65hJYvX05ffPEFLV26VJbHfyAAAiAAAiAAAiBgVQKWMQA5rEt1dTXdf//9xAs5OJzLu+++61/oUVZWRraAsBgzZsyQsf/uvfdemj9/Po0YMUKuAA43BqBVHwi0CwRAAARAAARAwPoELBMHUI+uwjJyPahDJgiAAAiAAAhERwDf3yIMVnQIcTcIgAAIgAAIgAAIgIDZCMAANFuPQV8QAAEQAAEQAAEQiJIADMAoAeJ2EAABEAABEAABEDAbARiAZusx6AsCIAACIAACIAACURKAARglQNwOAiAAAiAAAiAAAmYjAAPQbD0GfUEABEAABEAABEAgSgIwAKMEiNtBAARAAARAAARAwGwEYACarcegLwiAAAiAAAiAAAhESQAGYJQAcTsIgAAIgAAIgAAImI2AZbaC0wO8x+ORYjmiOBIIgAAIgAAIgIA5CCjf28r3uDm0VldLGIBR8GxoaJB3l5SURFELbgUBEAABEAABENCDAH+P5+Tk6CFad5nYCziKLnC73VRRUUFZWVmUkJAQRU2db+VfJ2xYlpeXU3Z2ducCJs9B+0zegUJ99KG5+9Dq/ce9Y/U2on29/xtkzx8bfwMHDiSbLT5nw8ED2PvnRz40xcXFUdTQ861s/FnRAFRajvYpJMz7jj40b9+x5lbvv3hoo9X7MFbti1fPn/KJFZ9mr9J6vIMACIAACIAACIBAHBKAARiHnY4mgwAIgAAIgAAIxDcB+wMixTcC47bebrfTOeecQ4mJ1hypR/uM++yFqxn6MFxSxixn9f5j6lZvI9pnzL8tM2iFRSBm6CXoCAIgAAIgAAIgAAIqEsAQsIowURUIgAAIgAAIgAAImIEADEAz9BJ0BAEQAAEQAAEQAAEVCcAAVBEmqgIBEAABEAABEAABMxCAAWiGXoKOIAACIAACIAACIKAiARiAKsJUq6rFixfTkCFDKDU1laZNm0YbN25Uq2rd6/n444/phz/8oYy+zrunvPnmm7rrpKYCCxcupClTpsjdYfr160ezZ8+m0tJSNUXoWteSJUto3Lhx/uDB06dPp3feeUdXnWIp/NFHH5W7/Nxxxx2xFKNp3Rz4gf/2Al+jR4/WVIdYCzt06BBdc8011LdvX0pLS6OxY8fSF198EWuxmtXP3w+B/acc33zzzZrpEEtBLpeL7rvvPho6dKjsv5NOOokeeughiud9e2PBGwZgLKhGUeerr75K8+bNowULFtCWLVto/PjxdMEFF1BVVVUUtRrn1qamJtkmNnKtmD766CPiD+ENGzbQBx98QA6Hg2bNmkXcbisk3vmGjaLNmzfLL9Rzzz2XLrvsMtqxY4cVmhfUhk2bNtFzzz0nDd6gCxY4OfXUU+nw4cP+16effmqBVnmbcPz4cTrjjDMoKSlJ/jj55ptv6IknnqC8vDzLtJGfzcD+488aTj/5yU8s0cbHHnuM+Mfm008/Td9++y3x+eOPP05//vOfLdE+wzRCWNRIBiIwdepUjzAg/BqJX0IesVehR3iW/HlWORB/BJ433njDKs3psh3CcPdwO4Vh2OV1K2SKL1bPCy+8YIWm+Nsg9gj1jBgxwiO+WD0zZ8703H777f5rZj8QPy494oel2ZsRUv/f/e53njPPPDPkdSte4OdTeMk8Yn96SzTvkksu8dx4441Bbbn88ss9V199dVAeTqIjAA+gYUxxovb2dulZOf/88/1a8SbVfL5+/Xp/Hg7MQ6Curk4q26dPH/MoHaamPEyzfPly6d3koWArJfbiii8h+bdnpXYpbdm1a5echjFs2DASX6pUVlamXDL9+7/+9S+aPHmy9IbxNIzTTjuNnn/+edO3K1QD+Hvj5ZdfJmEwyWHhUOXMlD9jxgxau3Ytfffdd1LtrVu3EnupL7roIjM1w/C6WnOLCcNj71rBmpoa4i/V/v37BxXg8507dwbl4cT4BMSvceK5YzwcNWbMGOMrHKaG27dvJzb4WltbKTMzk4QXl0455ZQw7zZ+MTZqefoFD7NZMfG84r/+9a80atQoOYz44IMP0llnnUVff/21nLtq9jbv3btXDh/yVJr58+fLfrztttsoOTmZrrvuOrM3r5P+PI+6traWrr/++k7XzJpx9913U319PfHcVN7phL8XH374YfljxaxtMqLeMACN2CvQyRIE2IvEX6pWml/FHcOGw1dffUXs3VyxYoX8UuW5j1YwAsvLy0kMp8n5m7wIy4op0IvCC3rYIBw8eDD94x//oJtuusn0TeYfXuwBfOSRR2Rb2APIf4fPPvusJQ3AF198UXrGxFQh0/ed0gB+Fl955RVatmwZ8XxV/rzhH9PcRisa8Uq7tX6HAag18W7k5efny187R44cCSrF54WFhUF5ODE2gVtuuYVWrVpFvOqZF05YKbEnZfjw4bJJkyZNkh6Wp556Si6YMHs7eXELL7iaOHGivynsfeB+5AnpbW1t8m/Uf9ECB7m5uTRy5EjavXu3BVpDNGDAgE4/Rk4++WR67bXXLNG+wEYcOHCA1qxZQ6+//npgtumP77rrLmIv4E9/+lPZFl7FzW3lKAswANXrXswBVI9l1DXxFyt/ofLcByXxr1k+t9ocK6V9VnsXU3KJjT8eFv3www9lGAOrtfHE9vAzyoaRFdJ5551HPMTNHgflxd4knifH5zwcZbXU2NhIe/bskYaTFdrGUy5ODL3Ec8nYy2m19NJLLxHPc+T5qlZKzc3NxPPfAxP/7fFnDZJ6BOABVI+lKjXxvBX+hcNfOmJFMC1atEhOsr/hhhtUqV/vSvjLJtDTsG/fPvnFyoskBg0apLd6UcvnYV8etli5cqWcT1VZWSnrzMnJkfGsohagcwX33HOPHG7ivhIrZWVb161bR++9957OmqkjPisrq9N8zYyMDBlPzirzOP/zP/9TxuJkg6iiokKGnOIv17lz56oDUedafvOb3xAvIuAh4CuvvFLGUV26dCnxy0qJjSE2APn7IjHRWl/lHCuW5/zx5wwPAX/55Zf05JNPyoUuVupD3dsS3SJi3B0LAiLWkUc8+B7hEfRwWBgRUy4WYnSp89///rcMiyIe/KB38SGmiz5qCz2xXcq5+KBWW5Qu9XFoBmE4yGezoKDAIzxmnvfff18XXbQSarUwMHPmzPGIYVLZh0VFRR4+Fz/KtMKpiZy33nrLIwx2T0pKikcsJPAI408TuVoKET+65Geo8HZqKVYTWWIBiAy9xN+DYi6uR6xW9/z+97/3iJEGTeTHi5AEbqjuVigUAAEQAAEQAAEQAAEQ0IxA8CC7ZmIhCARAAARAAARAAARAQC8CMAD1Ig+5IAACIAACIAACIKATARiAOoGHWBAAARAAARAAARDQiwAMQL3IQy4IgAAIgAAIgAAI6EQABqBO4CEWBEAABEAABEAABPQiAANQL/KQCwIgAAIgAAIgAAI6EYABqBN4iAUBEAABEAABEAABvQjAANSLPOSCAAiAAAiAAAiAgE4EYADqBB5iQQAEQAAEQAAEQEAvAjAA9SIPuSAAAiAAAiAAAiCgEwEYgDqBh1gQAAHjEaiurqbCwkJ65JFH/Mp9/vnnJPblprVr1/rzcAACIAACZieAvYDN3oPQHwRAQFUCq1evptmzZxMbfqNGjaIJEybQZZddRk8++aSqclAZCIAACOhJAAagnvQhGwRAwJAEbr75ZlqzZg1NnjyZtm/fTps2baKUlBRD6gqlQAAEQKA3BGAA9oYa7gEBELA0gZaWFhozZgyVl5fT5s2baezYsZZuLxoHAiAQfwQwBzD++hwtBgEQ6IHAnj17qKKigtxuN+3fv7+H0rgMAiAAAuYjAA+g+foMGoMACMSQQHt7O02dOlXO/eM5gIsWLZLDwP369YuhVFQNAiAAAtoSgAGoLW9IAwEQMDiBu+66i1asWEFbt26lzMxMmjlzJuXk5NCqVasMrjnUAwEQAIHwCWAIOHxWKAkCIGBxAuvWrZMev7///e+UnZ1NNpuN+PiTTz6hJUuWWLz1aB4IgEA8EYAHMJ56G20FARAAARAAARAAAUEAHkA8BiAAAiAAAiAAAiAQZwRgAMZZh6O5IAACIAACIAACIAADEM8ACIAACIAACIAACMQZARiAcdbhaC4IgAAIgAAIgAAIwADEMwACIAACIAACIAACcUYABmCcdTiaCwIgAAIgAAIgAAIwAPEMgAAIgAAIgAAIgECcEYABGGcdjuaCAAiAAAiAAAiAAAxAPAMgAAIgAAIgAAIgEGcEYADGWYejuSAAAiAAAiAAAiAAAxDPAAiAAAiAAAiAAAjEGQEYgHHW4WguCIAACIAACIAACPx/xCOsU4UY9ooAAAAASUVORK5CYII=;imageBorder=default;strokeWidth=3;" parent="1" vertex="1">
                    <mxGeometry x="245.00000000000003" y="1754" width="253.31" height="190" as="geometry"/>
                </mxCell>
                <mxCell id="gZfv-GnPvZriBF9S_skx-93" style="rounded=0;orthogonalLoop=1;jettySize=auto;html=1;exitX=0;exitY=0;exitDx=0;exitDy=0;fontSize=13;fontColor=#000000;startArrow=none;startFill=0;endArrow=none;endFill=0;elbow=vertical;dashed=1;entryX=0;entryY=1;entryDx=0;entryDy=0;" parent="1" source="gZfv-GnPvZriBF9S_skx-92" target="gZfv-GnPvZriBF9S_skx-3" edge="1">
                    <mxGeometry relative="1" as="geometry">
                        <mxPoint x="279.55" y="1670" as="targetPoint"/>
                        <mxPoint x="294.55" y="1775" as="sourcePoint"/>
                    </mxGeometry>
                </mxCell>
                <mxCell id="gZfv-GnPvZriBF9S_skx-94" style="rounded=0;orthogonalLoop=1;jettySize=auto;html=1;fontSize=13;fontColor=#000000;startArrow=none;startFill=0;endArrow=none;endFill=0;elbow=vertical;dashed=1;entryX=0;entryY=1;entryDx=0;entryDy=0;exitX=1;exitY=0;exitDx=0;exitDy=0;" parent="1" source="gZfv-GnPvZriBF9S_skx-92" target="gZfv-GnPvZriBF9S_skx-4" edge="1">
                    <mxGeometry relative="1" as="geometry">
                        <mxPoint x="445" y="1270" as="targetPoint"/>
                        <mxPoint x="420" y="1790" as="sourcePoint"/>
                    </mxGeometry>
                </mxCell>
                <mxCell id="LYzpy9gXm9bIiIkYRrse-1" value="&lt;font color=&quot;#33001a&quot;&gt;Agnostic-Phase&lt;/font&gt;" style="rounded=0;whiteSpace=wrap;html=1;fillColor=#60a917;strokeColor=#2D7600;opacity=50;labelPosition=center;verticalLabelPosition=top;align=center;verticalAlign=bottom;fontColor=#ffffff;" parent="1" vertex="1">
                    <mxGeometry x="1036.05" y="1355" width="190" height="330" as="geometry"/>
                </mxCell>
            </root>
        </mxGraphModel>
    </diagram>
</mxfile>